<?xml version="1.0" encoding="UTF-8"?>
<svg width="28px" height="40px" viewBox="0 0 28 40" version="1.1" xmlns="http://www.w3.org/2000/svg" xmlns:xlink="http://www.w3.org/1999/xlink">
    <!-- Generator: Sketch 61 (89581) - https://sketch.com -->
    <title>accessbility</title>
    <desc>Created with Sketch.</desc>
    <g id="Page-1" stroke="none" stroke-width="1" fill="none" fill-rule="evenodd">
        <g id="LDNSTDM_GettingHere_D_v1" transform="translate(-1153.000000, -1583.000000)" fill="#00D9E3" fill-rule="nonzero">
            <g id="Accessbility" transform="translate(1153.000000, 1583.000000)">
                <path d="M6.20331018,20.3163445 C8.66569285,19.3321617 11.5542571,19.3321617 14.0166398,20.3163445 C14.8345641,20.657187 15.6133533,21.1142258 16.3174299,21.65225 L16.526376,21.8160516 L16.8104971,22.0972466 L16.8104971,22.0972466 L17.2675819,22.4824884 C18.5837171,23.5796126 21.4170339,25.8150363 23.8398851,26.4164942 L24.9436464,26.6692501 C26.5493389,27.0444054 27.263785,27.2993556 27.4650374,28.096075 C27.6544515,28.8927944 27.0388558,29.4083187 26.4706137,29.9707088 L26.0889153,30.2945009 C24.7785298,31.4342994 22.6823326,33.6648775 22.6823326,38.9689514 C22.6823326,39.5313415 22.2087975,40 21.6405554,40 C21.0723132,40 20.5987781,39.5313415 20.5987781,38.9689514 C20.5987781,32.7826596 23.2505748,30.0644405 24.7185337,28.7521968 C24.2923521,28.6584651 23.8188169,28.5178676 23.5346959,28.4710018 C22.3035045,28.1898067 20.9776062,27.5805507 19.7464148,26.8306971 C20.0305359,27.7680141 20.1725965,28.7521968 20.1725965,29.7832455 C20.1725965,31.2829525 19.8884754,32.6420621 19.3675867,33.90744 C18.8466981,35.1728178 18.0890419,36.2507323 17.1893252,37.1411834 C16.2896084,38.0316344 15.2004776,38.7346221 13.9692863,39.2501465 C12.7854485,39.7656708 11.4595501,40 10.0862982,40 C8.76039987,40 7.43450151,39.7656708 6.20331018,39.2501465 C4.97211885,38.7346221 3.88298805,38.0316344 2.98327131,37.1411834 C2.08355456,36.2507323 1.32589836,35.125952 0.805009718,33.90744 C0.284121077,32.6420621 0,31.2829525 0,29.7832455 C0,28.2835384 0.284121077,26.9244288 0.805009718,25.659051 C1.32589836,24.3936731 2.08355456,23.3157586 2.98327131,22.4253076 C3.88298805,21.5348565 4.97211885,20.8318688 6.20331018,20.3163445 Z M10.0389447,21.5348565 C8.94981392,21.5348565 7.90803664,21.7691857 6.91361287,22.1441125 C5.9191891,22.5659051 5.06682587,23.1282953 4.35652318,23.831283 C3.64622049,24.5342707 3.07797833,25.4247217 2.65179672,26.4089045 C2.27296862,27.3930873 2.03620105,28.5178676 2.03620105,29.7363796 C2.03620105,30.9548916 2.2256151,32.0796719 2.65179672,33.0638547 C3.04753679,33.9777387 3.56576784,34.8108031 4.20648986,35.4880009 L4.35652318,35.6414763 C5.06682587,36.3913298 5.96654262,36.95372 6.91361287,37.3286467 C8.8551069,38.1253661 11.2227825,38.1253661 13.1642766,37.3286467 C14.1587003,36.9068541 15.0110636,36.344464 15.7213663,35.6414763 C16.4316689,34.9384886 16.9999111,34.0480375 17.4260927,33.0638547 C17.8049208,32.0796719 18.0416884,30.9548916 18.0416884,29.7363796 C18.0416884,28.5178676 17.8522743,27.3930873 17.4260927,26.4089045 C16.9999111,25.4247217 16.4316689,24.5342707 15.7213663,23.831283 L15.1612356,23.3669639 C15.1399703,23.3483044 15.1215551,23.3313806 15.1057706,23.3157586 C14.5375284,22.8471002 13.8745793,22.4253076 13.1642766,22.1441125 C12.1698528,21.7223199 11.1280755,21.5348565 10.0389447,21.5348565 Z M7.57656205,10.8025776 C9.6127631,9.95899238 12.0751458,9.95899238 14.1587003,10.8025776 C15.0820938,11.1942422 15.964657,11.7475461 16.6926482,12.424966 L16.8578506,12.5834798 C17.6628603,13.3333333 18.2784559,14.2706503 18.7046376,15.3016989 C19.0106141,16.0371322 19.4376363,16.6926994 19.9484594,17.2315393 L20.0778894,17.3637961 C20.6461316,17.9730521 21.3090808,18.3948448 22.1140905,18.7229057 C22.8717467,19.0509666 23.7241099,19.1915641 24.6238267,19.1915641 C25.1920688,19.1915641 25.6656039,19.6602226 25.6656039,20.2226128 C25.6656039,20.7850029 25.1920688,21.2536614 24.6238267,21.2536614 C23.4399888,21.2536614 22.3508581,21.0193322 21.3090808,20.5975395 C20.3856873,20.205875 19.5031241,19.652571 18.7751329,18.9751512 L18.6099305,18.8166374 C17.8585881,18.1167741 17.2722464,17.2536093 16.8509054,16.3033505 L16.7631435,16.0984183 C16.4316689,15.3016989 15.9581338,14.5987112 15.3898917,14.036321 C14.8216495,13.427065 14.1587003,13.0052724 13.3536906,12.6772115 C11.7910247,12.0210896 9.89688418,12.0210896 8.33421826,12.6772115 C7.57656205,13.0052724 6.86625936,13.4739309 6.29801721,14.036321 C5.72977505,14.5987112 5.25623992,15.3016989 4.92476533,16.0984183 C4.59329074,16.8951377 4.40387669,17.7855888 4.40387669,18.7697715 C4.40387669,19.3321617 3.93034156,19.8008202 3.36209941,19.8008202 C2.79385726,19.8008202 2.36767564,19.3790275 2.36767564,18.7697715 C2.36767564,17.5043937 2.60444321,16.3327475 3.03062482,15.3016989 C3.50415995,14.2706503 4.11975562,13.3333333 4.87741182,12.5834798 C5.63506803,11.8336262 6.53478477,11.2243702 7.57656205,10.8025776 Z M13.6851652,0.351493849 C14.8216495,-0.117164616 16.1475479,-0.117164616 17.2840322,0.351493849 C17.8522743,0.585823081 18.3258095,0.913884007 18.7519911,1.33567663 C19.1781727,1.75746924 19.5096473,2.27299356 19.7464148,2.83538371 C19.9831824,3.39777387 20.1252429,4.05389572 20.1252429,4.71001757 C20.1252429,5.36613943 19.9831824,6.02226128 19.7464148,6.58465144 C19.5096473,7.19390744 19.1781727,7.66256591 18.7519911,8.08435852 C18.3258095,8.50615114 17.8522743,8.83421207 17.2840322,9.0685413 C16.71579,9.30287053 16.1001944,9.39660223 15.4845987,9.39660223 C14.869003,9.39660223 14.2534074,9.30287053 13.6851652,9.0685413 C13.1169231,8.83421207 12.6433879,8.50615114 12.2172063,8.08435852 C11.7910247,7.66256591 11.4595501,7.19390744 11.2227825,6.58465144 C10.986015,6.02226128 10.8439544,5.36613943 10.8439544,4.71001757 C10.8439544,4.11354316 10.9613598,3.51706875 11.1605933,2.99101635 L11.2227825,2.83538371 C11.4595501,2.22612771 11.7910247,1.75746924 12.2172063,1.33567663 C12.6433879,0.913884007 13.1169231,0.585823081 13.6851652,0.351493849 Z M15.4845987,2.08553017 C15.1531241,2.08553017 14.8216495,2.13239602 14.4901749,2.27299356 C14.2060538,2.36672525 13.9219328,2.55418864 13.6851652,2.78851787 C13.4483976,3.0228471 13.2589836,3.30404218 13.1169231,3.6321031 C12.9748625,3.96016403 12.8801555,4.3350908 12.8801555,4.71001757 C12.8801555,5.08494435 12.927509,5.45987112 13.0695695,5.78793204 C13.2116301,6.11599297 13.4010441,6.39718805 13.6378117,6.63151728 C13.8745793,6.86584651 14.1113468,7.00644405 14.4428214,7.14704159 C15.1057706,7.42823667 15.8634268,7.42823667 16.4790225,7.14704159 C16.7631435,7.0533099 17.0472646,6.86584651 17.2840322,6.63151728 C17.5207997,6.39718805 17.7102138,6.11599297 17.8522743,5.78793204 C17.9943349,5.45987112 18.0416884,5.13181019 18.0416884,4.71001757 C18.0416884,4.3350908 17.9943349,3.96016403 17.8522743,3.6321031 C17.7102138,3.30404218 17.5207997,3.0228471 17.2840322,2.78851787 C17.0472646,2.60105448 16.8104971,2.4135911 16.4790225,2.27299356 C16.1949014,2.13239602 15.8634268,2.08553017 15.4845987,2.08553017 Z" id="accessbility"></path>
            </g>
        </g>
    </g>
</svg>