<?xml version="1.0" encoding="UTF-8"?>
<svg width="32px" height="31px" viewBox="0 0 32 31" version="1.1" xmlns="http://www.w3.org/2000/svg" xmlns:xlink="http://www.w3.org/1999/xlink">
    <!-- Generator: Sketch 59.1 (86144) - https://sketch.com -->
    <title>calendar</title>
    <desc>Created with Sketch.</desc>
    <g id="Page-1" stroke="none" stroke-width="1" fill="none" fill-rule="evenodd">
        <g id="LDNSTDM_Home_D_v1" transform="translate(-121.000000, -7069.000000)" fill="#00D9E3" fill-rule="nonzero">
            <g id="Group-7" transform="translate(0.000000, 6510.000000)">
                <path d="M129.358713,559 C128.97447,559 128.663061,559.315425 128.663061,559.704545 L128.663061,564.030893 C127.469043,564.347575 126.576104,565.446088 126.576104,566.749996 C126.576104,568.298058 127.830157,569.568191 129.358713,569.568191 C130.88727,569.568191 132.141322,568.298058 132.141322,566.749996 C132.141322,565.446088 131.248348,564.347575 130.054365,564.030893 L130.054365,559.704545 C130.054365,559.315425 129.742922,559 129.358713,559 Z M144.663061,559 C144.278817,559 143.967409,559.315425 143.967409,559.704545 L143.967409,564.030893 C142.773391,564.347575 141.880452,565.446088 141.880452,566.749996 C141.880452,568.298058 143.134504,569.568191 144.663061,569.568191 C146.191617,569.568191 147.44567,568.298058 147.44567,566.749996 C147.44567,565.446088 146.552696,564.347575 145.358713,564.030893 L145.358713,559.704545 C145.358713,559.315425 145.04727,559 144.663061,559 Z M124.489148,561.113574 C122.568765,561.113574 121,562.702438 121,564.64737 L121,586.466248 C121,588.411145 122.568765,590 124.489148,590 L149.510887,590 C151.43127,590 153,588.411145 153,586.466248 L153,564.64737 C153,562.702438 151.43127,561.113574 149.510887,561.113574 L147.434783,561.113574 C147.06727,561.108351 146.728278,561.445934 146.728278,561.818181 C146.728278,562.190427 147.06727,562.527975 147.434783,562.522726 L149.510887,562.522726 C150.6832,562.522726 151.608696,563.460035 151.608696,564.64737 L151.608696,570.977281 L122.391304,570.977281 L122.391304,564.64737 C122.391304,563.460035 123.316765,562.522726 124.489148,562.522726 L126.565217,562.522726 C126.93273,562.52801 127.271757,562.190427 127.271757,561.818181 C127.271757,561.445934 126.93273,561.108387 126.565217,561.113574 L124.489148,561.113574 Z M132.130435,561.113635 C131.746226,561.113635 131.434783,561.42906 131.434783,561.818181 C131.434783,562.207301 131.746226,562.522726 132.130435,562.522726 L141.869565,562.522726 C142.253774,562.522726 142.565217,562.207301 142.565217,561.818181 C142.565217,561.42906 142.253774,561.113635 141.869565,561.113635 L132.130435,561.113635 Z M129.358713,565.340906 C130.135339,565.340906 130.750017,565.963407 130.750017,566.749996 C130.750017,567.536551 130.135339,568.159087 129.358713,568.159087 C128.582087,568.159087 127.967409,567.536551 127.967409,566.749996 C127.967409,565.963407 128.582087,565.340906 129.358713,565.340906 Z M144.663061,565.340906 C145.439687,565.340906 146.054365,565.963407 146.054365,566.749996 C146.054365,567.536551 145.439687,568.159087 144.663061,568.159087 C143.886435,568.159087 143.271757,567.536551 143.271757,566.749996 C143.271757,565.963407 143.886435,565.340906 144.663061,565.340906 Z M122.391304,572.386372 L151.608696,572.386372 L151.608696,586.466248 C151.608696,587.653583 150.6832,588.59091 149.510887,588.59091 L124.489148,588.59091 C123.316765,588.59091 122.391304,587.653583 122.391304,586.466248 L122.391304,572.386372 Z" id="calendar"></path>
            </g>
        </g>
    </g>
</svg>