<?xml version="1.0" encoding="UTF-8"?>
<svg width="32px" height="32px" viewBox="0 0 32 32" version="1.1" xmlns="http://www.w3.org/2000/svg" xmlns:xlink="http://www.w3.org/1999/xlink">
    <!-- Generator: Sketch 61 (89581) - https://sketch.com -->
    <title>clock</title>
    <desc>Created with Sketch.</desc>
    <g id="Page-1" stroke="none" stroke-width="1" fill="none" fill-rule="evenodd">
        <g id="LDNSTDM_Home_D_v1_Alternate" transform="translate(-844.000000, -2544.000000)" fill="#134273" fill-rule="nonzero">
            <path d="M860,2544 C868.822,2544 876,2551.178 876,2560 C876,2568.822 868.822,2576 860,2576 C851.178,2576 844,2568.822 844,2560 C844,2551.178 851.178,2544 860,2544 Z M860,2546 C852.28,2546 846,2552.28 846,2560 C846,2567.718 852.28,2574 860,2574 C867.718,2574 874,2567.718 874,2560 C874,2552.28 867.718,2546 860,2546 Z M865.7064,2564.2924 L861.0004,2559.5864 L861.0004,2551.0004 C861.0004,2550.4484 860.5524,2550.0004 860.0004,2550.0004 C859.4484,2550.0004 859.0004,2550.4484 859.0004,2551.0004 L859.0004,2560.0004 C859.0004,2560.2764 859.1124,2560.5264 859.2924,2560.7064 L864.2924,2565.7064 C864.4744,2565.8884 864.7244,2566.0004 865.0004,2566.0004 C865.5524,2566.0004 866.0004,2565.5524 866.0004,2565.0004 C866.0004,2564.7244 865.8884,2564.4744 865.7064,2564.2924 Z" id="clock"></path>
        </g>
    </g>
</svg>