<?xml version="1.0" encoding="UTF-8"?>
<svg width="40px" height="40px" viewBox="0 0 40 40" version="1.1" xmlns="http://www.w3.org/2000/svg" xmlns:xlink="http://www.w3.org/1999/xlink">
    <!-- Generator: Sketch 61 (89581) - https://sketch.com -->
    <title>experience</title>
    <desc>Created with Sketch.</desc>
    <g id="Page-1" stroke="none" stroke-width="1" fill="none" fill-rule="evenodd">
        <g id="LDNSTDM_WhatsOn/Event_D_v1" transform="translate(-1153.000000, -1980.000000)" fill="#00D9E3" fill-rule="nonzero">
            <g id="noun_User-Experience_186904" transform="translate(1153.000000, 1980.000000)">
                <path d="M17.125,5.95833333 C26.4583333,5.95833333 34.0416667,13.5416667 34.0416667,22.875 C34.0416667,32.2083333 26.4583333,39.7916667 17.125,39.7916667 C7.79166667,39.7916667 0.208333333,32.2083333 0.208333333,22.875 C0.208333333,13.5416667 7.79166667,5.95833333 17.125,5.95833333 Z M17.125,8.875 C9.41666667,8.875 3.125,15.1666667 3.125,22.875 C3.125,30.5833333 9.41666667,36.875 17.125,36.875 C24.8333333,36.875 31.125,30.5833333 31.125,22.875 C31.125,15.1666667 24.8333333,8.875 17.125,8.875 Z M24.9123734,22.8155131 L25.0833333,22.7916667 C25.7916667,22.6666667 26.5416667,22.9583333 27.125,23.5 C27.5416667,23.9583333 27.75,24.5416667 27.6666667,25.1666667 C27.0416667,30.4583333 22.5416667,34.4583333 17.2083333,34.4583333 C11.875,34.4583333 7.375,30.4583333 6.75,25.1666667 C6.70833333,24.5833333 6.875,23.9583333 7.29166667,23.5 C7.75,22.9583333 8.5,22.6666667 9.25,22.7916667 C10.6666667,23 13.75,23.1666667 17.1666667,23.1666667 L18.3227104,23.1602019 C21.1132344,23.1290657 23.6042876,22.9889267 24.9123734,22.8155131 L24.9123734,22.8155131 Z M24.4583333,25.8333333 C22.7083333,26.0416667 20.0416667,26.125 17.125,26.125 L16.1070544,26.1199454 C13.5935698,26.0950115 11.3357843,25.9803922 9.79166667,25.8333333 C10.625,29.1666667 13.625,31.5416667 17.125,31.5416667 C20.625,31.5416667 23.625,29.125 24.4583333,25.8333333 Z M23.9583333,16.5833333 C24.875,16.5833333 25.75,16.9166667 26.4166667,17.5833333 C27,18.1666667 27,19.0833333 26.4166667,19.6666667 C26.125,19.9583333 25.75,20.0833333 25.375,20.0833333 C25.046875,20.0833333 24.71875,19.9876302 24.4464518,19.7683105 L24.3333333,19.6666667 C24.25,19.5833333 24.125,19.5 23.9166667,19.5 C23.7430556,19.5 23.6273148,19.5578704 23.5453318,19.6253858 L23.5,19.6666667 C22.9166667,20.2083333 22,20.2083333 21.5,19.6666667 C20.9166667,19.0833333 20.9166667,18.1666667 21.5,17.5833333 C22.1666667,16.9583333 23.0416667,16.5833333 23.9583333,16.5833333 Z M10.4166667,16.5833333 C11.3333333,16.5833333 12.2083333,16.9166667 12.875,17.5833333 C13.4583333,18.1666667 13.4583333,19.0833333 12.875,19.6666667 C12.5833333,19.9583333 12.2083333,20.0833333 11.8333333,20.0833333 C11.5052083,20.0833333 11.1770833,19.9876302 10.9047852,19.7683105 L10.7916667,19.6666667 C10.7083333,19.5833333 10.5833333,19.5 10.375,19.5 C10.1666667,19.5 10.0416667,19.5833333 9.95833333,19.6666667 C9.375,20.2083333 8.45833333,20.2083333 7.95833333,19.6666667 C7.375,19.0833333 7.375,18.1666667 7.95833333,17.5833333 C8.625,16.9583333 9.5,16.5833333 10.4166667,16.5833333 Z M33.4166667,0.208333333 C34.1617647,0.208333333 34.7961361,0.798875433 34.8681898,1.52836861 L34.875,1.66666667 L34.875,5.125 L38.3333333,5.125 C39.125,5.125 39.7916667,5.79166667 39.7916667,6.58333333 C39.7916667,7.32843137 39.2011246,7.96280277 38.4716314,8.0348565 L38.3333333,8.04166667 L34.875,8.04166667 L34.875,11.5 C34.875,12.2916667 34.2083333,12.9583333 33.4166667,12.9583333 C32.6715686,12.9583333 32.0371972,12.3677912 31.9651435,11.6382981 L31.9583333,11.5 L31.9583333,8.04166667 L28.5,8.04166667 C27.7083333,8.04166667 27.0416667,7.375 27.0416667,6.58333333 C27.0416667,5.83823529 27.6322088,5.2038639 28.3617019,5.13181016 L28.5,5.125 L31.9583333,5.125 L31.9583333,1.66666667 C31.9583333,0.875 32.625,0.208333333 33.4166667,0.208333333 Z" id="experience"></path>
            </g>
        </g>
    </g>
</svg>