<?xml version="1.0" encoding="UTF-8"?>
<svg width="40px" height="40px" viewBox="0 0 40 40" version="1.1" xmlns="http://www.w3.org/2000/svg" xmlns:xlink="http://www.w3.org/1999/xlink">
    <!-- Generator: Sketch 61 (89581) - https://sketch.com -->
    <title>food</title>
    <desc>Created with Sketch.</desc>
    <g id="Page-1" stroke="none" stroke-width="1" fill="none" fill-rule="evenodd">
        <g id="LDNSTDM_GettingHere_D_v1" transform="translate(-792.000000, -1584.000000)" fill="#00D9E3" fill-rule="nonzero">
            <g id="noun_Fast-Food_563507-Copy" transform="translate(792.000000, 1584.000000)">
                <path d="M12.5,7.37188088e-14 L16.6743517,7.37188088e-14 C17.4668845,7.37188088e-14 18.214467,0.556521155 18.4670726,1.3063807 L18.5085258,1.44915639 L19.784,6.666 L39.172678,6.66666667 C39.5883891,6.66666667 39.9415706,6.98457099 39.9934464,7.39546844 L40,7.5 C40,7.91240986 39.6843889,8.27350684 39.2764555,8.32661993 L39.172678,8.33333333 L38.249,8.333 L35.1699425,37.595952 C35.0355062,38.873097 33.9434221,39.9102651 32.671017,39.9944785 L32.5040923,40 L6.66374207,40 C4.99007255,40 3.27263686,38.8049316 2.65106877,37.2372028 L2.5818137,37.0473392 L1.76991332,34.6128428 C0.717028475,34.0530583 2.42472709e-12,32.9428224 2.42472709e-12,31.6585308 L2.42472709e-12,30.0081358 C2.42472709e-12,28.7655379 0.673209625,27.6813573 1.67601496,27.105625 C1.94277655,21.3390106 8.03150356,16.8079603 15.4830604,16.6699083 L15.9606741,16.6670946 L15.9606741,16.6670946 L15.083,8.333 L14.1606553,8.33333333 C13.7449443,8.33333333 13.3917627,8.01542901 13.3398869,7.60453156 L13.3333333,7.5 C13.3333333,7.08759014 13.6489444,6.72649316 14.0568778,6.67338007 L14.1606553,6.66666667 L18.069,6.666 L16.8895835,1.84514057 C16.8741954,1.78222778 16.7906416,1.70575216 16.7218662,1.67767842 L16.6743517,1.66666667 L12.5,1.66666667 C12.0397627,1.66666667 11.6666667,1.29357063 11.6666667,0.833333333 C11.6666667,0.40849891 11.984571,0.0579150197 12.3954684,0.00649284972 L12.5,7.37188088e-14 L16.6743517,7.37188088e-14 L12.5,7.37188088e-14 Z M36.574,8.333 L16.759,8.333 L17.6455941,16.7542937 C24.416909,17.4138822 29.7422433,21.7215871 29.9909169,27.105921 C30.9918168,27.6800621 31.6666667,28.7621904 31.6666667,30.0081358 L31.6666667,31.6585308 C31.6666667,32.9393413 30.9514152,34.0518412 29.8972116,34.6127039 L29.084853,37.0473392 C28.930298,37.511004 28.6777363,37.9468168 28.3560637,38.3339359 L32.5040923,38.3333333 C32.9540823,38.3333333 33.3888614,37.9709315 33.4933693,37.5325027 L33.5124333,37.4214773 L36.574,8.333 Z M28.01,34.999 L3.655,34.999 L4.16295253,36.5202928 C4.47255774,37.4491085 5.52252666,38.2452793 6.50139485,38.3265139 L6.66374207,38.3333333 L25.0029247,38.3333333 C25.9645751,38.3333333 27.057321,37.5800344 27.4456571,36.672818 L27.5037142,36.5202928 L28.01,34.999 Z M18.821,28.333 L3.32903652,28.3333333 C2.40910733,28.3333333 1.66666667,29.0794113 1.66666667,30.0081358 L1.66666667,31.6585308 C1.66666667,32.5884648 2.4097151,33.3333333 3.32903652,33.3333333 L28.3376302,33.3333333 C29.2575593,33.3333333 30,32.5872553 30,31.6585308 L30,30.0081358 C30,29.0782018 29.2569515,28.3333333 28.3376302,28.3333333 L27.845,28.333 L23.922589,32.2559223 C23.6242718,32.5542394 23.1560501,32.5790992 22.8294154,32.3305016 L22.7440777,32.2559223 L18.821,28.333 Z M25.491,28.333 L21.178,28.333 L23.33833,30.493152 L25.491,28.333 Z M15.8333333,18.3333333 C9.27617779,18.3333333 3.96114321,22.0435467 3.3850906,26.666146 L28.2815761,26.666146 C27.7055235,22.0435467 22.3904889,18.3333333 15.8333333,18.3333333 Z" id="food"></path>
            </g>
        </g>
    </g>
</svg>