<?xml version="1.0" encoding="UTF-8"?>
<svg width="37px" height="37px" viewBox="0 0 37 37" version="1.1" xmlns="http://www.w3.org/2000/svg" xmlns:xlink="http://www.w3.org/1999/xlink">
    <!-- Generator: Sketch 61 (89581) - https://sketch.com -->
    <title>info</title>
    <desc>Created with Sketch.</desc>
    <g id="Page-1" stroke="none" stroke-width="1" fill="none" fill-rule="evenodd">
        <g id="LDNSTDM_GettingHere_D_v1" transform="translate(-431.000000, -1587.000000)" fill="#00D9E3" fill-rule="nonzero">
            <g id="noun_Information_2984900" transform="translate(431.000000, 1587.000000)">
                <path d="M17.4141304,29.6804348 C17.0923913,29.6804348 16.7706522,29.5597826 16.5293478,29.3586957 C16.1271739,29.0369565 15.926087,28.5141304 16.0467391,27.9913043 L18.0173913,17.9369565 L16.9315217,18.5402174 C16.2478261,18.9021739 15.4032609,18.701087 15.001087,18.0173913 C14.6391304,17.3336957 14.8402174,16.4891304 15.523913,16.0869565 L19.2641304,13.9554348 C19.7467391,13.673913 20.35,13.7141304 20.7923913,14.0358696 C21.2347826,14.3576087 21.4358696,14.9206522 21.3554348,15.4434783 L19.3043478,25.9 L20.9934783,25.176087 C21.7173913,24.8543478 22.5217391,25.176087 22.8434783,25.9 C23.1652174,26.623913 22.8434783,27.4282609 22.1195652,27.75 L17.9771739,29.5597826 C17.8163043,29.6402174 17.6152174,29.6804348 17.4141304,29.6804348 Z M21.3956522,10.4565217 C21.7576087,10.0945652 21.998913,9.57173913 21.998913,9.04891304 C21.998913,8.52608696 21.7978261,8.00326087 21.3956522,7.64130435 C21.0336957,7.27934783 20.5108696,7.03804348 19.9880435,7.03804348 C19.4652174,7.03804348 18.9423913,7.23913043 18.5804348,7.64130435 C18.2184783,8.00326087 17.9771739,8.52608696 17.9771739,9.04891304 C17.9771739,9.57173913 18.1782609,10.0945652 18.5804348,10.4565217 C18.9423913,10.8184783 19.4652174,11.0597826 19.9880435,11.0597826 C20.5108696,11.0597826 21.0336957,10.8586957 21.3956522,10.4565217 Z M37,18.5 C37,8.28478261 28.7152174,0 18.5,0 C8.28478261,0 0,8.28478261 0,18.5 C0,28.7152174 8.28478261,37 18.5,37 C28.7152174,37 37,28.7152174 37,18.5 Z M33.7826087,18.5 C33.7826087,26.9456522 26.9456522,33.7826087 18.5,33.7826087 C10.0543478,33.7826087 3.2173913,26.9456522 3.2173913,18.5 C3.2173913,10.0543478 10.0543478,3.2173913 18.5,3.2173913 C26.9456522,3.2173913 33.7826087,10.0543478 33.7826087,18.5 Z" id="info"></path>
            </g>
        </g>
    </g>
</svg>