<?xml version="1.0" encoding="UTF-8"?>
<svg width="32px" height="32px" viewBox="0 0 32 32" version="1.1" xmlns="http://www.w3.org/2000/svg" xmlns:xlink="http://www.w3.org/1999/xlink">
    <!-- Generator: Sketch 59.1 (86144) - https://sketch.com -->
    <title>location</title>
    <desc>Created with Sketch.</desc>
    <g id="Page-1" stroke="none" stroke-width="1" fill="none" fill-rule="evenodd">
        <g id="LDNSTDM_Home_D_v1" transform="translate(-529.000000, -7068.000000)" fill="#00B8C3" fill-rule="nonzero">
            <g id="Group-7" transform="translate(0.000000, 6510.000000)">
                <g id="noun_Pin-location_423439" transform="translate(529.000000, 558.000000)">
                    <path d="M27.7333333,19.2 C30.4711111,20.5866667 32,22.4355556 32,24.4266667 C32,28.6577778 24.96,32 16,32 C7.04,32 0,28.6577778 0,24.4266667 C0,22.4355556 1.52888889,20.5866667 4.30222222,19.2 C4.72888889,18.9866667 5.26222222,19.1644444 5.51111111,19.5911111 C5.72444444,20.0177778 5.54666667,20.5511111 5.12,20.8 C2.98666667,21.8666667 1.81333333,23.1466667 1.81333333,24.4266667 C1.77777778,27.84 9.28,30.2222222 16,30.2222222 C22.72,30.2222222 30.2222222,27.84 30.2222222,24.4266667 C30.2222222,23.1466667 29.0488889,21.8666667 26.9155556,20.8 C26.4888889,20.5866667 26.3111111,20.0533333 26.5244444,19.5911111 C26.7377778,19.1644444 27.2711111,18.9866667 27.7333333,19.2 Z M16,-2.06057393e-13 C22.0444444,-2.06057393e-13 26.9511111,4.90666667 26.9511111,10.9511111 C26.9511111,14.6133333 25.1377778,18.56 21.6888889,22.3288889 C19.1288889,25.1377778 16.6044444,26.88 16.4977778,26.9511111 C16.3555556,27.0577778 16.1777778,27.1288889 16,27.1288889 C15.8577778,27.1288889 15.7155556,27.1061333 15.5915378,27.0424178 L15.3387007,26.8730116 C13.9623909,25.8961415 5.04888889,19.2 5.04888889,10.9866667 C5.04888889,4.90666667 9.95555556,-2.06057393e-13 16,-2.06057393e-13 Z M16,1.77777778 C10.9511111,1.77777778 6.82666667,5.90222222 6.82666667,10.9511111 C6.82666667,17.7066667 14.0088889,23.6088889 16,25.1022222 L16.4819659,24.7315138 C18.9476021,22.7907306 25.1733333,17.2407663 25.1733333,10.9511111 C25.1733333,5.90222222 21.0488889,1.77777778 16,1.77777778 Z M16,5.26222222 C18.9155556,5.26222222 21.2977778,7.64444444 21.2977778,10.56 C21.2977778,13.4755556 18.9155556,15.8222222 16,15.8222222 C13.0844444,15.8222222 10.7022222,13.44 10.7022222,10.5244444 C10.7022222,7.60888889 13.0844444,5.26222222 16,5.26222222 Z M16,7.04 C14.0444444,7.04 12.48,8.60444444 12.48,10.56 C12.48,12.5155556 14.0444444,14.08 16,14.08 C17.9555556,14.08 19.52,12.5155556 19.52,10.56 C19.52,8.60444444 17.9555556,7.04 16,7.04 Z" id="location"></path>
                </g>
            </g>
        </g>
    </g>
</svg>