<?xml version="1.0" encoding="UTF-8"?>
<svg width="80px" height="67px" viewBox="0 0 80 67" version="1.1" xmlns="http://www.w3.org/2000/svg" xmlns:xlink="http://www.w3.org/1999/xlink">
    <!-- Generator: Sketch 59.1 (86144) - https://sketch.com -->
    <title>logo</title>
    <desc>Created with Sketch.</desc>
    <g id="Page-1" stroke="none" stroke-width="1" fill="none" fill-rule="evenodd">
        <g id="LDNSTDM_Home_D_v1" transform="translate(-17.000000, -20.000000)" fill="#FFFFFF">
            <path d="M57.0001376,45.2198631 C67.6373741,45.2198631 77.6418809,46.4161266 85.1699618,48.5887216 L85.8341317,48.7849588 C93.0417514,50.9652284 97,53.855219 97,56.9544928 C97,58.2763125 96.2778238,59.5597137 94.8926437,60.7668346 C95.2851068,61.56555 95.4868428,62.3840314 95.4868428,63.2142055 C95.4868428,63.5969987 95.4417068,63.9772863 95.3574896,64.3542332 L94.711655,69.3913236 C94.3447408,72.1715612 93.9557773,74.947088 93.8239661,75.2798469 C92.5345624,78.5359553 88.11316,81.5125552 81.3738583,83.6614866 C74.6218965,85.8143155 65.9659657,87 57.0001376,87 C48.0241264,87 39.3604895,85.8118099 32.605225,83.6545267 C25.8615198,81.5014194 21.4445209,78.51953 20.1675021,75.2584104 C19.9327398,74.6587475 18.8384668,66.074993 18.5775586,64.0095801 L18.5582244,63.8711482 L18.5426057,63.7322986 L18.5343491,63.6671542 C18.5227899,63.5165425 18.5137077,63.3656524 18.5137077,63.2142055 C18.5137077,62.3840314 18.7151684,61.56555 19.1076315,60.7668346 C17.7221762,59.5599921 17,58.2765909 17,56.9544928 C17,53.7613016 21.201502,50.7902696 28.8300382,48.5887216 C36.3581191,46.4161266 46.3623507,45.2198631 57.0001376,45.2198631 Z M50.4237659,76.7859641 L53.6903713,83.9910072 C54.3639336,85.4891876 54.6504098,86.1442803 54.7722352,86.4401476 C55.5103741,86.4562945 56.2526412,86.4654815 57.0001376,86.4654815 C57.725066,86.4654815 58.4453156,86.4568513 59.1617121,86.4412611 L59.586213,85.462718 C60.1266783,84.2424932 61.2353366,81.784308 63.5088053,76.7898616 C61.3791562,76.9179233 59.2038207,76.9833462 57.0001376,76.9833462 C54.7730608,76.9833462 52.5748821,76.9168097 50.4237659,76.7859641 Z M67.3406874,85.9209408 L63.9276895,77.1473208 L61.1073458,83.3669011 C60.4841489,84.7473917 59.9767229,85.8781731 59.7366458,86.4273414 C62.0215187,86.3649809 64.2560307,86.2250352 66.4184256,86.0151509 L67.3406874,85.9209408 Z M50.0068082,77.1473208 L46.5960121,85.9142593 C49.0418884,86.179013 51.5862934,86.3527315 54.196751,86.4253926 L53.3767534,84.5868706 C52.4758374,82.5832463 51.1114051,79.5754206 50.0068082,77.1473208 Z M75.3162755,75.3433209 C72.131985,75.9570229 68.7179817,76.4055742 65.1591026,76.677161 L64.3352897,76.7366881 L67.885347,85.8608075 C68.9515476,85.7394272 69.9979324,85.6007865 71.0225749,85.4462772 L71.7380456,83.7182171 C72.3456776,82.2781524 73.4192567,79.7611014 75.3162755,75.3433209 Z M38.6121675,75.3294012 L42.0992256,83.4879194 C42.5890335,84.6467071 42.8091338,85.1822696 42.9080698,85.4368118 C43.6779965,85.5535289 44.4603082,85.6610068 45.2540758,85.759128 L46.0516278,85.854126 L49.6003089,76.7325122 C45.7406296,76.4669233 42.0427794,75.9939302 38.6121675,75.3294012 Z M77.8067374,84.1041347 L75.7024085,75.7865258 L72.1963939,83.9934156 C71.9500479,84.5754232 71.7527324,85.044646 71.6250305,85.3532933 C73.5564603,85.0466875 75.4067785,84.6817907 77.1556891,84.2634909 L77.8067374,84.1041347 Z M38.2320892,75.7865258 L36.1313382,84.0904933 C38.0669575,84.5765711 40.1344069,84.9966692 42.3050637,85.3429927 L41.8735641,84.3140524 C41.0362501,82.3312326 39.4775985,78.6876373 38.2320892,75.7865258 Z M84.5977804,72.8391575 L84.1144948,73.014268 L84.1144948,73.014268 C81.8740381,73.8055095 79.4044684,74.4864473 76.760985,75.0502935 L76.0965229,75.1888117 L78.3186458,83.973289 C79.1079755,83.7683903 79.8739116,83.5529125 80.6161788,83.3265773 L81.3950623,81.2309554 C81.9773511,79.689818 82.9553062,77.1237232 84.5977804,72.8391575 Z M29.3259838,72.8115964 L33.3111632,83.3059761 L33.3111632,83.3059761 C33.8701342,83.4773979 34.4427285,83.6428689 35.028714,83.8020369 L35.6191546,83.9590909 L37.8410022,75.1754487 C34.9696364,74.588592 32.2953278,73.8650432 29.8857804,73.014268 C29.6964294,72.9471747 29.5109314,72.8792464 29.3259838,72.8115964 Z M85.6807694,81.4493595 L84.8972193,73.5359803 L81.4324376,82.6318955 C81.3611633,82.8217477 81.2986657,82.9889359 81.2461564,83.1303088 C82.6746071,82.6749783 84.0067242,82.1800537 85.2280105,81.6498368 L85.6807694,81.4493595 Z M29.0378289,73.5382074 L28.2655628,81.4268095 C29.6017538,82.0331539 31.0799582,82.5957903 32.6800848,83.1083156 L30.1524308,76.4516636 C29.7748947,75.4635565 29.3944873,74.4693063 29.0378289,73.5382074 Z M90.8276506,69.8277582 C89.4323241,70.7439378 87.7375537,71.6045818 85.7601219,72.3947516 L85.3320662,72.5629896 L86.1888247,81.2149509 C86.6371574,81.0030923 87.0689769,80.7862225 87.4820815,80.5646201 L88.3162528,77.8352393 C88.8127684,76.2394379 89.5950587,73.742045 90.8276506,69.8277582 Z M23.0900587,69.7745848 L26.377929,80.3073919 C26.4059223,80.4018823 26.4263006,80.4721929 26.4411323,80.5248096 C26.7213058,80.6760709 27.0099194,80.8252288 27.3065653,80.9722832 L27.7575075,81.1912873 L28.6046333,72.5390476 C26.4309491,71.694397 24.5850514,70.7662279 23.0900587,69.7745848 Z M90.6044475,78.5220356 L90.9426924,71.2247446 L88.4924024,79.0514789 C88.3477401,79.5176495 88.2266694,79.9097898 88.1382049,80.1993658 C88.9495178,79.7314185 89.6837091,79.2440749 90.3319286,78.7393865 L90.6044475,78.5220356 Z M22.9997867,71.2506353 L23.3600491,78.4939177 C24.0607582,79.0707522 24.8721055,79.625872 25.7830823,80.1556577 L24.4811778,75.9711534 C23.9868694,74.3920302 23.4480353,72.6759716 22.9997867,71.2506353 Z M94.3980742,67.7122343 L91.671968,77.4216696 C91.6556821,77.4804895 91.6400044,77.5371773 91.6249617,77.5916393 C92.4104384,76.7881912 92.9895004,75.9491086 93.3332496,75.0810728 L93.3511534,75.0229863 C93.4993377,74.4623866 93.955644,71.130185 94.3980742,67.7122343 Z M22.2836654,77.498377 L19.6308239,68.0465867 L19.6308239,68.0465867 L20.1427994,71.8342785 C20.3882089,73.5862261 20.5858957,74.8728091 20.658769,75.0615851 C20.9882068,75.902895 21.538646,76.7172005 22.2836654,77.498377 Z M19.8419173,66.8458689 L22.770804,77.2823424 L22.3722861,69.2715249 C21.3170942,68.4959163 20.4702436,67.6843948 19.8419173,66.8458689 Z M94.0529488,66.9850664 C93.4799917,67.7187639 92.7378087,68.430834 91.8352911,69.116466 L91.5597347,69.3213576 L91.1964449,77.1631894 L94.0529488,66.9850664 L94.0529488,66.9850664 Z M94.4737595,61.1126012 C92.4784176,62.6849765 89.336511,64.117319 85.1699618,65.3199856 C77.6418809,67.4925806 67.6373741,68.6888441 57.0001376,68.6888441 C46.3623507,68.6888441 36.3581191,67.4925806 28.8300382,65.3199856 C24.663489,64.117319 21.5218576,62.6852549 19.5262405,61.1128796 C19.207261,61.8024642 19.0421292,62.5045765 19.0421292,63.2142055 C19.0421292,63.3620332 19.0517619,63.5090258 19.0657981,63.65574 L19.1029528,63.9522307 L19.1029528,63.9522307 C19.6151364,67.1626824 23.4585777,70.1777008 30.0599944,72.5095377 C37.2517571,75.0498925 46.8194904,76.4488277 57.0001376,76.4488277 C67.1805096,76.4488277 76.7482429,75.0498925 83.9402808,72.5095377 C90.3223475,70.2548162 94.1267077,67.3620133 94.8353981,64.2712715 L94.9344771,63.47534 L94.9490637,63.4770104 C94.9537425,63.3893159 94.958146,63.3021783 94.958146,63.2142055 C94.958146,62.5045765 94.792739,61.8021858 94.4737595,61.1126012 Z M57.0001376,49.98014 C46.8194904,49.98014 37.2520323,51.3790752 30.0599944,53.9197084 C24.7466053,55.7966478 21.2191161,58.1159569 19.7777912,60.6234611 C21.7114839,62.1741216 24.8418313,63.613424 28.9750789,64.80579 C36.4571982,66.9653003 46.4102389,68.1540472 57.0001376,68.1540472 C67.5900364,68.1540472 77.5428018,66.9653003 85.0249211,64.80579 C89.1584439,63.6131456 92.2887913,62.1741216 94.2224841,60.6234611 C92.7808839,58.1159569 89.2536699,55.7966478 83.9402808,53.9197084 C76.7482429,51.3790752 67.1805096,49.98014 57.0001376,49.98014 Z M56.9998899,50.3652996 L57.8224525,50.3711271 C66.0510919,50.4874721 74.2787252,52.3397581 74.2787252,55.3739049 C74.2787252,58.2273404 66.6932392,60.5544213 57.3066067,60.6041362 L56.9998899,60.6049479 C47.4723387,60.6049479 39.7210546,58.258356 39.7210546,55.3739049 C39.7210546,52.2386199 48.5068891,50.3652996 56.9998899,50.3652996 Z M57.0001376,45.75466 C46.4102389,45.75466 36.4571982,46.9436853 28.9750789,49.1029172 C21.7007503,51.2022943 17.5284216,54.0636386 17.5284216,56.9544928 C17.5284216,58.0822711 18.1663806,59.2055952 19.3732184,60.2807568 C20.9194019,57.683331 24.5189988,55.3108484 29.8857804,53.4149782 C37.1323118,50.8554141 46.7616943,49.4456216 57.0001376,49.4456216 C67.2383057,49.4456216 76.8679634,50.8554141 84.1142196,53.4149782 C89.4812765,55.3108484 93.0808733,57.6830526 94.6270568,60.2804784 C95.8336194,59.2053168 96.4715784,58.0822711 96.4715784,56.9544928 C96.4715784,54.0636386 92.2992497,51.2022943 85.0249211,49.1029172 C77.5428018,46.9436853 67.5900364,45.75466 57.0001376,45.75466 Z M57.3290118,50.9006529 L56.9998899,50.8998181 C46.9802461,50.8998181 40.2500267,53.2132809 40.2500267,55.3739049 C40.2500267,57.570809 46.9785121,60.0160598 56.6755607,60.0695363 L56.9998899,60.0704294 C66.8711904,60.0704294 73.7503036,57.595219 73.7503036,55.3739049 C73.7503036,53.2370241 67.1666499,50.950645 57.3290118,50.9006529 L57.3290118,50.9006529 Z M27.2989917,31.0258637 L27.8271184,31.0296558 C28.6479043,31.0410598 29.4526307,31.0763174 30.0651182,31.1097092 L31.1550931,31.178981 L31.142433,32.6608779 L27.137244,32.6612419 L26.9537663,32.6658627 C26.5654481,32.685038 26.4477574,32.7738656 26.4337912,33.1611964 L26.4323252,33.4370432 C26.4323252,33.7084142 26.5502821,33.7895408 26.8942131,33.8652298 L27.0198219,33.8900959 C27.3266651,33.9424848 29.5658045,34.3249411 29.9870612,34.4014037 C31.3068472,34.6282459 31.669522,35.1067048 31.693744,36.1210969 L31.6950739,36.2360271 L31.6950739,37.2594073 C31.6950739,38.6876057 31.0431832,39.3389587 29.0483606,39.375013 L28.8688441,39.3766016 C28.1022672,39.3766016 27.2223373,39.3485639 26.4529722,39.3156172 L24.485422,39.2117917 L24.4980821,37.7298949 L28.630504,37.7298949 C29.4438433,37.7298949 29.7217215,37.601871 29.7463418,37.0512254 L29.7481706,36.9654221 L29.7481706,36.4832419 C29.7481706,36.2676017 29.6954432,36.0814366 29.4059816,36.0066608 L29.0476462,35.9366201 C28.6652568,35.8662963 28.0534464,35.7612339 27.5389956,35.6748214 L26.6585557,35.530574 C25.2259002,35.2918688 24.4973965,35.1738708 24.4504214,33.9340507 L24.4479921,33.8017408 L24.4479921,33.0843167 C24.4479921,31.6141125 25.1764983,31.0144495 27.2989917,31.0258637 Z M71.0734079,31.0846051 L71.0734079,36.295882 C71.0734079,36.9134634 71.3479992,37.7230667 72.0393672,37.795391 L72.1409847,37.8006072 L73.6984522,37.8006072 C74.4177511,37.8006072 74.7365731,37.0190758 74.7640707,36.3853138 L74.766029,36.295882 L74.766029,31.0846051 L76.7002721,31.0846051 L76.7002721,36.6135307 C76.7002721,37.8325531 75.886926,39.2496159 74.3515624,39.3369919 L74.200728,39.3412454 L71.6260488,39.3412454 C70.0441985,39.3412454 69.1814196,37.962277 69.1290407,36.7320676 L69.1265047,36.6135307 L69.1265047,31.0846051 L71.0734079,31.0846051 Z M45.1571045,31.0853673 L47.7401824,31.0848556 C48.1296181,31.0848556 48.1673232,31.1082408 48.2424581,31.3671482 L50.9679576,39.317554 L48.8077591,39.317554 L48.1546631,37.2947356 L44.8137727,37.2947356 L44.1606766,39.317554 L42.0128631,39.317554 L44.7259776,31.3671482 C44.8070192,31.1281568 44.8453806,31.089847 45.1571045,31.0853673 Z M79.7306048,31.0845494 L82.2796885,31.0845494 C82.3550986,31.0845494 82.3913664,31.131691 82.4071661,31.1631187 L84.5783223,36.5772837 L84.6914376,36.5772837 L86.8721403,31.1695898 C86.8837845,31.1448507 86.9106293,31.1052683 86.9668992,31.0904249 L87.0148412,31.0845494 L89.5520905,31.0845494 L89.5520905,39.3175262 L87.6054624,39.3175262 L87.6054624,34.3779628 L87.4923472,34.3779628 L85.6602265,39.2043622 C85.644397,39.2372827 85.6092202,39.2899553 85.5406256,39.3097076 L85.4826938,39.3175262 L83.7997262,39.3175262 C83.6866109,39.3175262 83.6442443,39.2381314 83.6301307,39.198434 L83.6238608,39.1763799 L81.7776879,34.3779628 L81.6645727,34.3779628 L81.6645727,39.3175262 L79.7306048,39.3175262 L79.7306048,31.0845494 Z M41.1303165,31.0846051 L41.1303165,32.6135507 L38.3423422,32.6135507 L38.3423422,39.3175819 L36.408099,39.3175819 L36.408099,32.6135507 L33.6071894,32.6135507 L33.6071894,31.0846051 L41.1303165,31.0846051 Z M66.0459995,31.0845216 L66.0459995,39.3174983 L64.1120316,39.3174983 L64.1120316,31.0845216 L66.0459995,31.0845216 Z M53.4705567,31.0846886 L58.4192798,31.0846886 C60.0026764,31.0846886 60.9952501,32.4883437 61.0539521,33.7207957 L61.056709,33.8357885 L61.056709,36.3783704 C61.056709,37.5988543 60.112117,39.2161941 58.5659819,39.3130939 L58.4192798,39.3176654 L53.4705567,39.3176654 L53.4705567,31.0846886 Z M57.904344,32.6136342 L55.4047998,32.6136342 L55.4047998,37.7887198 L57.904344,37.7887198 C58.6386298,37.7887198 59.084261,36.9362867 59.1201221,36.0890098 L59.1224658,35.9785952 L59.1224658,34.2478131 C59.1224658,33.3655792 58.6705553,32.6136342 57.904344,32.6136342 Z M46.6979259,32.5433673 L46.28317,32.5433673 L45.2535736,35.5659023 L47.7151374,35.5659023 L46.6979259,32.5433673 Z M36.1133113,20 L39.0144009,20 C40.6808998,20 41.5906451,20.8775962 41.6476042,22.0951089 L41.6504539,22.2179734 L41.6504539,26.1324861 C41.6504539,27.3607471 40.7944667,28.2891758 39.1785247,28.3477963 L39.0144009,28.3507379 L36.1133113,28.3507379 C34.4465461,28.3507379 33.5494219,27.4619305 33.4932774,26.2542917 L33.4904688,26.1324861 L33.4904688,22.2179734 C33.4904688,20.9783969 34.3338263,20.0608144 35.9492029,20.0029054 L36.1133113,20 Z M71.8953512,20 L74.7840558,20 C76.4436299,20 77.3495433,20.8775962 77.4062624,22.0951089 L77.4091001,22.2179734 L77.4091001,26.1324861 C77.4091001,27.3607471 76.5567213,28.2891758 74.9474975,28.3477963 L74.7840558,28.3507379 L71.8953512,28.3507379 C70.2360435,28.3507379 69.3425107,27.4619305 69.28659,26.2542917 L69.2837927,26.1324861 L69.2837927,22.2179734 C69.2837927,20.9783969 70.1237995,20.0608144 71.7319757,20.0029054 L71.8953512,20 Z M45.8467268,28.3267402 L45.8467268,20.0236079 L47.3601592,20.0236079 C47.6817427,20.0236079 47.7559543,20.0517769 47.8236894,20.1295298 L51.1691833,24.6419146 C51.3227005,24.8523793 51.4441928,25.021097 51.5199194,25.1299841 L51.5803762,25.2190163 L51.6296405,25.2190163 L51.6296405,20.0236079 L53.5366369,20.0236079 L53.5366369,28.3267402 L51.9615553,28.3267402 C51.6628319,28.3267402 51.5531514,28.2692377 51.408605,28.0846209 L47.8153724,23.2145719 L47.7413383,23.2145719 L47.7413383,28.3267402 L45.8467268,28.3267402 Z M58.0969977,20.0236914 L62.9447153,20.0236914 C64.4958194,20.0236914 65.4685227,21.4351998 65.5260501,22.6780278 L65.5287518,22.7940005 L65.5287518,25.368598 C65.5287518,26.5993403 64.6030517,28.2248442 63.0884265,28.3222295 L62.9447153,28.3268237 L58.0969977,28.3268237 L58.0969977,20.0236914 Z M81.862318,28.3267402 L81.862318,20.0236079 L83.3757504,20.0236079 C83.7938089,20.0236079 83.7938089,20.0712135 83.9047224,20.2134733 L84.7814903,21.3998589 C85.7671998,22.7238301 87.2690481,24.7371521 87.5694965,25.1793581 L87.5959673,25.2190163 L87.6452316,25.2190163 L87.6452316,20.0236079 L89.5522281,20.0236079 L89.5522281,28.3267402 L87.9771465,28.3267402 C87.6784231,28.3267402 87.5687426,28.2692377 87.4241962,28.0846209 L83.8309636,23.2145719 L83.7569295,23.2145719 L83.7569295,28.3267402 L81.862318,28.3267402 Z M26.3429614,20.0236914 L26.3429614,26.7374664 L30.5876729,26.7374664 L30.5876729,28.3268237 L24.4480747,28.3268237 L24.4480747,20.0236914 L26.3429614,20.0236914 Z M38.4576317,21.5417518 L36.6827406,21.5417518 C35.9150982,21.5417518 35.5895823,21.7560693 35.5589498,22.3367493 L35.5565421,22.4315024 L35.5565421,25.8003608 C35.5565421,26.4183099 35.8420874,26.7489183 36.5592007,26.7820074 L36.6827406,26.7847657 L38.4576317,26.7847657 C39.2106324,26.7847657 39.5476659,26.486681 39.5810572,25.90069 L39.5838302,25.8003608 L39.5838302,22.4315024 C39.5838302,21.7792228 39.2524658,21.5417518 38.4576317,21.5417518 Z M62.4402378,21.5654432 L59.9918845,21.5654432 L59.9918845,26.7847936 L62.4402378,26.7847936 C63.1594897,26.7847936 63.5961533,25.9305707 63.6312932,25.076529 L63.6335899,24.9652035 L63.6335899,23.2090876 C63.6335899,22.319337 63.1907616,21.5654432 62.4402378,21.5654432 Z M74.2300388,21.5417518 L72.4625787,21.5417518 C71.6983353,21.5417518 71.3739828,21.7560693 71.3434582,22.3367493 L71.341059,22.4315024 L71.341059,25.8003608 C71.341059,26.4183099 71.6256162,26.7489183 72.3395834,26.7820074 L72.4625787,26.7847657 L74.2300388,26.7847657 C74.97965,26.7847657 75.315517,26.486681 75.348795,25.90069 L75.3515586,25.8003608 L75.3515586,22.4315024 C75.3515586,21.7792228 75.0212951,21.5417518 74.2300388,21.5417518 Z" id="logo"></path>
        </g>
    </g>
</svg>