<?xml version="1.0" encoding="UTF-8"?>
<svg width="82px" height="68px" viewBox="0 0 82 68" version="1.1" xmlns="http://www.w3.org/2000/svg" xmlns:xlink="http://www.w3.org/1999/xlink">
    <!-- Generator: Sketch 61 (89581) - https://sketch.com -->
    <title>logo</title>
    <desc>Created with Sketch.</desc>
    <g id="Page-1" stroke="none" stroke-width="1" fill="none" fill-rule="evenodd">
        <g id="LDNSTDM_WhatsOn_D_v1" transform="translate(-17.000000, -16.000000)" fill="#FFFFFF">
            <g id="Logo" transform="translate(17.000000, 16.000000)">
                <path d="M40.5693,24.8809 C51.3133,24.8809 61.4223,26.0769 69.0323,28.2479 C76.8393,30.4759 81.1383,33.5209 81.1383,36.8249 C81.1383,38.1629 80.4433,39.4599 79.0723,40.6859 C79.4313,41.4649 79.6133,42.2639 79.6133,43.0629 C79.6133,43.4539 79.5673,43.8539 79.4773,44.2529 C78.9953,48.0779 78.1443,54.6159 77.9203,55.1779 C76.5913,58.4939 72.0793,61.5119 65.2133,63.6759 C58.3853,65.8289 49.6333,67.0139 40.5693,67.0139 C31.4973,67.0139 22.7373,65.8269 15.9043,63.6689 C9.0343,61.4999 4.5263,58.4769 3.2113,55.1559 C2.9853,54.5869 2.0993,47.8519 1.5913,43.8869 C1.5783,43.7959 1.5663,43.7009 1.5553,43.6049 C1.5353,43.3759 1.5263,43.2199 1.5263,43.0629 C1.5263,42.2639 1.7083,41.4649 2.0673,40.6859 C0.6953,39.4599 0.0003,38.1619 0.0003,36.8249 C0.0003,33.5209 4.2993,30.4759 12.1063,28.2479 C19.7163,26.0769 29.8253,24.8809 40.5693,24.8809 Z M34.3413,56.8599 C37.3993,63.4999 38.2173,65.3229 38.4913,65.9599 C39.1803,65.9739 39.8733,65.9819 40.5693,65.9819 C41.2443,65.9819 41.9143,65.9739 42.5813,65.9609 C42.8523,65.3289 43.6703,63.5079 46.7283,56.8639 C44.7033,56.9769 42.6323,57.0339 40.5693,57.0339 C38.4773,57.0339 36.3843,56.9749 34.3413,56.8599 Z M47.5353,57.5829 C46.0503,60.8109 44.3933,64.4279 43.7183,65.9319 C46.0553,65.8609 48.3803,65.7059 50.6393,65.4739 L47.5353,57.5829 Z M33.5383,57.5829 L30.4343,65.4689 C32.6913,65.7019 35.0143,65.8569 37.3533,65.9299 C36.6783,64.4249 35.0213,60.8099 33.5383,57.5829 Z M58.6153,55.4809 C55.3723,56.0789 51.9123,56.5099 48.3213,56.7629 L51.7043,65.3589 C52.6613,65.2489 53.6013,65.1259 54.5253,64.9899 C54.7803,64.3569 55.5683,62.4969 58.6153,55.4809 Z M22.4523,55.4679 C25.4983,62.4819 26.2873,64.3429 26.5443,64.9809 C27.4683,65.1179 28.4123,65.2429 29.3723,65.3519 L32.7533,56.7589 C29.1553,56.5019 25.6943,56.0689 22.4523,55.4679 Z M59.3593,56.3599 C57.9533,59.6009 56.3903,63.2149 55.7163,64.8049 C57.6403,64.4929 59.4943,64.1209 61.2373,63.6969 L59.3593,56.3599 Z M21.7133,56.3591 L19.8393,63.6829 C21.5763,64.1069 23.4263,64.4799 25.3513,64.7949 C24.6858926,63.2243074 23.1766443,59.7332813 21.8638458,56.7060071 L21.7133,56.3591 Z M67.9573,53.0729 C65.5993,53.8949 62.9653,54.6059 60.1263,55.1869 L62.2383,63.4439 C62.9023,63.2699 63.5503,63.0889 64.1813,62.9009 C64.4063,62.2809 65.1133,60.4089 67.9573,53.0729 Z M13.1053,53.0449 C15.9453,60.3719 16.6543,62.2489 16.8833,62.8799 C17.5173,63.0709 18.1703,63.2539 18.8383,63.4299 L20.9503,55.1739 C18.1213,54.5919 15.5013,53.8819 13.1573,53.0639 L13.1053,53.0449 Z M68.5453,54.4139 C67.3733,57.4399 66.0553,60.8549 65.4253,62.5119 C66.7843,62.0689 68.0543,61.5869 69.2133,61.0789 L68.5453,54.4139 Z M12.5293,54.4169 L11.8723,61.0559 C13.0213,61.5639 14.2853,62.0449 15.6373,62.4899 C15.0063,60.8249 13.6953,57.4299 12.5293,54.4169 Z M74.2213,50.2259 C72.8533,51.0529 71.2343,51.8309 69.3953,52.5429 L70.2053,60.6219 C70.5063,60.4769 70.7993,60.3309 71.0843,60.1809 C71.2343,59.6629 71.7963,57.8459 74.2213,50.2259 Z M6.8353,50.1779 C9.2493,57.7589 9.8153,59.5869 9.9773,60.1409 C10.2693,60.2949 10.5703,60.4479 10.8803,60.5969 L11.6793,52.5199 C9.8323,51.7989 8.2063,51.0139 6.8353,50.1779 Z M74.4443,52.9359 C73.6893,55.3129 72.8503,57.9619 72.3863,59.4439 C73.0533,59.0389 73.6613,58.6189 74.1983,58.1919 L74.4443,52.9359 Z M6.6443,52.9869 L6.9053,58.1639 C7.4273,58.5829 8.0193,58.9959 8.6713,59.3959 C8.2083,57.9169 7.3873,55.3249 6.6443,52.9869 Z M77.5603,50.9319 C76.9853,52.9519 76.4073,54.9869 76.0063,56.4099 C76.4233,55.8769 76.7433,55.3369 76.9603,54.7949 C77.0173,54.6459 77.2043,53.5189 77.5603,50.9319 Z M3.6243,51.3229 C4.0333,54.2339 4.1433,54.7049 4.1713,54.7769 C4.3703,55.2789 4.6573,55.7799 5.0293,56.2749 C4.6563,54.9549 4.1433,53.1489 3.6243,51.3229 Z M78.2403,41.3599 C76.1723,42.8889 73.0763,44.2469 69.0323,45.4009 C61.4233,47.5729 51.3143,48.7679 40.5693,48.7679 C29.8243,48.7679 19.7153,47.5729 12.1063,45.4009 C8.0613,44.2469 4.9663,42.8879 2.8993,41.3599 C2.6733,41.9249 2.5583,42.4969 2.5583,43.0629 C2.5583,43.2019 2.5683,43.3399 2.5813,43.4789 L2.6183,43.7649 C3.1163,46.8539 6.9793,49.8129 13.4963,52.0879 C20.7183,54.6109 30.3333,55.9999 40.5693,55.9999 C50.8063,55.9999 60.4213,54.6109 67.6423,52.0879 C73.9273,49.8939 77.7713,47.0419 78.4643,44.0589 L78.5803,43.1179 C78.5813,43.0989 78.5813,43.0809 78.5813,43.0629 C78.5813,42.4979 78.4663,41.9259 78.2403,41.3599 Z M3.6693,47.7089 C4.6253,51.0629 5.2703,53.3329 5.7063,54.8719 L5.4213,49.2309 C4.7553,48.7389 4.1683,48.2289 3.6693,47.7089 Z M77.3763,47.8069 C76.8813,48.3099 76.3023,48.8019 75.6493,49.2799 L75.3913,54.7879 C75.8213,53.2659 76.4523,51.0469 77.3763,47.8069 Z M40.5693,30.1249 C30.3353,30.1249 20.7203,31.5139 13.4963,34.0369 C8.3673,35.8289 4.8773,38.0319 3.3793,40.4189 C5.3313,41.9059 8.4393,43.2819 12.3893,44.4089 C19.9083,46.5529 29.9163,47.7349 40.5693,47.7349 C51.2213,47.7349 61.2303,46.5529 68.7503,44.4089 C72.7013,43.2809 75.8093,41.9039 77.7593,40.4189 C76.2613,38.0319 72.7713,35.8279 67.6423,34.0369 C60.4203,31.5139 50.8043,30.1249 40.5693,30.1249 Z M40.5693,31.0083 C49.1333,31.0083 58.2363,32.8453 58.2363,36.2493 C58.2363,39.3123 50.4753,41.7123 40.5693,41.7123 C30.6633,41.7123 22.9023,39.3123 22.9023,36.2493 C22.9023,32.8453 32.0053,31.0083 40.5693,31.0083 Z M40.5693,32.0413 C29.8593,32.0413 23.9353,34.5293 23.9353,36.2493 C23.9353,38.1003 30.2633,40.6803 40.5693,40.6803 C50.8763,40.6803 57.2043,38.1003 57.2043,36.2493 C57.2043,34.5293 51.2803,32.0413 40.5693,32.0413 Z M40.5693,25.9139 C29.9173,25.9139 19.9103,27.0959 12.3893,29.2409 C5.1733,31.2999 1.0333,34.0639 1.0333,36.8249 C1.0333,37.7959 1.5563,38.7809 2.5903,39.7529 C4.2673,37.2029 7.9113,34.8929 13.1573,33.0619 C20.4863,30.5019 30.2213,29.0919 40.5693,29.0919 C50.9173,29.0919 60.6523,30.5019 67.9823,33.0619 C73.2283,34.8929 76.8723,37.2029 78.5493,39.7529 C79.5833,38.7799 80.1063,37.7959 80.1063,36.8249 C80.1063,34.0639 75.9663,31.2999 68.7503,29.2409 C61.2283,27.0959 51.2203,25.9139 40.5693,25.9139 Z M10.6314,10.9869 C12.5174,10.9869 14.5184,11.1399 14.5184,11.1399 L14.5184,11.1399 L14.5064,12.6169 L10.5684,12.6169 C9.9104,12.6169 9.7574,12.6519 9.7574,13.2029 L9.7574,13.2029 L9.7574,13.3899 C9.7574,13.6829 9.8974,13.7529 10.3144,13.8349 C10.3144,13.8349 12.8844,14.2689 13.3404,14.3509 C14.7204,14.5849 15.0624,15.0889 15.0624,16.1789 L15.0624,16.1789 L15.0624,17.1989 C15.0624,18.6639 14.3664,19.3089 12.2144,19.3089 C10.3404,19.3089 7.7964,19.1439 7.7964,19.1439 L7.7964,19.1439 L7.8074,17.6669 L11.9734,17.6669 C12.8344,17.6669 13.0994,17.5269 13.0994,16.9059 L13.0994,16.9059 L13.0994,16.4249 C13.0994,16.1909 13.0374,15.9919 12.6704,15.9329 C12.2144,15.8389 10.3024,15.5229 9.9854,15.4759 C8.4924,15.2299 7.7574,15.1129 7.7574,13.7529 L7.7574,13.7529 L7.7574,13.0379 C7.7574,11.5729 8.4924,10.9759 10.6314,10.9869 Z M54.7545,11.0453 L54.7545,16.2383 C54.7545,16.8833 55.0595,17.7383 55.8315,17.7383 L55.8315,17.7383 L57.4015,17.7383 C58.1615,17.7383 58.4775,16.8833 58.4775,16.2383 L58.4775,16.2383 L58.4775,11.0453 L60.4265,11.0453 L60.4265,16.5553 C60.4265,17.8093 59.5535,19.2733 57.9075,19.2733 L57.9075,19.2733 L55.3125,19.2733 C53.6665,19.2733 52.7925,17.8093 52.7925,16.5553 L52.7925,16.5553 L52.7925,11.0453 L54.7545,11.0453 Z M41.9997,11.0457 C43.6457,11.0457 44.6577,12.5327 44.6577,13.7867 L44.6577,13.7867 L44.6577,16.3207 C44.6577,17.5747 43.6457,19.2497 41.9997,19.2497 L41.9997,19.2497 L37.0117,19.2497 L37.0117,11.0457 Z M49.688,11.046 L49.688,19.25 L47.738,19.25 L47.738,11.046 L49.688,11.046 Z M24.5737,11.0458 L24.5737,12.5688 L21.7627,12.5688 L21.7627,19.2498 L19.8137,19.2498 L19.8137,12.5688 L16.9907,12.5688 L16.9907,11.0458 L24.5737,11.0458 Z M66.0507,11.0455 C66.1647,11.0455 66.1907,11.1515 66.1907,11.1515 L66.1907,11.1515 L68.3687,16.5185 L68.4827,16.5185 L70.6717,11.1515 C70.6717,11.1515 70.6977,11.0455 70.8247,11.0455 L70.8247,11.0455 L73.3817,11.0455 L73.3817,19.2495 L71.4187,19.2495 L71.4187,14.3275 L71.3057,14.3275 L69.4697,19.1095 C69.4697,19.1095 69.4317,19.2495 69.2797,19.2495 L69.2797,19.2495 L67.5827,19.2495 C67.4307,19.2495 67.4067,19.1095 67.4067,19.1095 L67.4067,19.1095 L65.5447,14.3275 L65.4307,14.3275 L65.4307,19.2495 L63.4817,19.2495 L63.4817,11.0455 Z M31.2351,11.0457 C31.6281,11.0457 31.6661,11.0687 31.7421,11.3267 C31.8941,11.7497 34.4891,19.2497 34.4891,19.2497 L34.4891,19.2497 L32.3111,19.2497 L31.6531,17.2337 L28.2861,17.2337 L27.6281,19.2497 L25.4631,19.2497 C25.4631,19.2497 28.0571,11.7497 28.1971,11.3267 C28.2861,11.0687 28.3241,11.0457 28.7171,11.0457 L28.7171,11.0457 Z M41.4817,12.5687 L38.9617,12.5687 L38.9617,17.7267 L41.4817,17.7267 C42.2537,17.7267 42.7087,16.8007 42.7087,15.9227 L42.7087,15.9227 L42.7087,14.1977 C42.7087,13.3187 42.2537,12.5687 41.4817,12.5687 L41.4817,12.5687 Z M30.1851,12.4997 L29.7671,12.4997 L28.7291,15.5107 L31.2111,15.5107 L30.1851,12.4997 Z M58.496,0.0001 C60.224,0.0001 61.142,0.9341 61.142,2.2101 L61.142,2.2101 L61.142,6.1111 C61.142,7.3761 60.224,8.3211 58.496,8.3211 L58.496,8.3211 L55.584,8.3211 C53.855,8.3211 52.951,7.3761 52.951,6.1111 L52.951,6.1111 L52.951,2.2101 C52.951,0.9341 53.855,0.0001 55.584,0.0001 L55.584,0.0001 Z M22.4406,0.0001 C24.1756,0.0001 25.0976,0.9341 25.0976,2.2101 L25.0976,2.2101 L25.0976,6.1111 C25.0976,7.3761 24.1756,8.3211 22.4406,8.3211 L22.4406,8.3211 L19.5166,8.3211 C17.7806,8.3211 16.8716,7.3761 16.8716,6.1111 L16.8716,6.1111 L16.8716,2.2101 C16.8716,0.9341 17.7806,0.0001 19.5166,0.0001 L19.5166,0.0001 Z M9.6683,0.0237 L9.6683,6.7137 L13.9463,6.7137 L13.9463,8.2977 L7.7583,8.2977 L7.7583,0.0237 L9.6683,0.0237 Z M67.156,0.0235 C67.577,0.0235 67.577,0.0715 67.689,0.2125 C67.751,0.3195 71.075,4.6925 71.41,5.2005 L71.41,5.2005 L71.459,5.2005 L71.459,0.0235 L73.382,0.0235 L73.382,8.2975 L71.794,8.2975 C71.459,8.2975 71.36,8.2265 71.186,7.9905 L71.186,7.9905 L67.614,3.2035 L67.54,3.2035 L67.54,8.2975 L65.63,8.2975 L65.63,0.0235 Z M46.562,0.0239 C48.174,0.0239 49.166,1.5189 49.166,2.7839 L49.166,2.7839 L49.166,5.3499 C49.166,6.6149 48.174,8.2979 46.562,8.2979 L46.562,8.2979 L41.675,8.2979 L41.675,0.0239 Z M30.8523,0.0235 C31.2743,0.0235 31.2743,0.0715 31.3863,0.2125 C31.4483,0.3195 34.7713,4.6925 35.1063,5.2005 L35.1063,5.2005 L35.1563,5.2005 L35.1563,0.0235 L37.0783,0.0235 L37.0783,8.2975 L35.4913,8.2975 C35.1563,8.2975 35.0563,8.2265 34.8833,7.9905 L34.8833,7.9905 L31.3113,3.2035 L31.2373,3.2035 L31.2373,8.2975 L29.3273,8.2975 L29.3273,0.0235 Z M57.938,1.5361 L56.155,1.5361 C55.345,1.5361 55.025,1.7731 55.025,2.4231 L55.025,2.4231 L55.025,5.7801 C55.025,6.4301 55.345,6.7611 56.155,6.7611 L56.155,6.7611 L57.938,6.7611 C58.734,6.7611 59.067,6.4301 59.067,5.7801 L59.067,5.7801 L59.067,2.4231 C59.067,1.7731 58.734,1.5361 57.938,1.5361 L57.938,1.5361 Z M46.054,1.5599 L43.585,1.5599 L43.585,6.7609 L46.054,6.7609 C46.81,6.7609 47.256,5.8339 47.256,4.9479 L47.256,4.9479 L47.256,3.1979 C47.256,2.3109 46.81,1.5599 46.054,1.5599 L46.054,1.5599 Z M21.8786,1.5361 L20.0896,1.5361 C19.2756,1.5361 18.9546,1.7731 18.9546,2.4231 L18.9546,2.4231 L18.9546,5.7801 C18.9546,6.4301 19.2756,6.7611 20.0896,6.7611 L20.0896,6.7611 L21.8786,6.7611 C22.6806,6.7611 23.0146,6.4301 23.0146,5.7801 L23.0146,5.7801 L23.0146,2.4231 C23.0146,1.7731 22.6806,1.5361 21.8786,1.5361 L21.8786,1.5361 Z" id="logo"></path>
            </g>
        </g>
    </g>
</svg>