<?xml version="1.0" encoding="UTF-8"?>
<svg width="32px" height="32px" viewBox="0 0 32 32" version="1.1" xmlns="http://www.w3.org/2000/svg" xmlns:xlink="http://www.w3.org/1999/xlink">
    <!-- Generator: Sketch 59.1 (86144) - https://sketch.com -->
    <title>news</title>
    <desc>Created with Sketch.</desc>
    <g id="Page-1" stroke="none" stroke-width="1" fill="none" fill-rule="evenodd">
        <g id="LDNSTDM_Home_D_v1" transform="translate(-733.000000, -7068.000000)" fill="#00B8C3" fill-rule="nonzero">
            <g id="Group-7" transform="translate(0.000000, 6510.000000)">
                <g id="noun_news_1537014" transform="translate(733.000000, 558.000000)">
                    <g id="Group">
                        <path d="M2,0 L23.3333333,0 C24.4151515,0 25.2539945,0.789669421 25.3280178,1.84716379 L25.3333333,2 L25.3333333,13.3333333 L31.3333333,13.3333333 C31.6969697,13.3333333 31.9504132,13.553719 31.9934886,13.8943151 L32,14 L32,28 C32,30.1333333 30.307438,31.8905418 28.1988591,31.9950803 L28,32 L4.13333333,32 C1.93535354,32 0.113498623,30.2447505 0.00510152025,28.0715845 L0,27.8666667 L0,2 C0,0.918181818 0.789669421,0.079338843 1.84716379,0.00531555222 L2,0 L23.3333333,0 L2,0 Z M23.3333333,1.33333333 L2,1.33333333 C1.63636364,1.33333333 1.38292011,1.55371901 1.33984473,1.89431505 L1.33333333,2 L1.33333333,27.8666667 C1.33333333,29.3432099 2.50791038,30.5724737 3.96411116,30.6615049 L4.13333333,30.6666667 L25,30.6666667 L24.8256313,30.4587337 C23.7439312,29.1020955 23.9459257,27.8321412 23.9922205,17.4454709 L24,14 L24,2 C24,1.63636364 23.7796143,1.38292011 23.4390183,1.33984473 L23.3333333,1.33333333 Z M30.6666667,14.6666667 L25.3333333,14.6666667 L25.3333333,28 C25.3333333,29.4666667 26.5333333,30.6666667 28,30.6666667 C29.4102564,30.6666667 30.5739645,29.5571992 30.6613943,28.1679942 L30.6666667,28 L30.6666667,14.6666667 Z M4.66666667,26.6666667 L11.3333333,26.6666667 C11.7333333,26.6666667 12,26.9333333 12,27.3333333 C12,27.6969697 11.7796143,27.9504132 11.4390183,27.9934886 L11.3333333,28 L4.66666667,28 C4.26666667,28 4,27.7333333 4,27.3333333 C4,26.969697 4.22038567,26.7162534 4.56098172,26.6731781 L4.66666667,26.6666667 L11.3333333,26.6666667 L4.66666667,26.6666667 Z M14,26.6666667 L20.6666667,26.6666667 C21.0666667,26.6666667 21.3333333,26.9333333 21.3333333,27.3333333 C21.3333333,27.6969697 21.1129477,27.9504132 20.7723516,27.9934886 L20.6666667,28 L14,28 C13.6,28 13.3333333,27.7333333 13.3333333,27.3333333 C13.3333333,26.969697 13.553719,26.7162534 13.8943151,26.6731781 L14,26.6666667 L20.6666667,26.6666667 L14,26.6666667 Z M4.66666667,22.6666667 L11.3333333,22.6666667 C11.7333333,22.6666667 12,22.9333333 12,23.3333333 C12,23.6969697 11.7796143,23.9504132 11.4390183,23.9934886 L11.3333333,24 L4.66666667,24 C4.26666667,24 4,23.7333333 4,23.3333333 C4,22.969697 4.22038567,22.7162534 4.56098172,22.6731781 L4.66666667,22.6666667 L11.3333333,22.6666667 L4.66666667,22.6666667 Z M14,22.6666667 L20.6666667,22.6666667 C21.0666667,22.6666667 21.3333333,22.9333333 21.3333333,23.3333333 C21.3333333,23.6969697 21.1129477,23.9504132 20.7723516,23.9934886 L20.6666667,24 L14,24 C13.6,24 13.3333333,23.7333333 13.3333333,23.3333333 C13.3333333,22.969697 13.553719,22.7162534 13.8943151,22.6731781 L14,22.6666667 L20.6666667,22.6666667 L14,22.6666667 Z M4.66666667,18.6666667 L11.3333333,18.6666667 C11.7333333,18.6666667 12,18.9333333 12,19.3333333 C12,19.6969697 11.7796143,19.9504132 11.4390183,19.9934886 L11.3333333,20 L4.66666667,20 C4.26666667,20 4,19.7333333 4,19.3333333 C4,18.969697 4.22038567,18.7162534 4.56098172,18.6731781 L4.66666667,18.6666667 L11.3333333,18.6666667 L4.66666667,18.6666667 Z M14,18.6666667 L20.6666667,18.6666667 C21.0666667,18.6666667 21.3333333,18.9333333 21.3333333,19.3333333 C21.3333333,19.6969697 21.1129477,19.9504132 20.7723516,19.9934886 L20.6666667,20 L14,20 C13.6,20 13.3333333,19.7333333 13.3333333,19.3333333 C13.3333333,18.969697 13.553719,18.7162534 13.8943151,18.6731781 L14,18.6666667 L20.6666667,18.6666667 L14,18.6666667 Z M4.66666667,14.6666667 L11.3333333,14.6666667 C11.7333333,14.6666667 12,14.9333333 12,15.3333333 C12,15.6969697 11.7796143,15.9504132 11.4390183,15.9934886 L11.3333333,16 L4.66666667,16 C4.26666667,16 4,15.7333333 4,15.3333333 C4,14.969697 4.22038567,14.7162534 4.56098172,14.6731781 L4.66666667,14.6666667 L11.3333333,14.6666667 L4.66666667,14.6666667 Z M14,14.6666667 L20.6666667,14.6666667 C21.0666667,14.6666667 21.3333333,14.9333333 21.3333333,15.3333333 C21.3333333,15.6969697 21.1129477,15.9504132 20.7723516,15.9934886 L20.6666667,16 L14,16 C13.6,16 13.3333333,15.7333333 13.3333333,15.3333333 C13.3333333,14.969697 13.553719,14.7162534 13.8943151,14.6731781 L14,14.6666667 L20.6666667,14.6666667 L14,14.6666667 Z M4.66666667,4 L10,4 C10.3636364,4 10.6170799,4.22038567 10.6601553,4.56098172 L10.6666667,4.66666667 L10.6666667,11.3333333 C10.6666667,11.6969697 10.446281,11.9504132 10.1056849,11.9934886 L10,12 L4.66666667,12 C4.3030303,12 4.04958678,11.7796143 4.00651139,11.4390183 L4,11.3333333 L4,4.66666667 C4,4.3030303 4.22038567,4.04958678 4.56098172,4.00651139 L4.66666667,4 L10,4 L4.66666667,4 Z M9.33333333,5.33333333 L5.33333333,5.33333333 L5.33333333,10.6666667 L9.33333333,10.6666667 L9.33333333,5.33333333 Z M14,7.33333333 L20.6666667,7.33333333 C21.0666667,7.33333333 21.3333333,7.6 21.3333333,8 C21.3333333,8.36363636 21.1129477,8.61707989 20.7723516,8.66015527 L20.6666667,8.66666667 L14,8.66666667 C13.6,8.66666667 13.3333333,8.4 13.3333333,8 C13.3333333,7.63636364 13.553719,7.38292011 13.8943151,7.33984473 L14,7.33333333 L20.6666667,7.33333333 L14,7.33333333 Z" id="news"></path>
                    </g>
                </g>
            </g>
        </g>
    </g>
</svg>