<?xml version="1.0" encoding="UTF-8"?>
<svg width="80px" height="80px" viewBox="0 0 80 80" version="1.1" xmlns="http://www.w3.org/2000/svg" xmlns:xlink="http://www.w3.org/1999/xlink">
    <!-- Generator: Sketch 61 (89581) - https://sketch.com -->
    <title>phone-call</title>
    <desc>Created with Sketch.</desc>
    <g id="Page-1" stroke="none" stroke-width="1" fill="none" fill-rule="evenodd">
        <g id="LDNSTDM_Functions/ExploreEvents_D_v1" transform="translate(-113.000000, -3177.000000)" fill="#134273" fill-rule="nonzero">
            <g id="Group-7" transform="translate(0.000000, 1797.000000)">
                <g id="Group-11" transform="translate(76.000000, 1340.000000)">
                    <g id="noun_Phone_373695" transform="translate(37.000000, 40.000000)">
                        <path d="M72.2666667,70.2222222 C75.6444444,66.7555556 75.6444444,62.1333333 72.2666667,58.7555556 L63.0222222,49.5111111 C61.4222222,47.8222222 59.4666667,46.9333333 57.3333333,46.9333333 C55.2888889,46.9333333 53.3333333,47.8222222 51.6444444,49.5111111 L46.3111111,54.8444444 C45.8666667,54.5777778 45.4222222,54.4 44.9777778,54.1333333 C44.3555556,53.8666667 43.8222222,53.5111111 43.2888889,53.2444444 C38.3111111,50.1333333 33.7777778,45.9555556 29.5111111,40.7111111 C27.3777778,38.0444444 25.9555556,35.8222222 24.9777778,33.5111111 C26.3111111,32.2666667 27.6444444,30.9333333 28.8888889,29.6888889 C29.3333333,29.2444444 29.8666667,28.7111111 30.3111111,28.2666667 C32,26.5777778 32.9777778,24.5333333 32.9777778,22.4888889 C32.9777778,20.4444444 32.0888889,18.4888889 30.3111111,16.7111111 L25.7777778,12.0888889 C25.2444444,11.5555556 24.7111111,11.0222222 24.2666667,10.4888889 C23.2888889,9.42222222 22.2222222,8.35555556 21.1555556,7.37777778 C19.5555556,5.77777778 17.6,4.88888889 15.5555556,4.88888889 C13.5111111,4.88888889 11.5555556,5.77777778 9.86666667,7.37777778 L4.08888889,13.1555556 C1.95555556,15.2888889 0.711111111,17.8666667 0.444444444,20.8888889 C0.0888888889,25.7777778 1.51111111,30.3111111 2.57777778,33.3333333 C5.24444444,40.6222222 9.33333333,47.4666667 15.3777778,54.7555556 C22.7555556,63.5555556 31.5555556,70.4 41.6,75.2888889 C45.4222222,77.1555556 50.5777778,79.2888889 56.3555556,79.6444444 C56.7111111,79.6444444 57.0666667,79.6444444 57.4222222,79.6444444 C61.2444444,79.6444444 64.5333333,78.2222222 67.0222222,75.4666667 C67.0222222,75.4666667 67.1111111,75.3777778 67.1111111,75.3777778 C68,74.3111111 68.9777778,73.3333333 70.0444444,72.3555556 C70.8444444,71.7333333 71.5555556,71.0222222 72.2666667,70.2222222 Z M67.0222222,69.2444444 C65.9555556,70.3111111 64.8,71.3777778 63.8222222,72.6222222 C62.1333333,74.4888889 60.0888889,75.2888889 57.5111111,75.2888889 C57.2444444,75.2888889 56.9777778,75.2888889 56.7111111,75.2888889 C51.7333333,74.8444444 47.1111111,72.9777778 43.5555556,71.2888889 C34.0444444,66.6666667 25.7777778,60.1777778 18.8444444,51.9111111 C13.1555556,45.0666667 9.33333333,38.6666667 6.75555556,31.8222222 C5.15555556,27.6444444 4.62222222,24.3555556 4.88888889,21.3333333 C5.06666667,19.3777778 5.86666667,17.7777778 7.2,16.3555556 L12.8888889,10.6666667 C13.6888889,9.86666667 14.5777778,9.42222222 15.4666667,9.42222222 C16.5333333,9.42222222 17.4222222,10.0444444 18.0444444,10.6666667 C19.1111111,11.6444444 20,12.6222222 21.0666667,13.6888889 C21.6,14.2222222 22.1333333,14.7555556 22.6666667,15.2888889 L27.2,19.8222222 C28.0888889,20.7111111 28.5333333,21.6 28.5333333,22.4888889 C28.5333333,23.3777778 28.0888889,24.2666667 27.2,25.1555556 C26.7555556,25.6 26.2222222,26.1333333 25.7777778,26.5777778 C24.3555556,28 23.0222222,29.3333333 21.6,30.6666667 C21.6,30.6666667 21.5111111,30.7555556 21.5111111,30.7555556 C20.0888889,32.1777778 20.3555556,33.6 20.6222222,34.4888889 C20.6222222,34.5777778 20.6222222,34.5777778 20.7111111,34.6666667 C21.8666667,37.5111111 23.5555556,40.2666667 26.1333333,43.4666667 C30.7555556,49.1555556 35.6444444,53.6 40.9777778,56.9777778 C41.6888889,57.4222222 42.4,57.7777778 43.0222222,58.1333333 C43.6444444,58.4 44.1777778,58.7555556 44.7111111,59.0222222 C44.8,59.0222222 44.8,59.1111111 44.8888889,59.1111111 C45.4222222,59.3777778 45.9555556,59.5555556 46.4888889,59.5555556 C47.8222222,59.5555556 48.7111111,58.6666667 48.9777778,58.4 L54.7555556,52.6222222 C55.2888889,52.0888889 56.2666667,51.3777778 57.3333333,51.3777778 C58.4,51.3777778 59.2,52.0888889 59.8222222,52.6222222 L69.0666667,61.8666667 C71.2,64 70.2222222,65.9555556 68.9777778,67.2 C68.4444444,67.9111111 67.7333333,68.5333333 67.0222222,69.2444444 Z M41.4222222,16.5333333 C41.6,15.2888889 42.7555556,14.4888889 44,14.7555556 C49.3333333,15.6444444 54.1333333,18.1333333 57.9555556,22.0444444 C61.7777778,25.9555556 64.2666667,30.7555556 65.2444444,36 C65.4222222,37.2444444 64.6222222,38.4 63.4666667,38.5777778 C63.3777778,38.5777778 63.2,38.5777778 63.1111111,38.5777778 C62.0444444,38.5777778 61.0666667,37.7777778 60.8888889,36.7111111 C60.1777778,32.3555556 58.0444444,28.2666667 54.8444444,25.1555556 C51.6444444,21.9555556 47.6444444,19.9111111 43.2888889,19.1111111 C41.9555556,18.9333333 41.1555556,17.7777778 41.4222222,16.5333333 Z M75.2,36.0888889 C73.8666667,28.2666667 70.1333333,21.1555556 64.5333333,15.4666667 C58.8444444,9.77777778 51.7333333,6.13333333 43.9111111,4.8 C42.6666667,4.62222222 41.8666667,3.46666667 42.1333333,2.22222222 C42.4,0.977777778 43.4666667,0.177777778 44.7111111,0.444444444 C53.3333333,1.86666667 61.3333333,5.95555556 67.6444444,12.2666667 C73.9555556,18.5777778 78.1333333,26.5777778 79.5555556,35.2888889 C79.7333333,36.5333333 78.9333333,37.6888889 77.7777778,37.8666667 C77.6888889,37.8666667 77.5111111,37.8666667 77.4222222,37.8666667 C76.3555556,37.9555556 75.3777778,37.1555556 75.2,36.0888889 Z" id="phone-call"></path>
                    </g>
                </g>
            </g>
        </g>
    </g>
</svg>