<?xml version="1.0" encoding="UTF-8"?>
<svg width="60px" height="60px" viewBox="0 0 60 60" version="1.1" xmlns="http://www.w3.org/2000/svg" xmlns:xlink="http://www.w3.org/1999/xlink">
    <!-- Generator: Sketch 61 (89581) - https://sketch.com -->
    <title>play-btn</title>
    <desc>Created with Sketch.</desc>
    <g id="Page-1" stroke="none" stroke-width="1" fill="none" fill-rule="evenodd">
        <g id="LDNSTDM_StadiumTours/OurTours_D_v1" transform="translate(-834.000000, -2065.000000)" fill="#00D9E3" fill-rule="nonzero">
            <g id="noun_play_654294" transform="translate(834.000000, 2065.000000)">
                <path d="M30,0 C13.4314575,0 0,13.4314575 0,30 C0,46.5685425 13.4314575,60 30,60 C46.5685425,60 60,46.5685425 60,30 C60,22.0435053 56.8392948,14.4128879 51.2132034,8.78679656 C45.5871121,3.16070521 37.9564947,0 30,0 Z M39.6048,30.8118375 L25.0827,39.1962375 C24.792646,39.3637003 24.4352861,39.3637061 24.1452265,39.1962528 C23.855167,39.0287995 23.67645,38.7193255 23.67645,38.3844 L23.67645,21.6156 C23.67645,21.2806343 23.8550549,20.9710866 24.1451291,20.8035784 C24.4352033,20.6360702 24.7926112,20.6360546 25.0827,20.8035375 L39.6048,29.1881625 C39.8948037,29.3556468 40.0734438,29.6651073 40.0734438,30 C40.0734438,30.3348927 39.8948037,30.6443532 39.6048,30.8118375 Z" id="play-btn"></path>
            </g>
        </g>
    </g>
</svg>