<?xml version="1.0" encoding="UTF-8"?>
<svg width="24px" height="24px" viewBox="0 0 24 24" version="1.1" xmlns="http://www.w3.org/2000/svg" xmlns:xlink="http://www.w3.org/1999/xlink">
    <!-- Generator: Sketch 59.1 (86144) - https://sketch.com -->
    <title>search</title>
    <desc>Created with Sketch.</desc>
    <g id="Page-1" stroke="none" stroke-width="1" fill="none" fill-rule="evenodd">
        <g id="LDNSTDM_Home_D_v1_Alternate" transform="translate(-1317.000000, -38.000000)" fill="#FFFFFF" fill-rule="nonzero">
            <g id="Shape-Copy-2" transform="translate(1317.000000, 38.000000)">
                <path d="M23.6968421,22.2352941 L17.6084211,16.1596639 C18.9978947,14.4453782 19.8315789,12.2773109 19.8315789,9.90756303 C19.8315789,4.43697479 15.3852632,0 9.90315789,0 C4.42105263,0 0,4.46218487 0,9.93277311 C0,15.4033613 4.44631579,19.8403361 9.92842105,19.8403361 C12.3031579,19.8403361 14.4757895,19.0084034 16.1684211,17.6218487 L22.2568421,23.697479 C22.6610526,24.1008403 23.2926316,24.1008403 23.6968421,23.697479 C24.1010526,23.2689076 24.1010526,22.6386555 23.6968421,22.2352941 Z M9.92842105,17.7983193 C5.58315789,17.7983193 2.04631579,14.2689076 2.04631579,9.93277311 C2.04631579,5.59663866 5.58315789,2.06722689 9.92842105,2.06722689 C14.2736842,2.06722689 17.8105263,5.59663866 17.8105263,9.93277311 C17.8105263,14.2689076 14.2736842,17.7983193 9.92842105,17.7983193 Z" id="search"></path>
            </g>
        </g>
    </g>
</svg>