<?xml version="1.0" encoding="UTF-8"?>
<svg width="64px" height="64px" viewBox="0 0 64 64" version="1.1" xmlns="http://www.w3.org/2000/svg" xmlns:xlink="http://www.w3.org/1999/xlink">
    <!-- Generator: Sketch 61 (89581) - https://sketch.com -->
    <title>seats2</title>
    <desc>Created with Sketch.</desc>
    <g id="Page-1" stroke="none" stroke-width="1" fill="none" fill-rule="evenodd">
        <g id="LDNSTDM_WhatsOn/Event_D_v3" transform="translate(-1218.000000, -1118.000000)" fill="#FFFFFF" fill-rule="nonzero">
            <g id="noun_seats_2092999" transform="translate(1218.000000, 1118.000000)">
                <path d="M8.76388875,33.6948303 L10.8966048,33.6948303 C15.0133441,33.6948303 18.3773162,36.9814194 18.5076539,41.0711855 L18.511574,41.3175155 L18.511574,49.5378087 L18.8703703,49.5378087 C19.2707047,49.5378087 19.6010159,49.8350829 19.6532876,50.2207235 L19.6604937,50.3279321 L19.6604937,52.0165895 L21.6983024,52.0165895 L21.6983024,50.3279321 C21.6983024,49.9279514 21.9952524,49.5973455 22.3811362,49.5450222 L22.4884259,49.5378087 L22.8472222,49.5378087 L22.8472222,41.3175155 C22.8472222,37.1966156 26.1304739,33.8292245 30.2161101,33.6987543 L30.4621913,33.6948303 L32.5949074,33.6948303 C36.7116467,33.6948303 40.0756188,36.9814194 40.2059565,41.0711855 L40.2098765,41.3175155 L40.2098765,49.5378087 L40.5686728,49.5378087 C40.9690072,49.5378087 41.2993184,49.8350829 41.3515901,50.2207235 L41.3587962,50.3279321 L41.3587962,52.0165895 L43.3966049,52.0165895 L43.3966049,50.3279321 C43.3966049,49.9279514 43.6935549,49.5973455 44.0794387,49.5450222 L44.1867284,49.5378087 L44.5455247,49.5378087 L44.5455247,41.3175155 C44.5455247,37.1966156 47.8287764,33.8292245 51.9144126,33.6987543 L52.1604938,33.6948303 L54.2932099,33.6948303 C58.4099492,33.6948303 61.7739213,36.9814194 61.904259,41.0711855 L61.908179,41.3175155 L61.908179,49.5378087 L62.2669754,49.5378087 C62.6673097,49.5378087 62.9976209,49.8350829 63.0498927,50.2207235 L63.0570988,50.3279321 L63.0570988,54.3402778 C63.0570988,55.7614405 61.9456339,56.9275656 60.5465347,57.0151652 L60.3773148,57.0204475 L54.0169753,57.0204475 L54.0169753,61.6921297 L62.5516975,61.6921297 C62.988426,61.6921297 63.341821,62.0459105 63.341821,62.4822531 C63.341821,62.8822338 63.044871,63.2128398 62.6589872,63.2651631 L62.5516975,63.2723766 L0.840277807,63.2723766 C0.403549393,63.2723766 0.0501543506,62.9185957 0.0501543506,62.4822531 C0.0501543506,62.0822724 0.347104351,61.7516665 0.732988101,61.6993431 L0.840277807,61.6921297 L9.04012342,61.6921297 L9.04012342,57.0204475 L2.68055554,57.0204475 C1.25902186,57.0204475 0.0928825166,55.9089826 0.0052823506,54.5095405 L2.19557705e-12,54.3402778 L2.19557705e-12,50.3279321 C2.19557705e-12,49.9279514 0.296950001,49.5973455 0.682833751,49.5450222 L0.790123457,49.5378087 L1.14891962,49.5378087 L1.14891962,41.3175155 C1.14891962,37.1966156 4.43217133,33.8292245 8.51780756,33.6987543 L8.76388875,33.6948303 L10.8966048,33.6948303 L8.76388875,33.6948303 Z M43.3966049,53.5968364 L41.3587963,53.5968364 L41.3587963,54.3402778 C41.3587963,55.7614405 40.2473314,56.9275656 38.8482322,57.0151652 L38.6790123,57.0204475 L32.3186728,57.0204475 L32.3186728,61.6921297 L52.4367283,61.6921297 L52.4367283,57.0204475 L46.0771605,57.0204475 C44.6556268,57.0204475 43.4894874,55.9089826 43.4018873,54.5095405 L43.3966049,54.3402778 L43.3966049,53.5968364 Z M21.6983025,53.5968364 L19.6604938,53.5968364 L19.6604938,54.3402778 C19.6604938,55.7614405 18.5490289,56.9275656 17.1499297,57.0151652 L16.9807098,57.0204475 L10.6203703,57.0204475 L10.6203703,61.6921297 L30.7384259,61.6921297 L30.7384259,57.0204475 L24.378858,57.0204475 C22.9573244,57.0204475 21.791185,55.9089826 21.7035848,54.5095405 L21.6983025,54.3402778 L21.6983025,53.5968364 Z M61.4768518,51.1180556 L44.9768518,51.1180556 L44.9768518,54.3402778 C44.9768518,54.9063272 45.4070302,55.373906 45.9574792,55.4337341 L46.0771605,55.4402006 L60.3773148,55.4402006 C60.9433642,55.4402006 61.410607,55.0103584 61.4703902,54.4599542 L61.4768518,54.3402778 L61.4768518,51.1180556 Z M39.7785494,51.1180556 L23.2785494,51.1180556 L23.2785494,54.3402778 C23.2785494,54.9063272 23.7087277,55.373906 24.2591767,55.4337341 L24.378858,55.4402006 L38.6790123,55.4402006 C39.2450618,55.4402006 39.7123046,55.0103584 39.7720878,54.4599542 L39.7785494,54.3402778 L39.7785494,51.1180556 Z M18.0802469,51.1180556 L1.58024691,51.1180556 L1.58024691,54.3402778 C1.58024691,54.9063272 2.01042524,55.373906 2.56087424,55.4337341 L2.68055554,55.4402006 L16.9807098,55.4402006 C17.5467593,55.4402006 18.0140021,55.0103584 18.0737853,54.4599542 L18.0802469,54.3402778 L18.0802469,51.1180556 Z M54.2932099,35.2750772 L52.1604938,35.2750772 C48.9081965,35.2750772 46.2491284,37.8639142 46.1299415,41.091335 L46.1257716,41.3175155 L46.1257716,49.5378087 L60.3279321,49.5378087 L60.3279321,41.3175155 C60.3279321,38.0614479 57.7427798,35.3986093 54.5191274,35.2792531 L54.2932099,35.2750772 Z M32.5949074,35.2750772 L30.4621913,35.2750772 C27.209894,35.2750772 24.5508259,37.8639142 24.431639,41.091335 L24.4274691,41.3175155 L24.4274691,49.5378087 L38.6296296,49.5378087 L38.6296296,41.3175155 C38.6296296,38.0614479 36.0444773,35.3986093 32.8208249,35.2792531 L32.5949074,35.2750772 Z M10.896605,35.2750772 L8.76388891,35.2750772 C5.5115916,35.2750772 2.85252345,37.8639142 2.73333662,41.091335 L2.7291667,41.3175155 L2.7291667,49.5378087 L16.9313272,49.5378087 L16.9313272,41.3175155 C16.9313272,38.0614479 14.3461749,35.3986093 11.1225225,35.2792531 L10.896605,35.2750772 Z M8.76388883,9.41469125e-14 L10.8966049,9.41469125e-14 C15.0133443,9.41469125e-14 18.3773163,3.28658907 18.5076539,7.37635524 L18.511574,7.62268516 L18.511574,15.8429784 L18.8703703,15.8429784 C19.2707047,15.8429784 19.6010159,16.1402526 19.6532876,16.5258932 L19.6604937,16.6331018 L19.6604937,18.3213735 L21.6983024,18.3213735 L21.6983024,16.6331018 C21.6983024,16.2331211 21.9952524,15.9025152 22.3811362,15.8501918 L22.4884259,15.8429784 L22.8472222,15.8429784 L22.8472222,7.62268516 C22.8472222,3.50178527 26.1304739,0.134394238 30.2161101,0.00392403959 L30.4621913,9.41469125e-14 L32.5949074,9.41469125e-14 C36.7116467,9.41469125e-14 40.0756188,3.28658907 40.2059565,7.37635524 L40.2098765,7.62268516 L40.2098765,15.8429784 L40.5686728,15.8429784 C40.9690072,15.8429784 41.2993184,16.1402526 41.3515901,16.5258932 L41.3587962,16.6331018 L41.3587962,18.3213735 L43.3966049,18.3213735 L43.3966049,16.6331018 C43.3966049,16.2331211 43.6935549,15.9025152 44.0794387,15.8501918 L44.1867284,15.8429784 L44.5455247,15.8429784 L44.5455247,7.62268516 C44.5455247,3.50178527 47.8287764,0.134394238 51.9144126,0.00392403959 L52.1604938,9.41469125e-14 L54.2932099,9.41469125e-14 C58.4099492,9.41469125e-14 61.7739213,3.28658907 61.904259,7.37635524 L61.908179,7.62268516 L61.908179,15.8429784 L62.2669754,15.8429784 C62.6673097,15.8429784 62.9976209,16.1402526 63.0498927,16.5258932 L63.0570988,16.6331018 L63.0570988,20.6454475 C63.0570988,22.0666102 61.9456339,23.2327353 60.5465347,23.3203349 L60.3773148,23.3256172 L54.0169753,23.3256172 L54.0169753,27.9972994 L62.5516975,27.9972994 C62.988426,27.9972994 63.341821,28.3510803 63.341821,28.7874229 C63.341821,29.1874036 63.044871,29.5180095 62.6589872,29.5703329 L62.5516975,29.5775464 L0.840277807,29.5775464 C0.403549393,29.5775464 0.0501543506,29.2237655 0.0501543506,28.7874229 C0.0501543506,28.3874422 0.347104351,28.0568363 0.732988101,28.0045129 L0.840277807,27.9972994 L9.04012342,27.9972994 L9.04012342,23.3256173 L2.68055554,23.3256173 C1.25902186,23.3256173 0.0928825166,22.2141523 0.0052823506,20.8147102 L2.19557705e-12,20.6454475 L2.19557705e-12,16.6331018 C2.19557705e-12,16.2331211 0.296950001,15.9025152 0.682833751,15.8501918 L0.790123457,15.8429784 L1.1489197,15.8429784 L1.1489197,7.62268516 C1.1489197,3.50178527 4.43217141,0.134394238 8.51780764,0.00392403959 L8.76388883,9.41469125e-14 L10.8966049,9.41469125e-14 L8.76388883,9.41469125e-14 Z M43.3966049,19.9016204 L41.3587963,19.9016204 L41.3587963,20.6454475 C41.3587963,22.0666102 40.2473314,23.2327353 38.8482322,23.3203349 L38.6790123,23.3256172 L32.3186728,23.3256172 L32.3186728,27.9972994 L52.4367283,27.9972994 L52.4367283,23.3256172 L46.0771605,23.3256172 C44.6556268,23.3256172 43.4894874,22.2141523 43.4018873,20.8147102 L43.3966049,20.6454475 L43.3966049,19.9016204 Z M21.6983025,19.9016205 L19.6604938,19.9016205 L19.6604938,20.6454476 C19.6604938,22.0666103 18.5490289,23.2327354 17.1499297,23.320335 L16.9807098,23.3256173 L10.6203703,23.3256173 L10.6203703,27.9972994 L30.7384259,27.9972994 L30.7384259,23.3256173 L24.378858,23.3256173 C22.9573244,23.3256173 21.791185,22.2141524 21.7035848,20.8147102 L21.6983025,20.6454476 L21.6983025,19.9016205 Z M61.4768518,17.4232253 L44.9768518,17.4232253 L44.9768518,20.6454475 C44.9768518,21.2114969 45.4070302,21.6790757 45.9574792,21.7389038 L46.0771605,21.7453703 L60.3773148,21.7453703 C60.9433642,21.7453703 61.410607,21.3155281 61.4703902,20.7651239 L61.4768518,20.6454475 L61.4768518,17.4232253 Z M39.7785494,17.4232253 L23.2785494,17.4232253 L23.2785494,20.6454475 C23.2785494,21.2114969 23.7087277,21.6790757 24.2591767,21.7389038 L24.378858,21.7453703 L38.6790123,21.7453703 C39.2450618,21.7453703 39.7123046,21.3155281 39.7720878,20.7651239 L39.7785494,20.6454475 L39.7785494,17.4232253 Z M18.0802469,17.4232253 L1.58024691,17.4232253 L1.58024691,20.6454475 C1.58024691,21.2114969 2.01042524,21.6790757 2.56087424,21.7389038 L2.68055554,21.7453703 L16.9807098,21.7453703 C17.5467593,21.7453703 18.0140021,21.3155281 18.0737853,20.7651239 L18.0802469,20.6454475 L18.0802469,17.4232253 Z M54.2932099,1.58024691 L52.1604938,1.58024691 C48.9081965,1.58024691 46.2491284,4.16908394 46.1299415,7.39650469 L46.1257716,7.62268516 L46.1257716,15.8429784 L60.3279321,15.8429784 L60.3279321,7.62268516 C60.3279321,4.36661759 57.7427798,1.70377903 54.5191274,1.58442277 L54.2932099,1.58024691 Z M32.5949074,1.58024691 L30.4621913,1.58024691 C27.2098941,1.58024691 24.5508259,4.16908394 24.431639,7.39650469 L24.4274691,7.62268516 L24.4274691,15.8429784 L38.6296296,15.8429784 L38.6296296,7.62268516 C38.6296296,4.36661759 36.0444773,1.70377903 32.8208249,1.58442277 L32.5949074,1.58024691 Z M10.896605,1.58024691 L8.76388891,1.58024691 C5.5115916,1.58024691 2.85252345,4.16908394 2.73333662,7.39650469 L2.7291667,7.62268516 L2.7291667,15.8429784 L16.9313272,15.8429784 L16.9313272,7.62268516 C16.9313272,4.36661759 14.3461749,1.70377903 11.1225225,1.58442277 L10.896605,1.58024691 Z" id="seats2"></path>
            </g>
        </g>
    </g>
</svg>