<?xml version="1.0" encoding="UTF-8"?>
<svg width="60px" height="26px" viewBox="0 0 60 26" version="1.1" xmlns="http://www.w3.org/2000/svg" xmlns:xlink="http://www.w3.org/1999/xlink">
    <!-- Generator: Sketch 61 (89581) - https://sketch.com -->
    <title>seats</title>
    <desc>Created with Sketch.</desc>
    <g id="Page-1" stroke="none" stroke-width="1" fill="none" fill-rule="evenodd">
        <g id="LDNSTDM_GettingHere_D_v1" transform="translate(-80.000000, -1598.000000)" fill="#00D9E3" fill-rule="nonzero">
            <path d="M140,1622 L140,1624 L80,1624 L80,1622 L140,1622 Z M86.994,1598 L93.006,1598 C95.1459229,1598.00321 96.8913016,1599.68636 96.9951148,1601.80057 L97,1602 L97,1612.142 C98.9482742,1612.64345 100.219,1614.51628 99.9650329,1616.51196 C99.7195311,1618.44111 98.1234494,1619.90229 96.2000934,1619.9953 L96,1620 L84,1620 C81.9882311,1620.0025 80.2889345,1618.50763 80.0349671,1616.51196 C79.7897573,1614.5851 80.9659024,1612.77275 82.8009061,1612.19871 L83,1612.142 L83,1602 C82.9999976,1599.86007 84.6805301,1598.11217 86.7945762,1598.00518 L86.994,1598 L93.006,1598 L86.994,1598 Z M106.994,1598 L113.006,1598 C115.145923,1598.00321 116.891302,1599.68636 116.995115,1601.80057 L117,1602 L117,1612.142 C118.948274,1612.64345 120.219,1614.51628 119.965033,1616.51196 C119.719531,1618.44111 118.123449,1619.90229 116.200093,1619.9953 L116,1620 L104,1620 C101.988231,1620.0025 100.288935,1618.50763 100.034967,1616.51196 C99.7897573,1614.5851 100.965902,1612.77275 102.800906,1612.19871 L103,1612.142 L103,1602 C102.999998,1599.86007 104.68053,1598.11217 106.794576,1598.00518 L106.994,1598 L113.006,1598 L106.994,1598 Z M126.994,1598 L133.006,1598 C135.145923,1598.00321 136.891302,1599.68636 136.995115,1601.80057 L137,1602 L137,1612.142 C138.948274,1612.64345 140.219,1614.51628 139.965033,1616.51196 C139.719531,1618.44111 138.123449,1619.90229 136.200093,1619.9953 L136,1620 L124,1620 C121.988231,1620.0025 120.288935,1618.50763 120.034967,1616.51196 C119.789757,1614.5851 120.965902,1612.77275 122.800906,1612.19871 L123,1612.142 L123,1602 C122.999998,1599.86007 124.68053,1598.11217 126.794576,1598.00518 L126.994,1598 L133.006,1598 L126.994,1598 Z M96,1614 L84,1614 C82.8954305,1614 82,1614.89543 82,1616 C82,1617.05436 82.8158778,1617.91817 83.8507377,1617.99451 L84,1618 L96,1618 C97.1045695,1618 98,1617.10457 98,1616 C98,1614.94564 97.1841222,1614.08183 96.1492623,1614.00549 L96,1614 Z M116,1614 L104,1614 C102.895431,1614 102,1614.89543 102,1616 C102,1617.05436 102.815878,1617.91817 103.850738,1617.99451 L104,1618 L116,1618 C117.104569,1618 118,1617.10457 118,1616 C118,1614.94564 117.184122,1614.08183 116.149262,1614.00549 L116,1614 Z M136,1614 L124,1614 C122.895431,1614 122,1614.89543 122,1616 C122,1617.05436 122.815878,1617.91817 123.850738,1617.99451 L124,1618 L136,1618 C137.104569,1618 138,1617.10457 138,1616 C138,1614.94564 137.184122,1614.08183 136.149262,1614.00549 L136,1614 Z M93.006,1600 L86.994,1600 C85.9418755,1600.00316 85.0815052,1600.8183 85.0054635,1601.85105 L85,1602 L85,1612 L95,1612 L95,1602 C95,1600.94787 94.1874535,1600.08505 93.1549351,1600.00591 L93.006,1600 Z M113.006,1600 L106.994,1600 C105.941876,1600.00316 105.081505,1600.8183 105.005464,1601.85105 L105,1602 L105,1612 L115,1612 L115,1602 C115,1600.94787 114.187454,1600.08505 113.154935,1600.00591 L113.006,1600 Z M133.006,1600 L126.994,1600 C125.941876,1600.00316 125.081505,1600.8183 125.005464,1601.85105 L125,1602 L125,1612 L135,1612 L135,1602 C135,1600.94787 134.187454,1600.08505 133.154935,1600.00591 L133.006,1600 Z M92,1602 L92,1604 L88,1604 L88,1602 L92,1602 Z M112,1602 L112,1604 L108,1604 L108,1602 L112,1602 Z M132,1602 L132,1604 L128,1604 L128,1602 L132,1602 Z" id="seats"></path>
        </g>
    </g>
</svg>