<?xml version="1.0" encoding="UTF-8"?>
<svg width="24px" height="22px" viewBox="0 0 24 22" version="1.1" xmlns="http://www.w3.org/2000/svg" xmlns:xlink="http://www.w3.org/1999/xlink">
    <!-- Generator: Sketch 59.1 (86144) - https://sketch.com -->
    <title>social-linkedin</title>
    <desc>Created with Sketch.</desc>
    <g id="Page-1" stroke="none" stroke-width="1" fill="none" fill-rule="evenodd">
        <g id="LDNSTDM_Home_D_v1_Alternate" transform="translate(-1296.000000, -5995.000000)" fill="#FFFFFF">
            <path d="M1314.06343,6001.91153 C1317.38791,6001.91153 1320,6004.06122 1320,6008.68989 L1320,6008.68989 L1320,6017 L1314.6958,6017 L1314.6958,6009.26586 C1314.6958,6007.24212 1313.86631,6005.85995 1312.04142,6005.85995 C1310.64592,6005.85995 1309.86978,6006.79277 1309.5087,6007.69148 C1309.37338,6008.01357 1309.3942,6008.46292 1309.3942,6008.91293 L1309.3942,6008.91293 L1309.3942,6017 L1304.13944,6017 C1304.13944,6017 1304.2071,6003.30027 1304.13944,6002.05519 L1304.13944,6002.05519 L1309.3942,6002.05519 L1309.3942,6004.40036 C1309.70453,6003.37505 1311.38368,6001.91153 1314.06343,6001.91153 Z M1301.28273,6002.05519 L1301.28273,6017 L1296.60504,6017 L1296.60504,6002.05519 L1301.28273,6002.05519 Z M1298.85736,5995 C1300.58336,5995 1301.64446,5996.11584 1301.67829,5997.59117 C1301.67829,5999.03894 1300.58336,6000.18562 1298.82483,6000.18562 L1298.82483,6000.18562 L1298.791,6000.18562 C1297.09818,6000.18562 1296,5999.04353 1296,5997.5951 C1296,5996.11847 1297.13006,5995 1298.85736,5995 Z" id="social-linkedin"></path>
        </g>
    </g>
</svg>