<?xml version="1.0" encoding="UTF-8"?>
<svg width="24px" height="25px" viewBox="0 0 24 25" version="1.1" xmlns="http://www.w3.org/2000/svg" xmlns:xlink="http://www.w3.org/1999/xlink">
    <!-- Generator: Sketch 61 (89581) - https://sketch.com -->
    <title>social-google-black</title>
    <desc>Created with Sketch.</desc>
    <g id="Page-1" stroke="none" stroke-width="1" fill="none" fill-rule="evenodd">
        <g id="LDNSTDM_WhatsOn/Event_D_v2" transform="translate(-589.000000, -1514.000000)" fill="#134273">
            <path d="M601.168691,1524.02475 L601.168691,1528.97525 C601.168691,1528.97525 605.843878,1528.96881 607.747495,1528.96881 C606.71665,1532.17809 605.113756,1533.92574 601.168691,1533.92574 C597.176276,1533.92574 594.060248,1530.60111 594.060248,1526.5 C594.060248,1522.39889 597.176276,1519.07426 601.168691,1519.07426 C603.279537,1519.07426 604.642792,1519.83639 605.893275,1520.89864 C606.894241,1519.87042 606.810626,1519.72389 609.357256,1517.25347 C607.195446,1515.23218 604.322189,1514 601.168691,1514 C594.44808,1514 589,1519.59641 589,1526.5 C589,1533.40347 594.44808,1539 601.168691,1539 C611.214126,1539 613.66943,1530.01485 612.855453,1524.02475 L601.168691,1524.02475 L601.168691,1524.02475 Z" id="social-google"></path>
        </g>
    </g>
</svg>