<?xml version="1.0" encoding="UTF-8"?>
<svg width="40px" height="25px" viewBox="0 0 40 25" version="1.1" xmlns="http://www.w3.org/2000/svg" xmlns:xlink="http://www.w3.org/1999/xlink">
    <!-- Generator: Sketch 61 (89581) - https://sketch.com -->
    <title>stadium</title>
    <desc>Created with Sketch.</desc>
    <g id="Page-1" stroke="none" stroke-width="1" fill="none" fill-rule="evenodd">
        <g id="LDNSTDM_Home_D_v1_Alternate" transform="translate(-1149.000000, -1967.000000)" fill="#00D9E3">
            <g id="noun_stadium_2785238" transform="translate(1149.000000, 1967.000000)">
                <path d="M14.9612949,0 L13.4842031,0.137683328 L13.9805178,5.64576474 C12.0174821,5.92786591 10.0922256,6.33642622 8.23808289,6.88192158 L7.24545354,1.86620772 L5.79577021,2.16028135 L6.8202526,7.33388207 C5.38908848,7.816522 4.0060743,8.37548638 2.68824771,9.01451661 L1.43783103,5.64576474 L0.0488906997,6.17030829 L5.45427608,20.7250823 L0.743731249,20.7250823 L0,20.7250823 L0,22.215654 L0.743731249,22.215654 L39.2621949,22.215654 L40,22.215654 L40,20.7250823 L39.2621949,20.7250823 L34.5516501,20.7250823 L39.9562947,6.17030829 L38.5673543,5.64576474 L37.3206415,9.00404071 C35.9917034,8.34705178 34.6109115,7.78060461 33.1945628,7.2972164 L34.2101559,2.16028135 L32.7604726,1.86620772 L31.7737694,6.84824903 C29.9011074,6.29302604 27.975851,5.88296917 26.0239268,5.61059563 L26.5157969,0.137683328 L25.0446313,0 L24.5549835,5.42053277 C22.9719619,5.25665968 21.3785696,5.17958695 19.7896218,5.19230769 C18.3347531,5.20428016 16.8865514,5.29557019 15.4516834,5.45121221 L14.9612949,0 Z M19.7985111,6.71580365 C21.3400496,6.70308291 22.885292,6.77716253 24.4194229,6.93504939 L23.7786585,14.0347201 C22.4593503,13.9561509 21.1444868,13.9187369 19.8325864,13.9247231 C18.6266158,13.9307094 17.424349,13.9748578 16.2243046,14.050434 L15.5879847,6.96572882 C16.9791474,6.81532475 18.3866069,6.72702784 19.7985111,6.71580365 L19.7985111,6.71580365 Z M25.8876255,7.12137085 C27.7906589,7.38775816 29.6633209,7.79033224 31.4796844,8.3320862 L30.2048224,14.7620473 C28.5499463,14.4881772 26.8995148,14.2816522 25.2557502,14.1439689 L25.8876255,7.12137085 Z M14.1183007,7.15803652 L14.7486944,14.1649207 C13.0945591,14.307842 11.4463499,14.5121221 9.80332605,14.7829991 L8.53364939,8.36575875 C10.3322345,7.83373242 12.2048965,7.43415145 14.1183007,7.15803652 Z M32.9004778,8.77581562 C34.2427497,9.23974858 35.5465017,9.78524394 36.7983999,10.4115534 L34.8316604,15.7093685 C33.7745842,15.4519605 32.7189896,15.2170009 31.666358,15.0164621 L32.9004778,8.77581562 Z M7.11285603,8.81547441 L8.34401274,15.0374139 C7.28545502,15.2357079 6.2291196,15.4661778 5.17500648,15.7153547 L3.20900774,10.4190362 C4.44979444,9.8114337 5.7565095,9.27716253 7.11285603,8.81547441 L7.11285603,8.81547441 Z M19.8414756,15.4197845 C21.1052261,15.4145465 22.3726805,15.4504639 23.6438387,15.5252918 L23.1749324,20.7250823 L16.8250676,20.7250823 L16.3591244,15.5410057 C17.5176858,15.4691709 18.6777288,15.4250224 19.8414756,15.4197845 Z M25.1224119,15.6345406 C26.7143228,15.7684825 28.3114189,15.9667764 29.9144413,16.2309189 L29.0247787,20.7250823 L24.6638764,20.7250823 L25.1224119,15.6345406 Z M14.8835142,15.6539958 L15.3405682,20.7250823 L10.9811474,20.7250823 L10.0944479,16.2503741 C11.685618,15.9892248 13.2827142,15.7924274 14.8835142,15.6539958 L14.8835142,15.6539958 Z M31.3752361,16.4853337 C32.3508278,16.6709069 33.3286418,16.8886561 34.3079373,17.124364 L32.9715915,20.7250823 L30.5366865,20.7250823 L31.3752361,16.4853337 Z M8.63439387,16.504789 L9.4692396,20.7250823 L7.0343346,20.7250823 L5.69872958,17.1288536 C6.67580281,16.8998803 7.65435757,16.6881173 8.63439387,16.504789 Z M0,23.5034421 L0,25 L0.743731249,25 L39.2621949,25 L40,25 L40,23.5034421 L39.2621949,23.5034421 L0.743731249,23.5034421 L0,23.5034421 Z" id="stadium"></path>
            </g>
        </g>
    </g>
</svg>