<?xml version="1.0" encoding="UTF-8"?>
<svg width="32px" height="38px" viewBox="0 0 32 38" version="1.1" xmlns="http://www.w3.org/2000/svg" xmlns:xlink="http://www.w3.org/1999/xlink">
    <!-- Generator: Sketch 59.1 (86144) - https://sketch.com -->
    <title>tickets</title>
    <desc>Created with Sketch.</desc>
    <g id="Page-1" stroke="none" stroke-width="1" fill="none" fill-rule="evenodd">
        <g id="LDNSTDM_Home_D_v1" transform="translate(-325.000000, -7062.000000)" fill="#00B8C3" fill-rule="nonzero">
            <g id="Group-7" transform="translate(0.000000, 6510.000000)">
                <path d="M355.437,567.97421 L356.515156,569.056858 L357,569.543905 L356.515156,570.030953 L337.121232,589.512956 L336.636354,590 L336.15151,589.512956 L333.484869,586.834177 L333,586.347133 L333.484869,585.860088 C333.914365,585.428631 334.191502,584.90471 334.316276,584.353927 L335.380614,585.423983 C335.283023,585.65159 335.16593,585.872756 335.029387,586.084863 L334.886364,586.293855 L336.636354,588.051788 L349.000009,575.632053 L348.407,575.03621 L349.377,574.06221 L349.969696,574.657964 L355.060625,569.543905 L354.467,568.94821 L355.437,567.97421 Z M345.363646,552 L345.84849,552.487051 L348.515165,555.165819 L349,555.652871 L348.515165,556.139919 C347.304427,557.356128 347.304461,559.307178 348.515165,560.523359 C349.725903,561.7396 351.668089,561.739569 352.878793,560.523359 L352.878793,560.523359 L353.363637,560.036311 L353.848481,560.523359 L356.515156,563.202131 L357,563.689179 L356.515156,564.176227 L337.121232,583.658229 L336.636354,584.145273 L336.15151,583.658229 L333.484869,580.97945 L333,580.492406 L333.484869,580.005362 C334.695573,578.789128 334.695608,576.838161 333.484869,575.621893 C332.274166,574.405729 330.331945,574.405694 329.121207,575.621893 L329.121207,575.621893 L328.636363,576.108972 L328.151519,575.621893 L325.484844,572.943149 L325,572.456105 L325.484844,571.969026 L344.878802,552.487051 L345.363646,552 Z M339.30303,560.036311 L326.93941,572.456105 L328.681823,574.206427 C330.422694,572.929993 332.884969,573.071127 334.454557,574.647805 C336.024111,576.224483 336.156859,578.69039 334.886364,580.439128 L334.886364,580.439128 L336.636354,582.197061 L349.000009,569.777326 L339.30303,560.036311 Z M326.649,576.65321 L327.619,577.62721 L326.93941,578.310832 L328.681823,580.061154 C328.954824,579.860985 329.245566,579.695678 329.547824,579.5653 L330.620579,580.641457 C330.140814,580.751123 329.681523,580.97797 329.28646,581.322003 L329.121207,581.47662 L328.636363,581.963699 L328.151519,581.47662 L325.484844,578.797876 L325,578.310832 L325.484844,577.823753 L326.649,576.65321 Z M345.363646,553.948198 L340.272717,559.062212 L349.969696,568.803238 L355.060625,563.689179 L353.3106,561.931235 C351.569763,563.207493 349.114997,563.074129 347.545477,561.497458 C345.975889,559.92076 345.835393,557.44731 347.10606,555.698531 L347.10606,555.698531 L345.363646,553.948198 Z" id="tickets"></path>
            </g>
        </g>
    </g>
</svg>