<?xml version="1.0" encoding="UTF-8"?>
<svg width="39px" height="48px" viewBox="0 0 39 48" version="1.1" xmlns="http://www.w3.org/2000/svg" xmlns:xlink="http://www.w3.org/1999/xlink">
    <!-- Generator: Sketch 61 (89581) - https://sketch.com -->
    <title>train</title>
    <desc>Created with Sketch.</desc>
    <g id="Page-1" stroke="none" stroke-width="1" fill="none" fill-rule="evenodd">
        <g id="LDNSTDM_GettingHere_D_v1" transform="translate(-141.000000, -2754.000000)" fill="#134273" fill-rule="nonzero">
            <g id="noun_Train_1195425" transform="translate(141.000000, 2754.000000)">
                <path d="M24.4391488,7.81597009e-14 C30.2450833,7.81597009e-14 35.0228681,4.63228015 35.0228681,10.3067761 L35.0228681,10.3067761 L35.0228681,28.2115888 C35.0228681,30.8647881 32.795247,33.015739 30.1009661,33.015739 L30.1009661,33.015739 L38.8089041,46.2867507 C39.1563383,46.7631588 39.0131022,47.5153592 38.5163192,47.8370533 C38.0195913,48.1587474 37.2692127,47.9853346 36.9674863,47.4792702 L36.9674863,47.4792702 L34.74752,44.1061435 L4.25271997,44.1061435 L2.03269857,47.4792702 C1.73108228,47.9856072 0.980758774,48.1588564 0.483865636,47.8370533 C-0.013027503,47.5152502 -0.15653892,46.7631588 0.191335839,46.2867507 L0.191335839,46.2867507 L8.89916424,33.015739 C6.20108351,33.015739 3.97737189,30.8628255 3.97737189,28.2115888 L3.97737189,28.2115888 L3.97737189,10.3067761 C3.97737189,4.63229106 8.75510212,7.81597009e-14 14.5610366,7.81597009e-14 L14.5610366,7.81597009e-14 Z M30.4107878,37.4791693 L8.58945272,37.4791693 L5.68106113,41.9255363 L33.3191243,41.9255363 L30.4107878,37.4791693 Z M27.4851594,33.015739 L11.514971,33.015739 L10.0177933,35.2985621 L28.9823921,35.2985621 L27.4851594,33.015739 Z M24.4391488,2.18060716 L14.5610366,2.18060716 C9.93535412,2.18060716 6.18015705,5.84295325 6.18015705,10.3067761 L6.18015705,10.3067761 L6.18015705,28.2115888 C6.18015705,29.6552598 7.38249196,30.8351318 8.89916424,30.8351318 L8.89916424,30.8351318 L30.1009661,30.8351318 C31.6105895,30.8351318 32.8200834,29.6532973 32.8200834,28.2115888 L32.8200834,28.2115888 L32.8200834,10.3067761 C32.8200834,5.84296415 29.0648313,2.18060716 24.4391488,2.18060716 L24.4391488,2.18060716 Z M11.2052594,22.6578713 C12.7825634,22.6578713 14.0791775,23.9414149 14.0791775,25.5028931 C14.0791775,27.0621363 12.7825083,28.3478768 11.2052594,28.3478768 C9.63010324,28.3478768 8.33128636,27.0662794 8.33128636,25.5028931 C8.33128636,23.9373262 9.63010324,22.6578713 11.2052594,22.6578713 Z M27.7949811,22.6578713 C29.3700822,22.6578713 30.6688991,23.9414149 30.6688991,25.5028931 C30.6688991,27.0621908 29.3700822,28.3478768 27.7949811,28.3478768 C26.2176771,28.3478768 24.921008,27.0621363 24.921008,25.5028931 C24.921008,23.9414149 26.2176221,22.6578713 27.7949811,22.6578713 Z M21.5996493,24.4807311 C22.1771644,24.4794252 22.7035198,24.9993364 22.7035198,25.5710371 C22.7035198,26.1426833 22.1771644,26.6612862 21.5996493,26.6612862 L21.5996493,26.6612862 L17.4177729,26.6612862 C16.8410288,26.6926324 16.2873038,26.2016142 16.2559141,25.6306767 C16.2243593,25.0597392 16.7204814,24.5118072 17.2972806,24.4807311 L17.2972806,24.4807311 Z M19.5000652,4.49745681 C21.9291859,4.50180352 24.3509273,4.81793705 26.2805666,5.50262589 C27.2453312,5.84497031 28.1061794,6.27437002 28.775881,6.88254136 C29.4455826,7.4907127 29.9289286,8.34581054 29.9289286,9.30165244 L29.9289286,9.30165244 L29.9289286,15.1961062 C29.9289286,16.1255409 29.2348312,16.7317115 28.5865517,17.0530295 C27.9383273,17.3743474 27.1803491,17.5130013 26.3494036,17.5130013 L26.3494036,17.5130013 L12.6508368,17.5130013 C11.8198364,17.5130013 11.0618582,17.3743419 10.4135787,17.0530295 C9.76535422,16.731717 9.07131185,16.1255682 9.07131185,15.1961062 L9.07131185,15.1961062 L9.07131185,9.30165244 C9.07131185,8.34206535 9.57112368,7.47804882 10.2415412,6.86550537 C10.9119036,6.25296191 11.7537528,5.82717656 12.7196739,5.4855899 C14.6514058,4.80241658 17.0709995,4.49314106 19.5000652,4.49745681 Z" id="train"></path>
            </g>
        </g>
    </g>
</svg>