<?xml version="1.0" encoding="UTF-8"?>
<svg width="96px" height="62px" viewBox="0 0 96 62" version="1.1" xmlns="http://www.w3.org/2000/svg" xmlns:xlink="http://www.w3.org/1999/xlink">
    <!-- Generator: Sketch 61 (89581) - https://sketch.com -->
    <title>transport-bus</title>
    <desc>Created with Sketch.</desc>
    <g id="Page-1" stroke="none" stroke-width="1" fill="none" fill-rule="evenodd">
        <g id="noun_Bike_1950231" transform="translate(-2.000000, 0.000000)" fill="#000000" fill-rule="nonzero">
            <path d="M79,24.1 C78.3,24.1 77.7,24.1 77,24.2 L70.5,2.2 C70.1,0.9 69,0 67.6,0 L58.5,0 C56.8,0 55.4,1.4 55.4,3.1 C55.4,4.8 56.8,6.2 58.5,6.2 L65.3,6.2 L67.7,14.3 C67.6,14.3 67.5,14.3 67.5,14.3 L37,14.3 L38.7,9.7 C39.1,8.8 38.9,7.7 38.4,6.9 C37.8,6.1 36.9,5.6 35.9,5.6 L25.6,5.6 C23.9,5.6 22.5,7 22.5,8.7 C22.5,10.4 23.9,11.8 25.6,11.8 L31.4,11.8 L29.7,16.3 L25.8,24.9 C24.3,24.5 22.6,24.3 21,24.3 C10.5,24.1 2,32.6 2,43.1 C2,53.6 10.5,62 20.9,62 C30.8,62 39,54.3 39.8,44.6 L46.7,44.6 C47.6,44.6 48.4,44.2 49,43.5 L69.3,19.8 L71.1,25.8 C64.6,28.8 60,35.4 60,43 C60.1,53.5 68.6,62 79,62 C89.4,62 98,53.5 98,43.1 C98,32.7 89.5,24.1 79,24.1 Z M20.9,55.9 C13.8,55.9 8.1,50.1 8.1,43.1 C8.1,36 13.9,30.3 20.9,30.3 C21.7,30.3 22.4,30.4 23.1,30.5 L18.6,40.3 C18.2,41.2 18.2,42.4 18.8,43.2 C19.4,44.1 20.3,44.6 21.4,44.6 L33.6,44.6 C32.9,50.9 27.5,55.9 20.9,55.9 Z M32.9,38.5 L26.2,38.5 L28.7,33 C30.6,34.3 32.1,36.3 32.9,38.5 Z M45.3,38.5 L39.3,38.5 C38.1,33.8 35.3,29.9 31.4,27.3 L34.5,20.4 L60.8,20.4 L45.3,38.5 Z M79,55.9 C71.9,55.9 66.2,50.1 66.2,43.1 C66.2,38.2 68.9,34 72.9,31.8 L76.6,44.5 C77,45.8 78.2,46.7 79.5,46.7 C79.8,46.7 80.1,46.7 80.4,46.6 C82,46.1 82.9,44.4 82.5,42.8 L78.8,30.3 C78.9,30.3 78.9,30.3 79,30.3 C86.1,30.3 91.8,36.1 91.8,43.1 C91.8,50.1 86.1,55.9 79,55.9 Z" id="transport-bus"></path>
        </g>
    </g>
</svg>