<?xml version="1.0" encoding="UTF-8"?>
<svg width="85px" height="91px" viewBox="0 0 85 91" version="1.1" xmlns="http://www.w3.org/2000/svg" xmlns:xlink="http://www.w3.org/1999/xlink">
    <!-- Generator: Sketch 61 (89581) - https://sketch.com -->
    <title>transport-bus</title>
    <desc>Created with Sketch.</desc>
    <g id="Page-1" stroke="none" stroke-width="1" fill="none" fill-rule="evenodd">
        <g id="noun_Bus_1348506" transform="translate(-8.000000, 0.000000)" fill="#000000" fill-rule="nonzero">
            <path d="M92,26.2 C92,24.9 91.4,23.9 90.3,23.2 C90.1,23.1 89.8,22.9 89.6,22.8 C89.6,19.5 89.5,16.1 89.3,12.7 C88.9,4.9 84.8,1.1 77.1,1 C70.4,1 63.7,1 57,1 C46.1,1 35.3,0.9 24.4,1.1 C14.4,1.3 10.4,5.5 10.4,15.5 C10.4,17.9 10.4,20.3 10.4,22.8 C9.8,23 9.3,23.5 8.9,24 C8.2,24.6 8,25.5 8,26.5 C8,31.1 8,35.7 8,40.4 C8,41.8 8.5,42.9 9.7,43.6 C10,43.8 10.2,43.9 10.5,44 C10.5,53.9 10.5,63.7 10.5,73.6 C10.5,75 10.3,76.6 11,77.8 C12.5,80.2 12.2,82.8 12.3,85.4 C12.4,88.6 14.5,90.8 17.7,90.9 C20,91 22.3,91 24.6,90.9 C27.9,90.8 30,88.9 30.1,85.6 C30.2,84.2 30.4,83.7 32,83.7 C44,83.8 56.1,83.8 68.1,83.7 C69.6,83.7 70,84.1 70,85.6 C70.1,89.1 72.2,90.9 75.7,90.9 C77.7,90.9 79.7,90.9 81.7,90.9 C85.8,90.9 87.8,88.8 87.9,84.7 C87.9,83.1 87.4,81.3 88.3,79.8 C89.4,77.8 89.7,75.8 89.7,73.6 C89.7,64.3 89.7,55 89.7,44 C90.4,43.9 91,43.3 91.4,42.7 C91.9,42.1 92.1,41.3 92.1,40.5 C92,35.8 92,31 92,26.2 Z M33.3,8.2 C39.3,8.2 45.3,8.2 51.2,8.2 C57,8.2 62.8,8.2 68.7,8.2 C71.3,8.2 71.6,8.6 71.7,11.6 C71.7,14.9 71.4,15.4 68.9,15.4 C57,15.4 45.1,15.4 33.3,15.4 C30.7,15.4 30.2,14.8 30.2,11.8 C30.1,8.8 30.6,8.2 33.3,8.2 Z M25.8,74.8 C22.3,74.8 19.4,71.9 19.4,68.4 C19.5,65 22.4,62.2 25.7,62.2 C29.2,62.2 31.8,64.9 31.8,68.5 C31.9,72 29.2,74.8 25.8,74.8 Z M24.9,53.2 C21.1,53.2 19.4,51.4 19.4,47.5 C19.4,40.5 19.4,33.5 19.4,26.5 C19.4,22.6 21,21 24.9,21 C33.3,21 41.6,21 50,21 C58.2,21 66.4,21 74.6,21 C79,21 80.5,22.5 80.5,26.8 C80.5,33.5 80.5,40.2 80.5,46.9 C80.5,50.9 78.3,53.1 74.3,53.2 C57.9,53.2 41.4,53.2 24.9,53.2 Z M74.3,74.8 C70.9,74.8 68.2,72.1 68.1,68.6 C68.1,65 70.7,62.3 74.2,62.3 C77.7,62.3 80.6,65.2 80.6,68.7 C80.5,71.9 77.7,74.8 74.3,74.8 Z" id="transport-bus"></path>
        </g>
    </g>
</svg>