<?xml version="1.0" encoding="UTF-8"?>
<svg width="96px" height="92px" viewBox="0 0 96 92" version="1.1" xmlns="http://www.w3.org/2000/svg" xmlns:xlink="http://www.w3.org/1999/xlink">
    <!-- Generator: Sketch 61 (89581) - https://sketch.com -->
    <title>transport-taxi</title>
    <desc>Created with Sketch.</desc>
    <g id="Page-1" stroke="none" stroke-width="1" fill="none" fill-rule="evenodd">
        <g id="noun_Taxi_1772874" transform="translate(-2.000000, 0.000000)" fill="#000000" fill-rule="nonzero">
            <path d="M95.2,37.6 L88.3,37.6 L81,17.2 C80,14.3 77.4,12.2 74.4,11.9 C71.2,11.6 68,11.4 64.8,11.2 L64.8,4.2 C64.8,2 63,0.3 60.9,0.3 L39.2,0.3 C37,0.3 35.3,2.1 35.3,4.2 L35.3,11.2 C32.1,11.4 28.9,11.6 25.7,11.9 C22.6,12.2 20.1,14.2 19.1,17.2 L11.8,37.6 L4.8,37.6 C3.5,37.6 2.5,38.6 2.5,39.9 L2.5,45.3 C2.5,46.6 3.5,47.6 4.8,47.6 L8.1,47.6 C7.4,49.6 7,51.7 7,53.8 L7,73.5 C7,75.2 8.1,76.6 9.6,77.1 L9.6,88 C9.6,90.1 11.3,91.7 13.3,91.7 L21.2,91.7 C23.3,91.7 24.9,90 24.9,88 L24.9,77.2 L74.8,77.2 L74.8,88 C74.8,90.1 76.5,91.7 78.5,91.7 L86.4,91.7 C88.5,91.7 90.1,90 90.1,88 L90.1,77.1 C91,76.8 91.7,76.2 92.2,75.3 C92.5,74.7 92.7,74.1 92.7,73.4 L92.7,53.9 C92.7,51.8 92.3,49.7 91.6,47.7 L94.9,47.7 C96.2,47.7 97.2,46.7 97.2,45.4 L97.2,40 C97.5,38.6 96.5,37.6 95.2,37.6 Z M58.6,3.1 L61.5,3.1 C61.7,3.1 61.8,3.2 61.8,3.4 L61.8,6.2 L58.5,6.2 L58.5,3.1 L58.6,3.1 Z M58.6,9.4 L55.2,9.4 L55.2,6.3 L58.6,6.3 L58.6,9.4 Z M51.7,3.1 L55.1,3.1 L55.1,6.2 L51.7,6.2 L51.7,3.1 Z M51.7,9.4 L48.3,9.4 L48.3,6.3 L51.7,6.3 L51.7,9.4 Z M44.9,3.1 L48.3,3.1 L48.3,6.2 L44.9,6.2 L44.9,3.1 Z M38.1,3.4 C38.1,3.2 38.2,3.1 38.4,3.1 L41.3,3.1 L41.3,6.2 L38,6.2 L38,3.4 L38.1,3.4 Z M44.8,6.2 L44.8,9.3 L41.4,9.3 L41.4,6.2 L44.8,6.2 Z M27.7,21.3 C35.1,20.6 42.6,20.3 50,20.3 C57.4,20.3 64.9,20.6 72.3,21.3 L79.4,41.1 L20.6,41.1 L27.7,21.3 Z M34.2,61.7 C34.2,63.7 32.6,65.3 30.6,65.3 L21.7,65.3 C19.7,65.3 18.1,63.7 18.1,61.7 L18.1,59.2 C18.1,57.2 19.7,55.6 21.7,55.6 L30.6,55.6 C32.6,55.6 34.2,57.2 34.2,59.2 L34.2,61.7 Z M81.9,61.7 C81.9,63.7 80.3,65.3 78.3,65.3 L69.4,65.3 C67.4,65.3 65.8,63.7 65.8,61.7 L65.8,59.2 C65.8,57.2 67.4,55.6 69.4,55.6 L78.3,55.6 C80.3,55.6 81.9,57.2 81.9,59.2 L81.9,61.7 Z" id="transport-taxi"></path>
        </g>
    </g>
</svg>