<?xml version="1.0" encoding="UTF-8"?>
<svg width="81px" height="81px" viewBox="0 0 81 81" version="1.1" xmlns="http://www.w3.org/2000/svg" xmlns:xlink="http://www.w3.org/1999/xlink">
    <!-- Generator: Sketch 61 (89581) - https://sketch.com -->
    <title>transport-airplane</title>
    <desc>Created with Sketch.</desc>
    <g id="Page-1" stroke="none" stroke-width="1" fill="none" fill-rule="evenodd">
        <g id="noun_Airplane_368767" transform="translate(-9.000000, 0.000000)" fill="#000000" fill-rule="nonzero">
            <path d="M83.2,0.8 L81.5,0.9 C80,1 78.7,1.5 77.6,2.5 L56.3,20.8 L17,16.3 C16,16.2 14.9,16.5 14.2,17.2 L10.2,21.2 C9,22.4 9.4,24.3 10.8,25 L38.7,39.3 L25.5,54.6 L14.9,55.1 C14.3,55.1 13.8,55.4 13.5,55.9 L12.6,57.1 C11.7,58.3 12.1,60 13.5,60.7 L24.5,66.1 L29.9,77.1 C30.6,78.5 32.3,78.9 33.5,78 L34.7,77.1 C35.1,76.8 35.4,76.2 35.5,75.7 L36,65 L51.3,51.7 L65.6,79.6 C66.3,81.1 68.3,81.4 69.4,80.2 L73.4,76.2 C74.1,75.5 74.5,74.4 74.3,73.4 L69.8,34.1 L88.2,12.9 C89.2,11.8 89.7,10.4 89.8,9 L89.9,7.3 C89.9,3.7 86.9,0.6 83.2,0.8 Z" id="transport-airplane"></path>
        </g>
    </g>
</svg>