<?xml version="1.0" encoding="UTF-8"?>
<svg width="32px" height="24px" viewBox="0 0 32 24" version="1.1" xmlns="http://www.w3.org/2000/svg" xmlns:xlink="http://www.w3.org/1999/xlink">
    <!-- Generator: Sketch 61 (89581) - https://sketch.com -->
    <title>weather</title>
    <desc>Created with Sketch.</desc>
    <g id="Page-1" stroke="none" stroke-width="1" fill="none" fill-rule="evenodd">
        <g id="LDNSTDM_Home_D_v1_Alternate" transform="translate(-844.000000, -2712.000000)" fill="#134273" fill-rule="nonzero">
            <g id="noun_weather_2168200" transform="translate(844.000000, 2712.000000)">
                <g id="Group">
                    <path d="M9.87534884,4.88924537 C11.4225889,4.88419581 12.8931884,5.56230558 13.8939535,6.74232558 C15.3178835,5.68889962 17.128136,5.30350854 18.8576744,5.6855814 C19.9196347,5.92774548 20.8877587,6.46937002 21.648594,7.24351797 L21.8344186,7.44186047 C22.815021,8.42489737 23.4362698,9.70933594 23.5981395,11.0883721 C24.6314931,10.8109866 25.7177804,10.8095669 26.7490323,11.0817709 L27.0288372,11.1627907 L27.2712255,11.2441026 C29.1110654,11.9051484 30.5193715,13.4252715 31.0325581,15.3227907 C31.54655,17.1746396 31.1637337,19.1603268 29.9981395,20.6883721 C28.9018847,22.1259013 27.2234551,22.9942511 25.4259227,23.0651221 L25.1683721,23.0698259 L9.89767442,23.0698259 C8.00376197,23.0756604 6.21636442,22.194355 5.06790698,20.6883721 C3.88210951,19.1643708 3.48239133,17.1712932 3.98883721,15.307907 C4.23125513,14.4233937 4.67724859,13.6078628 5.29116279,12.9265116 C4.79972342,12.1087503 4.54230061,11.1717312 4.54697674,10.2176744 C4.55107582,7.27659533 6.93426975,4.8934014 9.87534884,4.88924537 Z M18.5972093,7.15162791 C17.2198787,6.84244622 15.7766922,7.17654253 14.6753488,8.05953488 C13.6550222,8.87993823 13.0372537,10.0946208 12.9698695,11.3944329 L12.9637209,11.6390698 L12.9637209,12.1004651 C12.9905356,12.3684748 12.8704391,12.6300559 12.6497083,12.7844131 C12.4289775,12.9387703 12.142068,12.9618088 11.8995349,12.8446512 C11.2782665,12.5417497 10.5962915,12.3839794 9.90511628,12.3832558 C9.42318725,12.3836536 8.9440488,12.4564023 8.48372093,12.5990698 C7.02591439,13.0561117 5.90298175,14.226769 5.50697674,15.7023256 C5.10322454,17.1032627 5.37861978,18.6124286 6.25116279,19.7804651 C7.0668022,20.8515031 8.31019304,21.5048925 9.64617465,21.5751314 L9.89767442,21.5814582 L25.1683721,21.5814582 C26.5133973,21.5863932 27.7877141,20.9988432 28.6567671,19.9832973 L28.8148837,19.787907 C29.6993973,18.6213429 29.9912279,17.1153873 29.6037209,15.7097674 C29.2077159,14.2342108 28.0847833,13.0635536 26.6269767,12.6065116 C25.5000683,12.2440508 24.276875,12.3293279 23.2111628,12.8446512 C22.9686296,12.9618088 22.6817202,12.9387703 22.4609894,12.7844131 C22.2402586,12.6300559 22.1201621,12.3684748 22.1469767,12.1004651 C22.2703736,10.7419624 21.7660153,9.40157546 20.7776744,8.46139535 C20.2031934,7.81053745 19.441638,7.35308438 18.5972093,7.15162791 Z M3.98139535,11.8102326 C4.07718275,12.1716324 3.88994935,12.5419821 3.55528935,12.6849603 L3.46046512,12.7181395 L1.22790698,13.3134884 C0.967892335,13.3931988 0.685103218,13.324726 0.490352124,13.1349014 C0.295601031,12.9450768 0.219906729,12.6641345 0.292930456,12.4021633 C0.356826217,12.1729385 0.525679407,11.9901843 0.744333236,11.9067379 L0.840930233,11.8772093 L3.07348837,11.2818605 C3.46999404,11.1778793 3.87592804,11.4141196 3.98139535,11.8102326 Z M9.89767442,6.39255814 C7.79013867,6.38909423 6.07805306,8.08790786 6.05767442,10.1953488 C6.0595834,10.7907827 6.20239031,11.3773111 6.4744186,11.9069767 C6.95631353,11.5841067 7.48280707,11.3333954 8.0372093,11.1627907 C9.15239013,10.8185067 10.3427872,10.8004312 11.467907,11.1106977 C11.5729145,9.8869049 12.0479165,8.72405849 12.8297674,7.77674419 C12.1585376,6.95612196 11.175583,6.4585044 10.1239801,6.39864334 L9.89767442,6.39255814 L9.89767442,6.38511628 L9.89767442,6.39255814 Z M2.23442891,4.94655638 L2.33674419,5.00093023 L4.31627907,6.1544186 C4.65283914,6.3683691 4.7609155,6.8095976 4.56133449,7.15487274 C4.37989722,7.46875923 4.00283813,7.60189741 3.67028399,7.48462437 L3.57209302,7.44186047 L1.59255814,6.28837209 C1.35034167,6.16166485 1.19708838,5.91236366 1.19338873,5.63903261 C1.18968908,5.36570157 1.33613868,5.11234378 1.57483697,4.97912716 C1.74533576,4.88397242 1.94329427,4.86105621 2.12656569,4.90917241 L2.23442891,4.94655638 Z M14.8423146,1.66750271 C15.1562011,1.84893999 15.2893393,2.22599908 15.1720662,2.55855322 L15.1293023,2.65674419 L13.9832558,4.64372093 C13.8850596,4.81595513 13.7221961,4.94188621 13.5307934,4.9935789 C13.3393907,5.0452716 13.1352735,5.0184521 12.9637209,4.91906977 C12.7927485,4.81962569 12.6683968,4.65621049 12.6181294,4.46491523 C12.5779155,4.31187902 12.5877625,4.15107224 12.6445094,4.00549904 L12.695814,3.89953488 L13.8418605,1.91255814 C14.055811,1.57599807 14.4970395,1.46792171 14.8423146,1.66750271 Z M8.20303193,1.06853784 L8.23813953,1.16093023 L8.83348837,3.39348837 C8.92449278,3.78410102 8.68957826,4.17656704 8.30231464,4.2809075 C7.94732298,4.37655292 7.58138737,4.19855023 7.4323169,3.87285751 L7.3972093,3.78046512 L6.80186047,1.54790698 C6.71085605,1.15729433 6.94577058,0.764828307 7.3330342,0.660487849 C7.65252669,0.574406971 7.98088379,0.709981066 8.15203265,0.975386686 L8.20303193,1.06853784 Z" id="weather"></path>
                </g>
            </g>
        </g>
    </g>
</svg>