<?xml version="1.0" encoding="UTF-8"?><!DOCTYPE svg PUBLIC "-//W3C//DTD SVG 1.1//EN" "http://www.w3.org/Graphics/SVG/1.1/DTD/svg11.dtd"><svg xmlns="http://www.w3.org/2000/svg" xmlns:xlink="http://www.w3.org/1999/xlink"><symbol id="ico-mono-accessbility" viewBox="0 0 28 40">
    <path d="M6.203 20.316c2.463-.984 5.351-.984 7.814 0 .818.341 1.596.798 2.3 1.336l.21.164.283.281.458.385c1.316 1.098 4.149 3.333 6.572 3.934l1.104.253c1.605.375 2.32.63 2.521 1.427.19.797-.426 1.312-.994 1.875l-.382.324c-1.31 1.14-3.407 3.37-3.407 8.674 0 .562-.473 1.031-1.041 1.031a1.046 1.046 0 0 1-1.042-1.031c0-6.186 2.652-8.905 4.12-10.217-.427-.094-.9-.234-1.184-.281-1.231-.281-2.557-.89-3.789-1.64.285.937.427 1.921.427 2.952 0 1.5-.285 2.86-.805 4.124a9.771 9.771 0 0 1-2.179 3.234c-.9.89-1.989 1.594-3.22 2.11-1.184.515-2.51.749-3.883.749-1.326 0-2.651-.234-3.883-.75-1.23-.515-2.32-1.218-3.22-2.109-.9-.89-1.657-2.015-2.178-3.234A10.682 10.682 0 0 1 0 29.783c0-1.5.284-2.859.805-4.124a9.771 9.771 0 0 1 2.178-3.234c.9-.89 1.99-1.593 3.22-2.109zm3.836 1.219c-1.09 0-2.131.234-3.125.61a8.067 8.067 0 0 0-2.557 1.686c-.71.703-1.279 1.594-1.705 2.578a9.26 9.26 0 0 0-.616 3.327c0 1.219.19 2.344.616 3.328.396.914.914 1.747 1.554 2.424l.15.153c.71.75 1.61 1.313 2.558 1.688 1.941.796 4.309.796 6.25 0a8.067 8.067 0 0 0 2.557-1.688c.71-.703 1.279-1.593 1.705-2.577a9.26 9.26 0 0 0 .616-3.328c0-1.218-.19-2.343-.616-3.327s-.994-1.875-1.705-2.578l-.56-.464a1.274 1.274 0 0 1-.055-.051 7.371 7.371 0 0 0-1.942-1.172c-.994-.422-2.036-.61-3.125-.61zM7.577 10.803c2.036-.844 4.498-.844 6.582 0a8.786 8.786 0 0 1 2.534 1.622l.165.158c.805.75 1.42 1.688 1.847 2.719a6.355 6.355 0 0 0 1.243 1.93l.13.132c.568.61 1.231 1.03 2.036 1.359.758.328 1.61.469 2.51.469.568 0 1.042.468 1.042 1.03 0 .563-.474 1.032-1.042 1.032a8.705 8.705 0 0 1-3.315-.656 8.786 8.786 0 0 1-2.534-1.623l-.165-.158a7.656 7.656 0 0 1-1.76-2.514l-.087-.205a6.317 6.317 0 0 0-1.373-2.062c-.568-.609-1.231-1.03-2.036-1.359-1.563-.656-3.457-.656-5.02 0a6.714 6.714 0 0 0-2.036 1.36 6.317 6.317 0 0 0-1.373 2.061 6.896 6.896 0 0 0-.521 2.672c0 .562-.474 1.03-1.042 1.03-.568 0-.994-.421-.994-1.03 0-1.266.236-2.437.663-3.468.473-1.031 1.089-1.969 1.846-2.719a8.18 8.18 0 0 1 2.7-1.78zM13.685.35a4.782 4.782 0 0 1 3.599 0 4.478 4.478 0 0 1 1.468.985c.426.421.758.937.994 1.5a4.91 4.91 0 0 1 .38 1.874 4.91 4.91 0 0 1-.38 1.875 4.175 4.175 0 0 1-.994 1.5c-.426.421-.9.75-1.468.984-.568.234-1.184.328-1.8.328-.615 0-1.23-.094-1.799-.328a4.478 4.478 0 0 1-1.468-.985 4.175 4.175 0 0 1-.994-1.5 4.91 4.91 0 0 1-.379-1.874c0-.596.117-1.193.317-1.719l.062-.156c.237-.609.568-1.078.994-1.5.426-.421.9-.75 1.468-.984zm1.8 1.735c-.332 0-.663.046-.995.187a2.142 2.142 0 0 0-.805.516 2.658 2.658 0 0 0-.568.843 2.756 2.756 0 0 0-.237 1.078c0 .375.048.75.19 1.078.142.328.331.61.568.844.237.234.473.374.805.515.663.281 1.42.281 2.036 0 .284-.094.568-.281.805-.515.237-.235.426-.516.568-.844.142-.328.19-.656.19-1.078 0-.375-.048-.75-.19-1.078a2.658 2.658 0 0 0-.568-.843c-.237-.188-.474-.375-.805-.516-.284-.14-.616-.187-.994-.187z" fill-rule="nonzero"/>
</symbol><symbol id="ico-mono-arrow-right" viewBox="0 0 12 20">
    <path d="M8.41 10L0 18l2.103 2 9.462-9c.58-.552.58-1.448 0-2L2.103 0 0 2l8.41 8z" fill-rule="nonzero"/>
</symbol><symbol id="ico-mono-calendar" viewBox="0 0 32 31">
    <path d="M8.359 0a.7.7 0 0 0-.696.705V5.03A2.82 2.82 0 0 0 5.576 7.75c0 1.548 1.254 2.818 2.783 2.818 1.528 0 2.782-1.27 2.782-2.818a2.82 2.82 0 0 0-2.087-2.72V.706A.7.7 0 0 0 8.36 0zm15.304 0a.7.7 0 0 0-.696.705V5.03A2.82 2.82 0 0 0 20.88 7.75c0 1.548 1.255 2.818 2.783 2.818 1.529 0 2.783-1.27 2.783-2.818a2.82 2.82 0 0 0-2.087-2.72V.706A.7.7 0 0 0 23.663 0zM3.49 2.114C1.57 2.114 0 3.702 0 5.647v21.82C0 29.41 1.569 31 3.49 31h25.02c1.921 0 3.49-1.589 3.49-3.534V5.647c0-1.945-1.569-3.533-3.49-3.533h-2.075c-.368-.006-.707.332-.707.704 0 .372.34.71.707.705h2.076c1.172 0 2.098.937 2.098 2.124v6.33H1.39v-6.33c0-1.187.926-2.124 2.098-2.124h2.076c.368.005.707-.333.707-.705 0-.372-.34-.71-.707-.704H3.49zm7.641 0a.7.7 0 0 0-.695.704.7.7 0 0 0 .695.705h9.74a.7.7 0 0 0 .695-.705.7.7 0 0 0-.695-.704h-9.74zM8.36 6.34A1.39 1.39 0 0 1 9.75 7.75a1.39 1.39 0 0 1-1.391 1.41 1.39 1.39 0 0 1-1.392-1.41c0-.787.615-1.41 1.392-1.41zm15.304 0a1.39 1.39 0 0 1 1.391 1.409 1.39 1.39 0 0 1-1.39 1.41 1.39 1.39 0 0 1-1.392-1.41c0-.787.614-1.41 1.391-1.41zM1.391 13.386H30.61v14.08c0 1.188-.926 2.125-2.098 2.125H3.489c-1.172 0-2.098-.937-2.098-2.125v-14.08z" fill-rule="nonzero"/>
</symbol><symbol id="ico-mono-caret" viewBox="0 0 10 6">
    <path d="M1.562.633l-.943.943 4.243 4.243c.26.26.682.26.943 0l4.242-4.243-.942-.943-3.772 3.771-3.77-3.77z" fill-rule="nonzero"/>
</symbol><symbol id="ico-mono-clock" viewBox="0 0 32 32">
    <path d="M16 0c8.822 0 16 7.178 16 16s-7.178 16-16 16S0 24.822 0 16 7.178 0 16 0zm0 2C8.28 2 2 8.28 2 16c0 7.718 6.28 14 14 14 7.718 0 14-6.282 14-14 0-7.72-6.282-14-14-14zm5.706 18.292L17 15.586V7a1 1 0 0 0-2 0v9c0 .276.112.526.292.706l5 5a1 1 0 1 0 1.414-1.414z" fill-rule="nonzero"/>
</symbol><symbol id="ico-mono-email" viewBox="0 0 49 35">
    <g fill-rule="evenodd">
        <path d="M44.49 0c2.338 0 4.13 1.781 4.13 3.813v1.272l-5.402 3.813-19.067 13.029L5.402 8.897v26.059h-1.27C1.791 34.956 0 33.175 0 31.143V3.813C0 1.783 1.793.001 4.131 0l20.02 14.936L44.49 0z" fill-rule="nonzero"/>
        <path d="M48.62 5.085v26.058c-.092 2.737-1.316 3.765-5.402 3.813V8.898l5.403-3.813z" fill-rule="nonzero"/>
        <path d="M3.813 0h40.765v5.461H3.813z"/>
        <path d="M4.767 29.554h38.451v5.402H4.767z"/>
    </g>
</symbol><symbol id="ico-mono-experience" viewBox="0 0 40 40">
    <path d="M17.125 5.958c9.333 0 16.917 7.584 16.917 16.917 0 9.333-7.584 16.917-16.917 16.917-9.333 0-16.917-7.584-16.917-16.917 0-9.333 7.584-16.917 16.917-16.917zm0 2.917c-7.708 0-14 6.292-14 14s6.292 14 14 14 14-6.292 14-14-6.292-14-14-14zm7.787 13.94l.171-.023c.709-.125 1.459.166 2.042.708.417.458.625 1.042.542 1.667-.625 5.291-5.125 9.291-10.459 9.291-5.333 0-9.833-4-10.458-9.291-.042-.584.125-1.209.542-1.667a2.126 2.126 0 0 1 1.958-.708c1.417.208 4.5.375 7.917.375l1.156-.007c2.79-.03 5.281-.171 6.59-.344zm-.454 3.018c-1.75.209-4.416.292-7.333.292l-1.018-.005c-2.513-.025-4.771-.14-6.315-.287a7.545 7.545 0 0 0 7.333 5.709c3.5 0 6.5-2.417 7.333-5.709zm-.5-9.25c.917 0 1.792.334 2.459 1a1.459 1.459 0 0 1-1.042 2.5c-.328 0-.656-.095-.929-.315l-.113-.101a.555.555 0 0 0-.416-.167.558.558 0 0 0-.372.125l-.045.042c-.583.541-1.5.541-2 0a1.459 1.459 0 0 1 0-2.084c.667-.625 1.542-1 2.458-1zm-13.541 0c.916 0 1.791.334 2.458 1a1.459 1.459 0 0 1-1.042 2.5c-.328 0-.656-.095-.928-.315l-.113-.101a.555.555 0 0 0-.417-.167.555.555 0 0 0-.417.167c-.583.541-1.5.541-2 0a1.459 1.459 0 0 1 0-2.084c.667-.625 1.542-1 2.459-1zm23-16.375c.745 0 1.38.59 1.451 1.32l.007.139v3.458h3.458c.792 0 1.459.667 1.459 1.458 0 .745-.59 1.38-1.32 1.452l-.139.007h-3.458V11.5c0 .792-.667 1.458-1.458 1.458-.745 0-1.38-.59-1.452-1.32l-.007-.138V8.042H28.5a1.476 1.476 0 0 1-1.458-1.459c0-.745.59-1.38 1.32-1.451l.138-.007h3.458V1.667c0-.792.667-1.459 1.459-1.459z" fill-rule="nonzero"/>
</symbol><symbol id="ico-mono-food" viewBox="0 0 40 40">
    <path d="M12.5 0h4.174c.793 0 1.54.557 1.793 1.306l.042.143 1.275 5.217h19.389c.415 0 .769.319.82.73L40 7.5a.842.842 0 0 1-.724.827l-.103.006h-.924l-3.08 29.263c-.133 1.277-1.226 2.314-2.498 2.398l-.167.006H6.664c-1.674 0-3.391-1.195-4.013-2.763l-.07-.19-.811-2.434A3.338 3.338 0 0 1 0 31.659v-1.65a3.34 3.34 0 0 1 1.676-2.903c.267-5.767 6.356-10.298 13.807-10.436l.478-.003-.878-8.334h-.922a.835.835 0 0 1-.821-.728l-.007-.105c0-.412.316-.774.724-.827l.104-.006 3.908-.001-1.18-4.82c-.015-.064-.098-.14-.167-.168l-.048-.011H12.5a.833.833 0 0 1-.105-1.66L12.5 0h4.174H12.5zm24.074 8.333H16.759l.887 8.421c6.77.66 12.096 4.968 12.345 10.352a3.337 3.337 0 0 1 1.676 2.902v1.65a3.34 3.34 0 0 1-1.77 2.955l-.812 2.434c-.155.464-.407.9-.729 1.287h4.148c.45 0 .885-.363.99-.801l.018-.112 3.062-29.088zM28.01 34.999H3.655l.508 1.521c.31.93 1.36 1.725 2.338 1.807l.163.006h18.339c.962 0 2.054-.753 2.443-1.66l.058-.153L28.01 35zm-9.189-6.666H3.329c-.92 0-1.662.746-1.662 1.675v1.65c0 .93.743 1.675 1.662 1.675h25.009c.92 0 1.662-.746 1.662-1.674v-1.65c0-.93-.743-1.676-1.662-1.676h-.493l-3.922 3.923a.834.834 0 0 1-1.094.075l-.085-.075-3.923-3.923zm6.67 0h-4.313l2.16 2.16 2.153-2.16zm-9.658-10c-6.557 0-11.872 3.71-12.448 8.333h24.897c-.576-4.622-5.892-8.333-12.449-8.333z" fill-rule="nonzero"/>
</symbol><symbol id="ico-mono-info" viewBox="0 0 37 37">
    <path d="M17.414 29.68c-.322 0-.643-.12-.885-.321a1.357 1.357 0 0 1-.482-1.368l1.97-10.054-1.085.603c-.684.362-1.529.161-1.93-.523-.363-.683-.162-1.528.522-1.93l3.74-2.132a1.405 1.405 0 0 1 1.528.08c.443.323.644.886.563 1.408L19.305 25.9l1.688-.724c.724-.322 1.529 0 1.85.724.322.724 0 1.528-.723 1.85l-4.143 1.81c-.16.08-.362.12-.563.12zm3.982-19.223c.362-.362.603-.885.603-1.408 0-.523-.201-1.046-.603-1.408-.362-.362-.885-.603-1.408-.603-.523 0-1.046.201-1.408.603-.362.362-.603.885-.603 1.408 0 .523.201 1.046.603 1.408.362.361.885.603 1.408.603.523 0 1.046-.201 1.408-.603zM37 18.5C37 8.285 28.715 0 18.5 0S0 8.285 0 18.5 8.285 37 18.5 37 37 28.715 37 18.5zm-3.217 0c0 8.446-6.837 15.283-15.283 15.283S3.217 26.946 3.217 18.5 10.054 3.217 18.5 3.217 33.783 10.054 33.783 18.5z" fill-rule="nonzero"/>
</symbol><symbol id="ico-mono-location" viewBox="0 0 32 32">
    <path d="M27.733 19.2C30.471 20.587 32 22.436 32 24.427 32 28.657 24.96 32 16 32S0 28.658 0 24.427c0-1.991 1.529-3.84 4.302-5.227.427-.213.96-.036 1.21.391.212.427.035.96-.392 1.209-2.133 1.067-3.307 2.347-3.307 3.627C1.778 27.84 9.28 30.222 16 30.222s14.222-2.382 14.222-5.795c0-1.28-1.173-2.56-3.306-3.627-.427-.213-.605-.747-.392-1.209.214-.427.747-.604 1.21-.391zM16 0c6.044 0 10.951 4.907 10.951 10.951 0 3.662-1.813 7.609-5.262 11.378-2.56 2.809-5.085 4.551-5.191 4.622a.85.85 0 0 1-.498.178.891.891 0 0 1-.408-.087l-.253-.169c-1.377-.977-10.29-7.673-10.29-15.886C5.049 4.907 9.956 0 16 0zm0 1.778c-5.049 0-9.173 4.124-9.173 9.173 0 6.756 7.182 12.658 9.173 14.151l.482-.37c2.466-1.941 8.691-7.491 8.691-13.78 0-5.05-4.124-9.174-9.173-9.174zm0 3.484a5.311 5.311 0 0 1 5.298 5.298c0 2.916-2.382 5.262-5.298 5.262a5.311 5.311 0 0 1-5.298-5.298c0-2.915 2.382-5.262 5.298-5.262zm0 1.778a3.505 3.505 0 0 0-3.52 3.52A3.505 3.505 0 0 0 16 14.08a3.505 3.505 0 0 0 3.52-3.52A3.505 3.505 0 0 0 16 7.04z" fill-rule="nonzero"/>
</symbol><symbol id="ico-mono-logo" viewBox="0 0 82 68">
    <path d="M40.57 24.88c10.743 0 20.852 1.197 28.462 3.368 7.807 2.228 12.106 5.273 12.106 8.577 0 1.338-.695 2.635-2.066 3.86.36.78.541 1.579.541 2.378 0 .39-.046.79-.136 1.19-.482 3.825-1.333 10.363-1.557 10.925-1.329 3.316-5.84 6.334-12.707 8.498-6.828 2.153-15.58 3.338-24.644 3.338-9.072 0-17.832-1.187-24.665-3.345-6.87-2.17-11.378-5.192-12.693-8.513-.226-.57-1.112-7.304-1.62-11.27a6.031 6.031 0 0 1-.065-.824c0-.798.182-1.597.541-2.376C.695 39.46 0 38.162 0 36.825c0-3.304 4.3-6.35 12.106-8.577 7.61-2.171 17.72-3.367 28.463-3.367zM34.34 56.86c3.058 6.64 3.876 8.463 4.15 9.1a102.29 102.29 0 0 0 4.09 0c.271-.631 1.09-2.452 4.147-9.096a111.015 111.015 0 0 1-12.387-.004zm13.194.723a1381.272 1381.272 0 0 0-3.817 8.349 96.75 96.75 0 0 0 6.921-.458l-3.104-7.891zm-13.997 0l-3.104 7.886a97.11 97.11 0 0 0 6.92.46c-.676-1.504-2.333-5.12-3.816-8.346zm25.077-2.102a93.109 93.109 0 0 1-10.294 1.282l3.383 8.596c.957-.11 1.897-.233 2.821-.37.255-.632 1.043-2.492 4.09-9.508zm-36.163-.013c3.046 7.014 3.835 8.875 4.092 9.513a83.58 83.58 0 0 0 2.828.37l3.381-8.592c-3.598-.257-7.059-.69-10.3-1.291zm36.907.892a1517.866 1517.866 0 0 0-3.643 8.445 72.678 72.678 0 0 0 5.521-1.108L59.36 56.36zm-37.646 0l-1.874 7.323a73.17 73.17 0 0 0 5.512 1.112c-.665-1.57-2.174-5.062-3.487-8.089l-.15-.347zm46.244-3.287c-2.358.822-4.992 1.533-7.83 2.114l2.111 8.257a60.658 60.658 0 0 0 1.943-.543c.225-.62.932-2.492 3.776-9.828zm-54.852-.028c2.84 7.327 3.55 9.204 3.778 9.835.634.19 1.287.374 1.955.55l2.112-8.256c-2.829-.582-5.449-1.292-7.793-2.11l-.052-.02zm55.44 1.369a1818.9 1818.9 0 0 0-3.12 8.098 41.545 41.545 0 0 0 3.788-1.433l-.668-6.665zm-56.016.003l-.657 6.639c1.15.508 2.413.989 3.765 1.434-.63-1.665-1.942-5.06-3.108-8.073zm61.692-4.191c-1.368.827-2.987 1.605-4.826 2.317l.81 8.079c.301-.145.594-.291.88-.441.15-.518.711-2.335 3.136-9.955zm-67.386-.048c2.414 7.58 2.98 9.409 3.142 9.963.292.154.593.307.903.456l.8-8.077c-1.848-.721-3.474-1.506-4.845-2.342zm67.61 2.758a2019.87 2019.87 0 0 0-2.059 6.508 17.575 17.575 0 0 0 1.812-1.252l.246-5.256zm-67.8.05l.26 5.178c.522.419 1.114.832 1.766 1.232-.463-1.48-1.284-4.071-2.027-6.41zm70.915-2.054c-.575 2.02-1.153 4.055-1.554 5.478a6.658 6.658 0 0 0 .954-1.615c.057-.15.244-1.276.6-3.863zm-73.936.39c.41 2.912.52 3.383.547 3.455.2.502.486 1.003.858 1.498-.373-1.32-.886-3.126-1.405-4.952zM78.24 41.36c-2.068 1.529-5.164 2.887-9.208 4.04-7.609 2.173-17.718 3.368-28.463 3.368-10.745 0-20.854-1.195-28.463-3.367-4.045-1.154-7.14-2.513-9.207-4.041a4.573 4.573 0 0 0-.34 1.703c0 .139.01.277.022.416l.037.286c.498 3.089 4.361 6.048 10.878 8.323C20.718 54.61 30.333 56 40.57 56c10.237 0 19.852-1.39 27.073-3.912 6.285-2.194 10.13-5.046 10.822-8.03l.116-.94.001-.055c0-.565-.115-1.137-.34-1.703zM3.67 47.709c.955 3.354 1.6 5.624 2.036 7.163l-.285-5.641a13.748 13.748 0 0 1-1.752-1.522zm73.706.098c-.495.503-1.074.995-1.727 1.473l-.258 5.508c.43-1.522 1.061-3.741 1.985-6.981zM40.57 30.125c-10.234 0-19.849 1.389-27.073 3.912-5.129 1.792-8.619 3.995-10.117 6.382 1.952 1.487 5.06 2.863 9.01 3.99 7.52 2.144 17.527 3.326 28.18 3.326 10.652 0 20.661-1.182 28.181-3.326 3.951-1.128 7.06-2.505 9.01-3.99-1.499-2.387-4.989-4.591-10.118-6.382-7.222-2.523-16.838-3.912-27.073-3.912zm0 .883c8.564 0 17.667 1.837 17.667 5.241 0 3.063-7.76 5.463-17.667 5.463-9.906 0-17.667-2.4-17.667-5.463 0-3.404 9.103-5.24 17.667-5.24zm0 1.033c-10.71 0-16.634 2.488-16.634 4.208 0 1.851 6.328 4.431 16.634 4.431 10.307 0 16.635-2.58 16.635-4.43 0-1.72-5.924-4.209-16.635-4.209zm0-6.127c-10.652 0-20.659 1.182-28.18 3.327C5.173 31.3 1.033 34.064 1.033 36.825c0 .97.523 1.956 1.557 2.928 1.677-2.55 5.321-4.86 10.567-6.691 7.33-2.56 17.064-3.97 27.412-3.97 10.348 0 20.083 1.41 27.413 3.97 5.246 1.83 8.89 4.14 10.567 6.69 1.034-.972 1.557-1.956 1.557-2.927 0-2.761-4.14-5.525-11.356-7.584-7.522-2.145-17.53-3.327-28.18-3.327zM10.631 10.987c1.886 0 3.887.153 3.887.153l-.012 1.477h-3.938c-.658 0-.81.035-.81.586v.187c0 .293.14.363.556.445 0 0 2.57.434 3.026.516 1.38.234 1.722.738 1.722 1.828v1.02c0 1.465-.696 2.11-2.848 2.11-1.874 0-4.418-.165-4.418-.165l.011-1.477h4.166c.861 0 1.126-.14 1.126-.761v-.481c0-.234-.062-.433-.429-.492-.456-.094-2.368-.41-2.685-.457-1.493-.246-2.228-.363-2.228-1.723v-.715c0-1.465.735-2.062 2.874-2.051zm44.123.058v5.193c0 .645.306 1.5 1.078 1.5h1.57c.76 0 1.075-.855 1.075-1.5v-5.193h1.95v5.51c0 1.254-.873 2.718-2.52 2.718h-2.594c-1.647 0-2.52-1.464-2.52-2.718v-5.51h1.962zm-12.754 0c1.646 0 2.658 1.488 2.658 2.742v2.534c0 1.254-1.012 2.929-2.658 2.929h-4.988v-8.204zm7.688.001v8.204h-1.95v-8.204h1.95zm-25.114 0v1.523h-2.811v6.68h-1.95v-6.68h-2.822v-1.523h7.583zm41.477 0c.114 0 .14.106.14.106l2.178 5.367h.114l2.189-5.367s.026-.106.153-.106h2.557v8.204h-1.963v-4.922h-.113L69.47 19.11s-.038.14-.19.14h-1.697c-.152 0-.176-.14-.176-.14l-1.862-4.782h-.114v4.922h-1.95v-8.204zm-34.816 0c.393 0 .431.023.507.28.152.424 2.747 7.924 2.747 7.924h-2.178l-.658-2.016h-3.367l-.658 2.016h-2.165s2.594-7.5 2.734-7.923c.09-.258.127-.281.52-.281zm10.247 1.523h-2.52v5.158h2.52c.772 0 1.227-.926 1.227-1.804v-1.725c0-.88-.455-1.63-1.227-1.63zm-11.297-.07h-.418l-1.038 3.012h2.482L30.185 12.5zM58.496 0c1.728 0 2.646.934 2.646 2.21v3.901c0 1.265-.918 2.21-2.646 2.21h-2.912c-1.729 0-2.633-.945-2.633-2.21v-3.9c0-1.277.904-2.21 2.633-2.21zM22.441 0c1.735 0 2.657.934 2.657 2.21v3.901c0 1.265-.922 2.21-2.657 2.21h-2.924c-1.736 0-2.645-.945-2.645-2.21v-3.9c0-1.277.909-2.21 2.645-2.21zM9.668.024v6.69h4.278v1.584H7.758V.024h1.91zm57.488 0c.421 0 .421.047.533.189.062.107 3.386 4.48 3.721 4.987h.049V.024h1.923v8.273h-1.588c-.335 0-.434-.07-.608-.307l-3.572-4.787h-.074v5.095h-1.91V.024zm-20.594 0c1.612 0 2.604 1.495 2.604 2.76V5.35c0 1.265-.992 2.948-2.604 2.948h-4.887V.024zm-15.71 0c.422 0 .422.047.534.189.062.107 3.385 4.48 3.72 4.987h.05V.024h1.922v8.273h-1.587c-.335 0-.435-.07-.608-.307l-3.572-4.787h-.074v5.095h-1.91V.024zm27.086 1.512h-1.783c-.81 0-1.13.237-1.13.887V5.78c0 .65.32.981 1.13.981h1.783c.796 0 1.129-.33 1.129-.98V2.422c0-.65-.333-.887-1.129-.887zm-11.884.024h-2.469v5.2h2.469c.756 0 1.202-.926 1.202-1.812v-1.75c0-.887-.446-1.638-1.202-1.638zm-24.175-.024h-1.79c-.813 0-1.134.237-1.134.887V5.78c0 .65.32.981 1.135.981h1.789c.802 0 1.136-.33 1.136-.98V2.422c0-.65-.334-.887-1.136-.887z" fill-rule="evenodd"/>
</symbol><symbol id="ico-mono-news" viewBox="0 0 32 32">
    <path d="M2 0h21.333c1.082 0 1.921.79 1.995 1.847l.005.153v11.333h6c.364 0 .617.22.66.561L32 14v14a4.013 4.013 0 0 1-3.801 3.995L28 32H4.133c-2.198 0-4.02-1.755-4.128-3.928L0 27.867V2C0 .918.79.08 1.847.005L2 0h21.333H2zm21.333 1.333H2c-.364 0-.617.22-.66.561L1.333 2v25.867a2.819 2.819 0 0 0 2.631 2.795l.17.005H25l-.174-.208c-1.082-1.357-.88-2.627-.834-13.014L24 14V2c0-.364-.22-.617-.561-.66l-.106-.007zm7.334 13.334h-5.334V28c0 1.467 1.2 2.667 2.667 2.667 1.41 0 2.574-1.11 2.661-2.499l.006-.168V14.667zm-26 12h6.666c.4 0 .667.266.667.666 0 .364-.22.617-.561.66l-.106.007H4.667c-.4 0-.667-.267-.667-.667 0-.363.22-.617.561-.66l.106-.006h6.666-6.666zm9.333 0h6.667c.4 0 .666.266.666.666 0 .364-.22.617-.56.66l-.106.007H14c-.4 0-.667-.267-.667-.667 0-.363.22-.617.561-.66l.106-.006h6.667H14zm-9.333-4h6.666c.4 0 .667.266.667.666 0 .364-.22.617-.561.66l-.106.007H4.667c-.4 0-.667-.267-.667-.667 0-.363.22-.617.561-.66l.106-.006h6.666-6.666zm9.333 0h6.667c.4 0 .666.266.666.666 0 .364-.22.617-.56.66l-.106.007H14c-.4 0-.667-.267-.667-.667 0-.363.22-.617.561-.66l.106-.006h6.667H14zm-9.333-4h6.666c.4 0 .667.266.667.666 0 .364-.22.617-.561.66l-.106.007H4.667c-.4 0-.667-.267-.667-.667 0-.363.22-.617.561-.66l.106-.006h6.666-6.666zm9.333 0h6.667c.4 0 .666.266.666.666 0 .364-.22.617-.56.66l-.106.007H14c-.4 0-.667-.267-.667-.667 0-.363.22-.617.561-.66l.106-.006h6.667H14zm-9.333-4h6.666c.4 0 .667.266.667.666 0 .364-.22.617-.561.66l-.106.007H4.667c-.4 0-.667-.267-.667-.667 0-.363.22-.617.561-.66l.106-.006h6.666-6.666zm9.333 0h6.667c.4 0 .666.266.666.666 0 .364-.22.617-.56.66l-.106.007H14c-.4 0-.667-.267-.667-.667 0-.363.22-.617.561-.66l.106-.006h6.667H14zM4.667 4H10c.364 0 .617.22.66.561l.007.106v6.666c0 .364-.22.617-.561.66L10 12H4.667c-.364 0-.617-.22-.66-.561L4 11.333V4.667c0-.364.22-.617.561-.66L4.667 4H10 4.667zm4.666 1.333h-4v5.334h4V5.333zm4.667 2h6.667c.4 0 .666.267.666.667 0 .364-.22.617-.56.66l-.106.007H14c-.4 0-.667-.267-.667-.667 0-.364.22-.617.561-.66L14 7.333h6.667H14z" fill-rule="nonzero"/>
</symbol><symbol id="ico-mono-phone-call" viewBox="0 0 80 80">
    <path d="M72.267 70.222c3.377-3.466 3.377-8.089 0-11.466l-9.245-9.245c-1.6-1.689-3.555-2.578-5.689-2.578-2.044 0-4 .89-5.689 2.578l-5.333 5.333c-.444-.266-.889-.444-1.333-.71-.622-.267-1.156-.623-1.69-.89-4.977-3.11-9.51-7.288-13.777-12.533-2.133-2.667-3.555-4.889-4.533-7.2 1.333-1.244 2.666-2.578 3.91-3.822l1.423-1.422c1.689-1.69 2.667-3.734 2.667-5.778 0-2.045-.89-4-2.667-5.778l-4.533-4.622c-.534-.533-1.067-1.067-1.511-1.6a51.354 51.354 0 0 0-3.111-3.111c-1.6-1.6-3.556-2.49-5.6-2.49-2.045 0-4 .89-5.69 2.49L4.09 13.156C1.956 15.289.71 17.866.444 20.889.09 25.778 1.511 30.31 2.578 33.333c2.666 7.29 6.755 14.134 12.8 21.423 7.378 8.8 16.178 15.644 26.222 20.533 3.822 1.867 8.978 4 14.756 4.355h1.066c3.822 0 7.111-1.422 9.6-4.177l.09-.09c.888-1.066 1.866-2.044 2.932-3.021.8-.623 1.512-1.334 2.223-2.134zm-5.245-.978c-1.066 1.067-2.222 2.134-3.2 3.378-1.689 1.867-3.733 2.667-6.31 2.667h-.8c-4.979-.445-9.6-2.311-13.156-4-9.512-4.622-17.778-11.111-24.712-19.378-5.688-6.844-9.51-13.244-12.088-20.089-1.6-4.178-2.134-7.466-1.867-10.489.178-1.955.978-3.555 2.311-4.977l5.689-5.69c.8-.8 1.689-1.244 2.578-1.244 1.066 0 1.955.622 2.577 1.245 1.067.977 1.956 1.955 3.023 3.022l1.6 1.6 4.533 4.533c.889.89 1.333 1.778 1.333 2.667 0 .889-.444 1.778-1.333 2.667l-1.422 1.422C24.356 28 23.022 29.333 21.6 30.667l-.089.089c-1.422 1.422-1.155 2.844-.889 3.733 0 .089 0 .089.09.178 1.155 2.844 2.844 5.6 5.421 8.8 4.623 5.689 9.511 10.133 14.845 13.51.71.445 1.422.8 2.044 1.156.622.267 1.156.623 1.69.89.088 0 .088.088.177.088.533.267 1.067.445 1.6.445 1.333 0 2.222-.89 2.489-1.156l5.778-5.778c.533-.533 1.51-1.244 2.577-1.244s1.867.71 2.49 1.244l9.244 9.245c2.133 2.133 1.155 4.089-.09 5.333-.533.711-1.244 1.333-1.955 2.044zm-25.6-52.71c.178-1.245 1.334-2.045 2.578-1.778 5.333.888 10.133 3.377 13.956 7.288 3.822 3.912 6.31 8.712 7.288 13.956.178 1.244-.622 2.4-1.777 2.578h-.356c-1.067 0-2.044-.8-2.222-1.867-.711-4.355-2.845-8.444-6.045-11.555-3.2-3.2-7.2-5.245-11.555-6.045-1.333-.178-2.133-1.333-1.867-2.578zM75.2 36.088c-1.333-7.822-5.067-14.933-10.667-20.622-5.689-5.69-12.8-9.334-20.622-10.667-1.244-.178-2.044-1.333-1.778-2.578C42.4.978 43.467.178 44.711.444c8.622 1.423 16.622 5.512 22.933 11.823 6.312 6.31 10.49 14.31 11.912 23.022.177 1.244-.623 2.4-1.778 2.578h-.356c-1.066.089-2.044-.711-2.222-1.778z" fill-rule="nonzero"/>
</symbol><symbol id="ico-mono-play-btn" viewBox="0 0 60 60">
    <path d="M30 0C13.431 0 0 13.431 0 30c0 16.569 13.431 30 30 30 16.569 0 30-13.431 30-30A30 30 0 0 0 30 0zm9.605 30.812l-14.522 8.384a.937.937 0 0 1-1.407-.812V21.616a.938.938 0 0 1 1.407-.812l14.522 8.384a.937.937 0 0 1 0 1.624z" fill-rule="nonzero"/>
</symbol><symbol id="ico-mono-search" viewBox="0 0 24 24">
    <path d="M23.697 22.235l-6.089-6.075a9.885 9.885 0 0 0 2.224-6.252C19.832 4.437 15.385 0 9.903 0S0 4.462 0 9.933c0 5.47 4.446 9.907 9.928 9.907a9.809 9.809 0 0 0 6.24-2.218l6.089 6.075a1.008 1.008 0 0 0 1.44 0c.404-.428.404-1.058 0-1.462zM9.928 17.798c-4.345 0-7.882-3.53-7.882-7.865 0-4.336 3.537-7.866 7.882-7.866 4.346 0 7.883 3.53 7.883 7.866s-3.537 7.865-7.883 7.865z" fill-rule="nonzero"/>
</symbol><symbol id="ico-mono-seats" viewBox="0 0 60 26">
    <path d="M60 24v2H0v-2h60zM6.994 0h6.012a4 4 0 0 1 3.99 3.8L17 4v10.142a3.992 3.992 0 0 1-.8 7.853L16 22H4a3.992 3.992 0 0 1-1.2-7.801l.2-.057V4A4 4 0 0 1 6.795.005L6.994 0h6.012-6.012zm20 0h6.012a4 4 0 0 1 3.99 3.8L37 4v10.142a3.992 3.992 0 0 1-.8 7.853L36 22H24a3.992 3.992 0 0 1-1.2-7.801l.2-.057V4A4 4 0 0 1 26.795.005L26.994 0h6.012-6.012zm20 0h6.012a4 4 0 0 1 3.99 3.8L57 4v10.142a3.992 3.992 0 0 1-.8 7.853L56 22H44a3.992 3.992 0 0 1-1.2-7.801l.2-.057V4A4 4 0 0 1 46.795.005L46.994 0h6.012-6.012zM16 16H4a2 2 0 0 0-.15 3.995L4 20h12a2 2 0 0 0 .15-3.995L16 16zm20 0H24a2 2 0 0 0-.15 3.995L24 20h12a2 2 0 0 0 .15-3.995L36 16zm20 0H44a2 2 0 0 0-.15 3.995L44 20h12a2 2 0 0 0 .15-3.995L56 16zM13.006 2H6.994a2 2 0 0 0-1.989 1.851L5 4v10h10V4a2 2 0 0 0-1.845-1.994L13.006 2zm20 0h-6.012a2 2 0 0 0-1.989 1.851L25 4v10h10V4a2 2 0 0 0-1.845-1.994L33.006 2zm20 0h-6.012a2 2 0 0 0-1.989 1.851L45 4v10h10V4a2 2 0 0 0-1.845-1.994L53.006 2zM12 4v2H8V4h4zm20 0v2h-4V4h4zm20 0v2h-4V4h4z" fill-rule="nonzero"/>
</symbol><symbol id="ico-mono-seats2" viewBox="0 0 64 64">
    <path d="M8.764 33.695h2.133c4.116 0 7.48 3.286 7.61 7.376l.005.247v8.22h.358c.4 0 .731.297.783.683l.007.107v1.689h2.038v-1.69c0-.399.297-.73.683-.782l.107-.007h.36v-8.22c0-4.121 3.282-7.489 7.368-7.62l.246-.003h2.133c4.117 0 7.48 3.286 7.611 7.376l.004.247v8.22h.359c.4 0 .73.297.783.683l.007.107v1.689h2.038v-1.69c0-.399.297-.73.682-.782l.108-.007h.359v-8.22c0-4.121 3.283-7.489 7.368-7.62l.246-.003h2.133c4.117 0 7.48 3.286 7.611 7.376l.004.247v8.22h.359c.4 0 .73.297.783.683l.007.107v4.012a2.683 2.683 0 0 1-2.51 2.675l-.17.005h-6.36v4.672h8.535a.79.79 0 0 1 .107 1.573l-.107.007H.84A.79.79 0 0 1 .733 61.7l.107-.007h8.2V57.02H2.68a2.684 2.684 0 0 1-2.675-2.51L0 54.34v-4.012c0-.4.297-.73.683-.783l.107-.007h.359v-8.22c0-4.121 3.283-7.489 7.369-7.62l.246-.003h2.133-2.133zm34.633 19.902h-2.038v.743a2.683 2.683 0 0 1-2.51 2.675l-.17.005h-6.36v4.672h20.118V57.02h-6.36a2.684 2.684 0 0 1-2.675-2.51l-.005-.17v-.743zm-21.699 0H19.66v.743a2.683 2.683 0 0 1-2.51 2.675l-.17.005h-6.36v4.672h20.118V57.02h-6.36a2.684 2.684 0 0 1-2.674-2.51l-.006-.17v-.743zm39.779-2.479h-16.5v3.222c0 .566.43 1.034.98 1.094l.12.006h14.3c.566 0 1.034-.43 1.093-.98l.007-.12v-3.222zm-21.698 0h-16.5v3.222c0 .566.43 1.034.98 1.094l.12.006h14.3c.566 0 1.033-.43 1.093-.98l.007-.12v-3.222zm-21.699 0H1.58v3.222c0 .566.43 1.034.98 1.094l.12.006h14.3c.567 0 1.034-.43 1.094-.98l.006-.12v-3.222zm36.213-15.843H52.16c-3.252 0-5.91 2.589-6.03 5.816l-.004.227v8.22h14.202v-8.22a6.046 6.046 0 0 0-5.809-6.039l-.226-.004zm-21.698 0h-2.133c-3.252 0-5.911 2.589-6.03 5.816l-.005.227v8.22H38.63v-8.22a6.046 6.046 0 0 0-5.81-6.039l-.225-.004zm-21.698 0H8.764c-3.252 0-5.911 2.589-6.03 5.816l-.005.227v8.22h14.202v-8.22a6.046 6.046 0 0 0-5.808-6.039l-.226-.004zM8.764 0h2.133c4.116 0 7.48 3.287 7.61 7.376l.005.247v8.22h.358c.4 0 .731.297.783.683l.007.107v1.688h2.038v-1.688c0-.4.297-.73.683-.783l.107-.007h.36v-8.22c0-4.121 3.282-7.489 7.368-7.62L30.462 0h2.133c4.117 0 7.48 3.287 7.611 7.376l.004.247v8.22h.359c.4 0 .73.297.783.683l.007.107v1.688h2.038v-1.688c0-.4.297-.73.682-.783l.108-.007h.359v-8.22c0-4.121 3.283-7.489 7.368-7.62L52.16 0h2.133c4.117 0 7.48 3.287 7.611 7.376l.004.247v8.22h.359c.4 0 .73.297.783.683l.007.107v4.012a2.683 2.683 0 0 1-2.51 2.675l-.17.006h-6.36v4.671h8.535a.79.79 0 0 1 .107 1.573l-.107.008H.84a.79.79 0 0 1-.107-1.573l.107-.008h8.2v-4.671H2.68a2.684 2.684 0 0 1-2.675-2.511L0 20.645v-4.012c0-.4.297-.73.683-.783l.107-.007h.359v-8.22c0-4.121 3.283-7.489 7.369-7.62L8.764 0h2.133-2.133zm34.633 19.902h-2.038v.743a2.683 2.683 0 0 1-2.51 2.675l-.17.006h-6.36v4.671h20.118v-4.671h-6.36a2.684 2.684 0 0 1-2.675-2.511l-.005-.17v-.743zm-21.699 0H19.66v.743a2.683 2.683 0 0 1-2.51 2.675l-.17.006h-6.36v4.671h20.118v-4.671h-6.36a2.684 2.684 0 0 1-2.674-2.511l-.006-.17v-.743zm39.779-2.479h-16.5v3.222c0 .566.43 1.034.98 1.094l.12.006h14.3c.566 0 1.034-.43 1.093-.98l.007-.12v-3.222zm-21.698 0h-16.5v3.222c0 .566.43 1.034.98 1.094l.12.006h14.3c.566 0 1.033-.43 1.093-.98l.007-.12v-3.222zm-21.699 0H1.58v3.222c0 .566.43 1.034.98 1.094l.12.006h14.3c.567 0 1.034-.43 1.094-.98l.006-.12v-3.222zM54.293 1.58H52.16c-3.252 0-5.91 2.59-6.03 5.817l-.004.226v8.22h14.202v-8.22a6.046 6.046 0 0 0-5.809-6.039l-.226-.004zm-21.698 0h-2.133c-3.252 0-5.911 2.59-6.03 5.817l-.005.226v8.22H38.63v-8.22a6.046 6.046 0 0 0-5.81-6.039l-.225-.004zm-21.698 0H8.764c-3.252 0-5.911 2.59-6.03 5.817l-.005.226v8.22h14.202v-8.22a6.046 6.046 0 0 0-5.808-6.039l-.226-.004z" fill-rule="nonzero"/>
</symbol><symbol id="ico-mono-social-facebook" viewBox="0 0 24 24">
    <path d="M12.82 24H1.324A1.325 1.325 0 0 1 0 22.675V1.325C0 .593.593 0 1.325 0h21.35C23.407 0 24 .593 24 1.325v21.35c0 .732-.593 1.325-1.325 1.325H16.56v-9.294h3.12l.466-3.622H16.56V8.77c0-1.048.29-1.763 1.795-1.763h1.918v-3.24c-.332-.045-1.47-.143-2.795-.143-2.766 0-4.659 1.688-4.659 4.788v2.67H9.692v3.623h3.127V24z" fill-rule="evenodd"/>
</symbol><symbol id="ico-mono-social-google" viewBox="0 0 24 25">
    <path d="M12.169 10.025v4.95s4.675-.006 6.578-.006c-1.03 3.21-2.633 4.957-6.578 4.957-3.993 0-7.109-3.325-7.109-7.426s3.116-7.426 7.109-7.426c2.11 0 3.474.762 4.724 1.825 1.001-1.029.918-1.175 3.464-3.646C18.195 1.233 15.322 0 12.17 0 5.449 0 0 5.596 0 12.5 0 19.403 5.448 25 12.169 25c10.045 0 12.5-8.985 11.686-14.975H12.17z" fill-rule="evenodd"/>
</symbol><symbol id="ico-mono-social-instagram" viewBox="0 0 24 24">
    <path d="M13.41.001c2.01.005 2.471.023 3.538.071 1.277.058 2.15.261 2.912.558.79.307 1.459.717 2.126 1.384A5.883 5.883 0 0 1 23.37 4.14c.297.763.5 1.635.558 2.912C23.986 8.332 24 8.741 24 12v.317c-.001 2.97-.016 3.393-.072 4.63-.058 1.278-.261 2.15-.558 2.913a5.883 5.883 0 0 1-1.384 2.126 5.883 5.883 0 0 1-2.126 1.384c-.763.297-1.635.5-2.912.558-1.28.058-1.689.072-4.948.072h-.317c-2.97-.001-3.393-.016-4.63-.072-1.278-.058-2.15-.261-2.913-.558a5.883 5.883 0 0 1-2.126-1.384A5.882 5.882 0 0 1 .63 19.86c-.297-.763-.5-1.635-.558-2.912-.048-1.067-.066-1.529-.07-3.539v-2.818c.004-2.01.022-2.472.07-3.539C.13 5.775.333 4.902.63 4.14a5.882 5.882 0 0 1 1.384-2.126A5.882 5.882 0 0 1 4.14.63C4.903.333 5.775.13 7.052.072 8.12.024 8.581.006 10.591.002zm-.53 2.162h-1.76c-2.409.002-2.83.017-3.969.07-1.17.052-1.805.248-2.228.412-.56.218-.96.478-1.38.898-.42.42-.68.82-.898 1.38-.164.423-.36 1.058-.413 2.228-.052 1.139-.067 1.56-.07 3.969v1.76c.003 2.409.018 2.83.07 3.969.053 1.17.249 1.805.413 2.228.218.56.478.96.898 1.38.42.42.82.68 1.38.898.423.164 1.058.36 2.228.413 1.265.058 1.645.07 4.849.07s3.584-.012 4.849-.07c1.17-.053 1.805-.249 2.228-.413.56-.218.96-.478 1.38-.898.42-.42.68-.82.898-1.38.164-.423.36-1.058.413-2.228.058-1.265.07-1.645.07-4.849s-.012-3.584-.07-4.849c-.053-1.17-.249-1.805-.413-2.228a3.717 3.717 0 0 0-.898-1.38c-.42-.42-.82-.68-1.38-.898-.423-.164-1.058-.36-2.228-.413-1.139-.052-1.56-.067-3.969-.07zM12 5.838a6.162 6.162 0 1 1 0 12.324 6.162 6.162 0 0 1 0-12.324zM12 8a4 4 0 1 0 0 8 4 4 0 0 0 0-8zm6.406-3.846a1.44 1.44 0 1 1 0 2.88 1.44 1.44 0 0 1 0-2.88z" fill-rule="evenodd"/>
</symbol><symbol id="ico-mono-social-linkedin" viewBox="0 0 24 22">
    <path d="M18.063 6.912c3.325 0 5.937 2.15 5.937 6.778V22h-5.304v-7.734c0-2.024-.83-3.406-2.655-3.406-1.395 0-2.171.933-2.532 1.831-.136.323-.115.772-.115 1.222V22H8.14s.068-13.7 0-14.945h5.255V9.4c.31-1.025 1.99-2.488 4.67-2.488zm-12.78.143V22H.605V7.055h4.678zM2.857 0c1.726 0 2.787 1.116 2.821 2.591 0 1.448-1.095 2.595-2.853 2.595H2.79C1.098 5.186 0 4.044 0 2.596 0 1.117 1.13 0 2.857 0z" fill-rule="evenodd"/>
</symbol><symbol id="ico-mono-social-twitter" viewBox="0 0 24 20">
    <path d="M24 2.368a9.617 9.617 0 0 1-2.827.794A5.038 5.038 0 0 0 23.338.37a9.698 9.698 0 0 1-3.129 1.223A4.856 4.856 0 0 0 16.616 0c-2.718 0-4.922 2.26-4.922 5.049 0 .396.042.78.126 1.15C7.728 5.988 4.1 3.979 1.67.922a5.14 5.14 0 0 0-.666 2.54c0 1.751.87 3.297 2.19 4.203a4.834 4.834 0 0 1-2.23-.63v.062c0 2.447 1.697 4.488 3.95 4.95a4.695 4.695 0 0 1-1.296.178c-.317 0-.627-.03-.927-.09.626 2.006 2.444 3.466 4.599 3.505A9.722 9.722 0 0 1 0 17.733 13.71 13.71 0 0 0 7.548 20c9.058 0 14.01-7.692 14.01-14.365 0-.22-.005-.439-.013-.654.962-.712 1.797-1.6 2.455-2.613" fill-rule="evenodd"/>
</symbol><symbol id="ico-mono-social-youtube" viewBox="0 0 24 17">
    <path d="M9.522 11.635V4.844l6.484 3.407-6.484 3.384zM23.76 3.667s-.235-1.665-.954-2.399C21.893.305 20.87.301 20.401.245 17.043 0 12.005 0 12.005 0h-.01S6.957 0 3.599.245c-.47.056-1.492.06-2.406 1.023-.719.734-.953 2.4-.953 2.4S0 5.622 0 7.577v1.835c0 1.956.24 3.912.24 3.912s.234 1.665.953 2.399c.914.963 2.113.932 2.647 1.033C5.76 16.943 12 17 12 17s5.043-.008 8.401-.252c.47-.057 1.492-.061 2.405-1.024.72-.734.954-2.4.954-2.4S24 11.37 24 9.414V7.579c0-1.956-.24-3.912-.24-3.912z" fill-rule="evenodd"/>
</symbol><symbol id="ico-mono-stadium" viewBox="0 0 40 25">
    <path d="M14.961 0l-1.477.138.497 5.508c-1.964.282-3.889.69-5.743 1.236l-.993-5.016-1.45.294L6.82 7.334a35.395 35.395 0 0 0-4.132 1.68l-1.25-3.368-1.39.524 5.406 14.555H0v1.49h40v-1.49h-5.448L39.956 6.17l-1.389-.524-1.246 3.358a34.324 34.324 0 0 0-4.126-1.707L34.21 2.16l-1.45-.294-.986 4.982a39.383 39.383 0 0 0-5.75-1.237l.492-5.473L25.045 0l-.49 5.42a42.976 42.976 0 0 0-4.765-.228 43.558 43.558 0 0 0-4.338.26L14.962 0zM19.8 6.716a41.806 41.806 0 0 1 4.62.219l-.64 7.1a61.623 61.623 0 0 0-3.946-.11c-1.206.006-2.409.05-3.609.125l-.636-7.084a42.336 42.336 0 0 1 4.21-.25zm6.089.405c1.903.267 3.775.67 5.592 1.211l-1.275 6.43a62.014 62.014 0 0 0-4.95-.618l.633-7.023zm-11.77.037l.63 7.007a64.534 64.534 0 0 0-4.945.618l-1.27-6.417a39.708 39.708 0 0 1 5.585-1.208zM32.9 8.776a32.284 32.284 0 0 1 3.898 1.636l-1.966 5.297a64.104 64.104 0 0 0-3.166-.693l1.234-6.24zm-25.787.04l1.231 6.221a69.075 69.075 0 0 0-3.169.678L3.209 10.42a33.222 33.222 0 0 1 3.904-1.604zM19.84 15.42c1.264-.005 2.532.03 3.803.105l-.47 5.2h-6.349l-.466-5.184a60.656 60.656 0 0 1 3.482-.121zm5.281.215a60.83 60.83 0 0 1 4.792.596l-.89 4.494h-4.36l.458-5.09zm-10.238.019l.457 5.071h-4.36l-.887-4.475a63.159 63.159 0 0 1 4.79-.596zm16.491.831c.976.186 1.954.404 2.933.64l-1.336 3.6h-2.435l.838-4.24zm-22.74.02l.834 4.22H7.034L5.7 17.13c.977-.23 1.955-.44 2.935-.624zM0 23.503V25h40v-1.497H0z" fill-rule="evenodd"/>
</symbol><symbol id="ico-mono-tickets" viewBox="0 0 32 38">
    <path d="M30.437 15.974l1.078 1.083.485.487-.485.487-19.394 19.482-.485.487-.484-.487-2.667-2.679L8 34.347l.485-.487a3.1 3.1 0 0 0 .831-1.506l1.065 1.07a4.488 4.488 0 0 1-.352.66l-.143.21 1.75 1.758L24 23.632l-.593-.596.97-.974.593.596 5.09-5.114-.593-.596.97-.974zM20.364 0l.484.487 2.667 2.679.485.487-.485.487a3.1 3.1 0 0 0 0 4.383 3.065 3.065 0 0 0 4.364 0l.485-.487.484.487 2.667 2.68.485.486-.485.487-19.394 19.482-.485.487-.484-.487-2.667-2.679L8 28.492l.485-.487a3.1 3.1 0 0 0 0-4.383 3.066 3.066 0 0 0-4.364 0l-.485.487-.484-.487-2.667-2.679L0 20.456l.485-.487L19.879.487 20.364 0zm-6.061 8.036L1.939 20.456l1.743 1.75c1.74-1.276 4.203-1.135 5.773.442 1.57 1.576 1.702 4.042.431 5.791l1.75 1.758L24 17.777l-9.697-9.74zM1.649 24.653l.97.974-.68.684 1.743 1.75c.273-.2.564-.365.866-.496l1.073 1.076c-.48.11-.94.337-1.335.681l-.165.155-.485.487-.484-.487-2.667-2.68L0 26.312l.485-.487 1.164-1.17zM20.364 1.948l-5.091 5.114 9.697 9.741 5.09-5.114-1.75-1.758c-1.74 1.276-4.195 1.143-5.765-.434-1.57-1.576-1.71-4.05-.439-5.798l-1.742-1.75z" fill-rule="nonzero"/>
</symbol><symbol id="ico-mono-transport-airplane" viewBox="0 0 81 81">
    <path d="M74.2.8l-1.7.1c-1.5.1-2.8.6-3.9 1.6L47.3 20.8 8 16.3c-1-.1-2.1.2-2.8.9l-4 4C0 22.4.4 24.3 1.8 25l27.9 14.3-13.2 15.3-10.6.5c-.6 0-1.1.3-1.4.8l-.9 1.2c-.9 1.2-.5 2.9.9 3.6l11 5.4 5.4 11c.7 1.4 2.4 1.8 3.6.9l1.2-.9c.4-.3.7-.9.8-1.4L27 65l15.3-13.3 14.3 27.9c.7 1.5 2.7 1.8 3.8.6l4-4c.7-.7 1.1-1.8.9-2.8l-4.5-39.3 18.4-21.2c1-1.1 1.5-2.5 1.6-3.9l.1-1.7c0-3.6-3-6.7-6.7-6.5z" fill-rule="nonzero"/>
</symbol><symbol id="ico-mono-transport-bike" viewBox="0 0 96 62">
    <path d="M77 24.1c-.7 0-1.3 0-2 .1l-6.5-22C68.1.9 67 0 65.6 0h-9.1c-1.7 0-3.1 1.4-3.1 3.1 0 1.7 1.4 3.1 3.1 3.1h6.8l2.4 8.1H35l1.7-4.6c.4-.9.2-2-.3-2.8-.6-.8-1.5-1.3-2.5-1.3H23.6c-1.7 0-3.1 1.4-3.1 3.1 0 1.7 1.4 3.1 3.1 3.1h5.8l-1.7 4.5-3.9 8.6c-1.5-.4-3.2-.6-4.8-.6-10.5-.2-19 8.3-19 18.8S8.5 62 18.9 62c9.9 0 18.1-7.7 18.9-17.4h6.9c.9 0 1.7-.4 2.3-1.1l20.3-23.7 1.8 6C62.6 28.8 58 35.4 58 43c.1 10.5 8.6 19 19 19s19-8.5 19-18.9c0-10.4-8.5-19-19-19zM18.9 55.9c-7.1 0-12.8-5.8-12.8-12.8 0-7.1 5.8-12.8 12.8-12.8.8 0 1.5.1 2.2.2l-4.5 9.8c-.4.9-.4 2.1.2 2.9.6.9 1.5 1.4 2.6 1.4h12.2c-.7 6.3-6.1 11.3-12.7 11.3zm12-17.4h-6.7l2.5-5.5c1.9 1.3 3.4 3.3 4.2 5.5zm12.4 0h-6c-1.2-4.7-4-8.6-7.9-11.2l3.1-6.9h26.3L43.3 38.5zM77 55.9c-7.1 0-12.8-5.8-12.8-12.8 0-4.9 2.7-9.1 6.7-11.3l3.7 12.7c.4 1.3 1.6 2.2 2.9 2.2.3 0 .6 0 .9-.1 1.6-.5 2.5-2.2 2.1-3.8l-3.7-12.5h.2c7.1 0 12.8 5.8 12.8 12.8 0 7-5.7 12.8-12.8 12.8z" fill-rule="nonzero"/>
</symbol><symbol id="ico-mono-transport-bus" viewBox="0 0 85 91">
    <path d="M84 26.2c0-1.3-.6-2.3-1.7-3-.2-.1-.5-.3-.7-.4 0-3.3-.1-6.7-.3-10.1C80.9 4.9 76.8 1.1 69.1 1H49c-10.9 0-21.7-.1-32.6.1-10 .2-14 4.4-14 14.4v7.3c-.6.2-1.1.7-1.5 1.2-.7.6-.9 1.5-.9 2.5v13.9c0 1.4.5 2.5 1.7 3.2.3.2.5.3.8.4v29.6c0 1.4-.2 3 .5 4.2 1.5 2.4 1.2 5 1.3 7.6.1 3.2 2.2 5.4 5.4 5.5 2.3.1 4.6.1 6.9 0 3.3-.1 5.4-2 5.5-5.3.1-1.4.3-1.9 1.9-1.9 12 .1 24.1.1 36.1 0 1.5 0 1.9.4 1.9 1.9.1 3.5 2.2 5.3 5.7 5.3h6c4.1 0 6.1-2.1 6.2-6.2 0-1.6-.5-3.4.4-4.9 1.1-2 1.4-4 1.4-6.2V44c.7-.1 1.3-.7 1.7-1.3.5-.6.7-1.4.7-2.2-.1-4.7-.1-9.5-.1-14.3zm-58.7-18h35.4c2.6 0 2.9.4 3 3.4 0 3.3-.3 3.8-2.8 3.8H25.3c-2.6 0-3.1-.6-3.1-3.6-.1-3 .4-3.6 3.1-3.6zm-7.5 66.6c-3.5 0-6.4-2.9-6.4-6.4.1-3.4 3-6.2 6.3-6.2 3.5 0 6.1 2.7 6.1 6.3.1 3.5-2.6 6.3-6 6.3zm-.9-21.6c-3.8 0-5.5-1.8-5.5-5.7v-21c0-3.9 1.6-5.5 5.5-5.5h49.7c4.4 0 5.9 1.5 5.9 5.8v20.1c0 4-2.2 6.2-6.2 6.3H16.9zm49.4 21.6c-3.4 0-6.1-2.7-6.2-6.2 0-3.6 2.6-6.3 6.1-6.3 3.5 0 6.4 2.9 6.4 6.4-.1 3.2-2.9 6.1-6.3 6.1z" fill-rule="nonzero"/>
</symbol><symbol id="ico-mono-transport-car" viewBox="0 0 790 597">
    <g fill-rule="evenodd">
        <path d="M131 203c16-35 31-71 51-111 11-19 23-36 45-38h337c22 2 34 19 45 38 20 40 35 76 51 111H131zm158 144h212c13 0 23 11 23 24 0 12-10 23-23 23H289c-12 0-23-11-23-23 0-13 11-24 23-24zM227 0c-36 0-58 13-88 55L89 168H13c-12 0-34 62 46 64l-27 65c1 83 1 165 1 247 0 17 14 31 31 31h104c17 0 30-14 30-31v-68h394v68c0 17 14 31 31 31h104c17 0 30-14 30-31 0-82 1-164 1-247l-27-65c81-2 58-64 47-64h-76L652 55c-30-42-52-55-88-55H227zm418 303c-27 0-50 22-50 50 0 27 23 50 50 50 28 0 50-23 50-50 0-28-22-50-50-50zm-499 0c27 0 50 22 50 50 0 27-23 50-50 50-28 0-50-23-50-50 0-28 22-50 50-50z"/>
        <text font-family="Helvetica-Bold, Helvetica" font-size="5" font-weight="bold">
            <tspan x="1" y="590">Created by Cho Nix</tspan>
        </text>
        <text font-family="Helvetica-Bold, Helvetica" font-size="5" font-weight="bold">
            <tspan x="1" y="595">from the Noun Project</tspan>
        </text>
    </g>
</symbol><symbol id="ico-mono-transport-taxi" viewBox="0 0 96 92">
    <path d="M93.2 37.6h-6.9L79 17.2c-1-2.9-3.6-5-6.6-5.3-3.2-.3-6.4-.5-9.6-.7v-7C62.8 2 61 .3 58.9.3H37.2c-2.2 0-3.9 1.8-3.9 3.9v7c-3.2.2-6.4.4-9.6.7-3.1.3-5.6 2.3-6.6 5.3L9.8 37.6h-7c-1.3 0-2.3 1-2.3 2.3v5.4c0 1.3 1 2.3 2.3 2.3h3.3c-.7 2-1.1 4.1-1.1 6.2v19.7c0 1.7 1.1 3.1 2.6 3.6V88c0 2.1 1.7 3.7 3.7 3.7h7.9c2.1 0 3.7-1.7 3.7-3.7V77.2h49.9V88c0 2.1 1.7 3.7 3.7 3.7h7.9c2.1 0 3.7-1.7 3.7-3.7V77.1c.9-.3 1.6-.9 2.1-1.8.3-.6.5-1.2.5-1.9V53.9c0-2.1-.4-4.2-1.1-6.2h3.3c1.3 0 2.3-1 2.3-2.3V40c.3-1.4-.7-2.4-2-2.4zM56.6 3.1h2.9c.2 0 .3.1.3.3v2.8h-3.3V3.1h.1zm0 6.3h-3.4V6.3h3.4v3.1zm-6.9-6.3h3.4v3.1h-3.4V3.1zm0 6.3h-3.4V6.3h3.4v3.1zm-6.8-6.3h3.4v3.1h-3.4V3.1zm-6.8.3c0-.2.1-.3.3-.3h2.9v3.1H36V3.4h.1zm6.7 2.8v3.1h-3.4V6.2h3.4zM25.7 21.3c7.4-.7 14.9-1 22.3-1s14.9.3 22.3 1l7.1 19.8H18.6l7.1-19.8zm6.5 40.4c0 2-1.6 3.6-3.6 3.6h-8.9c-2 0-3.6-1.6-3.6-3.6v-2.5c0-2 1.6-3.6 3.6-3.6h8.9c2 0 3.6 1.6 3.6 3.6v2.5zm47.7 0c0 2-1.6 3.6-3.6 3.6h-8.9c-2 0-3.6-1.6-3.6-3.6v-2.5c0-2 1.6-3.6 3.6-3.6h8.9c2 0 3.6 1.6 3.6 3.6v2.5z" fill-rule="nonzero"/>
</symbol><symbol id="ico-mono-transport-train" viewBox="0 0 39 48">
    <path d="M24.44 0c5.805 0 10.583 4.632 10.583 10.307v17.905c0 2.653-2.228 4.804-4.922 4.804l8.708 13.27c.347.477.204 1.23-.293 1.551-.496.322-1.247.148-1.549-.358l-2.22-3.373H4.254l-2.22 3.373c-.302.507-1.052.68-1.55.358-.496-.322-.64-1.074-.292-1.55L8.9 33.016c-2.698 0-4.922-2.153-4.922-4.804V10.307C3.977 4.632 8.755 0 14.561 0zm5.97 37.48H8.59L5.68 41.925H33.32l-2.908-4.447zm-2.925-4.464h-15.97l-1.497 2.283h18.964l-1.497-2.283zM24.44 2.18h-9.878c-4.626 0-8.38 3.662-8.38 8.126v17.905c0 1.443 1.201 2.623 2.718 2.623h21.202c1.51 0 2.72-1.182 2.72-2.623V10.307c0-4.464-3.756-8.126-8.382-8.126zM11.205 22.658c1.578 0 2.874 1.283 2.874 2.845 0 1.56-1.296 2.845-2.874 2.845-1.575 0-2.874-1.282-2.874-2.845 0-1.566 1.3-2.845 2.874-2.845zm16.59 0c1.575 0 2.874 1.283 2.874 2.845 0 1.56-1.299 2.845-2.874 2.845-1.577 0-2.874-1.286-2.874-2.845 0-1.562 1.297-2.845 2.874-2.845zM21.6 24.48c.577-.002 1.104.518 1.104 1.09 0 .572-.527 1.09-1.104 1.09h-4.182c-.577.032-1.13-.46-1.162-1.03-.032-.571.464-1.12 1.041-1.15zM19.5 4.497c2.43.005 4.85.32 6.78 1.006.965.342 1.826.771 2.496 1.38.67.608 1.153 1.463 1.153 2.419v5.894c0 .93-.694 1.536-1.342 1.857-.649.321-1.407.46-2.238.46H12.651c-.831 0-1.59-.139-2.237-.46-.649-.321-1.343-.927-1.343-1.857V9.302c0-.96.5-1.824 1.17-2.436.67-.613 1.513-1.039 2.479-1.38 1.931-.684 4.351-.993 6.78-.989z" fill-rule="nonzero"/>
</symbol><symbol id="ico-mono-weather" viewBox="0 0 32 24">
    <path d="M9.875 4.89a5.247 5.247 0 0 1 4.019 1.852 6.125 6.125 0 0 1 4.964-1.056 5.686 5.686 0 0 1 2.79 1.558l.186.198a6.184 6.184 0 0 1 1.764 3.646 6.125 6.125 0 0 1 3.151-.006l.28.08.242.082a5.998 5.998 0 0 1 3.762 4.079 6.14 6.14 0 0 1-1.035 5.365 6.05 6.05 0 0 1-4.572 2.377l-.258.005H9.898a6.05 6.05 0 0 1-4.83-2.382 6.14 6.14 0 0 1-1.08-5.38 5.88 5.88 0 0 1 1.303-2.381 5.21 5.21 0 0 1-.744-2.71A5.336 5.336 0 0 1 9.875 4.89zm8.722 2.262a4.644 4.644 0 0 0-3.922.908 4.584 4.584 0 0 0-1.705 3.334l-.006.245v.461a.744.744 0 0 1-1.064.745 4.562 4.562 0 0 0-1.995-.462c-.482 0-.961.073-1.421.216a4.465 4.465 0 0 0-2.977 3.103 4.659 4.659 0 0 0 .744 4.078 4.57 4.57 0 0 0 3.395 1.795l.252.006h15.27a4.57 4.57 0 0 0 3.489-1.598l.158-.195a4.686 4.686 0 0 0 .789-4.078 4.465 4.465 0 0 0-2.977-3.103 4.607 4.607 0 0 0-3.416.238.744.744 0 0 1-1.064-.745 4.465 4.465 0 0 0-1.37-3.639 4.212 4.212 0 0 0-2.18-1.31zM3.981 11.81a.744.744 0 0 1-.426.875l-.095.033-2.232.595a.744.744 0 0 1-.484-1.406l.097-.03 2.232-.595a.744.744 0 0 1 .908.528zm5.917-5.417a3.836 3.836 0 0 0-3.84 3.802c.002.596.144 1.182.416 1.712a5.953 5.953 0 0 1 1.563-.744 6.117 6.117 0 0 1 3.43-.052 6.05 6.05 0 0 1 1.363-3.334 3.773 3.773 0 0 0-2.706-1.378l-.226-.006v-.008.008zM2.234 4.947L2.337 5l1.98 1.153a.744.744 0 0 1-.647 1.33l-.098-.042-1.98-1.154a.744.744 0 0 1 .535-1.379l.107.038zm12.608-3.28a.744.744 0 0 1 .33.892l-.043.098-1.146 1.987a.744.744 0 0 1-1.338-.639l.05-.105 1.147-1.987a.744.744 0 0 1 1-.245zM8.203 1.07l.035.092.595 2.232a.744.744 0 0 1-1.4.48l-.036-.093-.595-2.232a.744.744 0 0 1 1.35-.573l.051.094z" fill-rule="nonzero"/>
</symbol></svg>